<svg width="38" height="44" viewBox="0 0 38 44" fill="none" xmlns="http://www.w3.org/2000/svg">
<g clip-path="url(#clip0_5_12132)">
<path fill-rule="evenodd" clip-rule="evenodd" d="M5.081 1.93298V41.487C5.081 41.817 5.016 42.1438 4.88971 42.4487C4.76342 42.7536 4.57831 43.0306 4.34496 43.2639C4.11161 43.4973 3.83457 43.6824 3.52968 43.8087C3.22479 43.935 2.89801 44 2.568 44H2.518C2.1876 44.0005 1.86035 43.9359 1.55494 43.8099C1.24953 43.6838 0.971958 43.4988 0.738101 43.2654C0.504244 43.032 0.318685 42.7548 0.192036 42.4497C0.0653868 42.1445 0.000131004 41.8174 0 41.487L1.865 1.93298H5.081Z" fill="#E1903F"/>
<path fill-rule="evenodd" clip-rule="evenodd" d="M5.88007 4.13805H13.6421C13.9821 4.13805 14.2581 4.41405 14.2581 4.75405V4.76605C14.2581 5.10605 13.9821 5.38205 13.6421 5.38205H5.88007C5.41407 5.38205 5.03407 5.52505 5.03407 5.69305V5.70005C5.03407 5.86805 5.41407 6.00605 5.88007 6.00605H13.6431C13.9831 6.00605 14.2591 6.28105 14.2591 6.62105V6.63305C14.2591 6.97305 13.9831 7.24905 13.6431 7.24905H5.88007C5.41407 7.24905 5.03407 7.39305 5.03407 7.56005V7.56605C5.03407 7.73405 5.41407 7.87105 5.88007 7.87105H13.6431C13.9831 7.87105 14.2591 8.14705 14.2591 8.48705V8.49905C14.2591 8.83905 13.9831 9.11505 13.6431 9.11505H5.88007C5.41407 9.11505 5.03407 9.25905 5.03407 9.42605V9.43205C5.03407 9.60105 5.41407 9.73705 5.88007 9.73705H13.6431C13.9831 9.73705 14.2591 10.0131 14.2591 10.3531V10.3661C14.2591 10.7061 13.9831 10.9811 13.6431 10.9811H5.88007C5.41407 10.9811 5.03407 11.1241 5.03407 11.2921V11.2981C5.03407 11.4671 5.41407 11.6031 5.88007 11.6031H13.6431C13.9831 11.6031 14.2591 11.8791 14.2591 12.2191V12.2321C14.2591 12.5721 13.9831 12.8471 13.6431 12.8471H5.88007C5.41407 12.8471 5.03407 12.9901 5.03407 13.1581V13.1651C5.03407 13.3331 5.41407 13.4691 5.88007 13.4691H13.6431C13.9831 13.4691 14.2591 13.7451 14.2591 14.0851V14.0981C14.2591 14.4381 13.9831 14.7141 13.6431 14.7141H5.88007C5.41407 14.7141 5.03407 14.8561 5.03407 15.0241V15.0311C5.03407 15.1991 5.41407 15.3351 5.88007 15.3351H13.6431C13.9831 15.3351 14.2591 15.6111 14.2591 15.9511V15.9641C14.2591 16.3041 13.9831 16.5801 13.6431 16.5801H5.88007C5.41407 16.5801 5.03407 16.7231 5.03407 16.8901V16.8971C5.03407 17.0651 5.41407 17.2021 5.88007 17.2021H13.6431C13.9831 17.2021 14.2591 17.4771 14.2591 17.8171V17.8301C14.2591 18.1701 13.9831 18.4461 13.6431 18.4461H5.88007C5.41407 18.4461 5.03407 18.5891 5.03407 18.7561V18.7631C5.03407 18.9311 5.41407 19.0681 5.88007 19.0681H13.6431C13.9831 19.0681 14.2591 19.3431 14.2591 19.6841V19.6961C14.2591 20.0361 13.9831 20.3121 13.6431 20.3121H5.88007C5.41407 20.3121 5.03407 20.4551 5.03407 20.6221V20.6291C5.03407 20.7971 5.41407 20.9341 5.88007 20.9341H13.6431C13.9831 20.9341 14.2591 21.2091 14.2591 21.5501V21.5621C14.2591 21.9021 13.9831 22.1771 13.6431 22.1771H5.88007C5.41407 22.1771 5.03407 22.3211 5.03407 22.4891V22.4951C5.03407 22.6631 5.41407 22.8001 5.88007 22.8001H13.4971C13.9591 22.8001 14.2881 23.3101 14.0421 23.7031C13.6141 24.3871 12.5971 24.4051 11.4101 24.4051H3.37207V1.93005H11.4091C12.5251 1.93005 13.4891 1.94605 13.9581 2.51605C14.2841 2.91405 13.9851 3.51605 13.4711 3.51605H5.87907C5.41307 3.51605 5.03307 3.65905 5.03307 3.82605V3.83405C5.03307 4.00105 5.41407 4.13805 5.88007 4.13805Z" fill="#E1903F"/>
<path fill-rule="evenodd" clip-rule="evenodd" d="M2.51863 42.9C1.73563 42.9 1.09863 42.266 1.09863 41.487L2.91263 3.07998L2.96263 3.03198H3.93163L3.98163 3.08198V41.437C3.98163 42.245 3.32563 42.9 2.51863 42.9Z" fill="#EF9E53"/>
<path fill-rule="evenodd" clip-rule="evenodd" d="M26.8389 27.37V44H28.0469C28.3358 44 28.6219 43.9431 28.8888 43.8325C29.1557 43.722 29.3982 43.5599 29.6025 43.3556C29.8068 43.1513 29.9688 42.9088 30.0794 42.6419C30.19 42.375 30.2469 42.0889 30.2469 41.8L29.1749 27.136C28.4382 27.2904 27.6876 27.3688 26.9349 27.37H26.8389Z" fill="#E1903F"/>
<path fill-rule="evenodd" clip-rule="evenodd" d="M26.9349 0H26.8389V1.132H26.9349C32.1849 1.132 36.4419 5.228 36.4419 10.282V17.089C36.4419 22.142 32.1859 26.239 26.9349 26.239H26.8389V26.756H29.1469L29.1749 27.136C33.9679 26.139 37.5739 22.016 37.5739 17.089V10.281C37.5739 4.612 32.8009 0 26.9349 0Z" fill="#EF9E53"/>
<path fill-rule="evenodd" clip-rule="evenodd" d="M21.3445 1.88L21.4175 1.884H21.3445V1.88ZM26.8385 26.756V26.239H26.7425C21.4915 26.239 17.2355 22.142 17.2355 17.089V10.281C17.2355 5.228 21.4915 1.131 26.7425 1.131H26.8385V0H26.7425C20.8765 0 16.1025 4.612 16.1025 10.28V17.09C16.1025 22.015 19.7085 26.14 24.5025 27.136L24.5305 26.756H26.8385Z" fill="#E1903F"/>
<path fill-rule="evenodd" clip-rule="evenodd" d="M21.3447 1.88V1.884H21.4177L21.3447 1.88Z" fill="#E1903F"/>
<path fill-rule="evenodd" clip-rule="evenodd" d="M24.4774 5.11798C24.2739 5.11798 24.0788 5.03717 23.935 4.89333C23.7912 4.74949 23.7104 4.5544 23.7104 4.35098C23.7104 4.14756 23.7912 3.95247 23.935 3.80863C24.0788 3.66479 24.2739 3.58398 24.4774 3.58398C24.6808 3.58398 24.8759 3.66479 25.0197 3.80863C25.1635 3.95247 25.2444 4.14756 25.2444 4.35098C25.2444 4.5544 25.1635 4.74949 25.0197 4.89333C24.8759 5.03717 24.6808 5.11798 24.4774 5.11798ZM24.4774 9.83698C24.2741 9.83698 24.0791 9.75622 23.9354 9.61248C23.7916 9.46873 23.7109 9.27377 23.7109 9.07048C23.7109 8.86719 23.7916 8.67223 23.9354 8.52848C24.0791 8.38474 24.2741 8.30398 24.4774 8.30398C24.6806 8.30398 24.8756 8.38474 25.0193 8.52848C25.1631 8.67223 25.2439 8.86719 25.2439 9.07048C25.2439 9.27377 25.1631 9.46873 25.0193 9.61248C24.8756 9.75622 24.6806 9.83698 24.4774 9.83698ZM24.4774 14.556C24.2741 14.556 24.0791 14.4752 23.9354 14.3315C23.7916 14.1877 23.7109 13.9928 23.7109 13.7895C23.7109 13.5862 23.7916 13.3912 23.9354 13.2475C24.0791 13.1037 24.2741 13.023 24.4774 13.023C24.6806 13.023 24.8756 13.1037 25.0193 13.2475C25.1631 13.3912 25.2439 13.5862 25.2439 13.7895C25.2439 13.9928 25.1631 14.1877 25.0193 14.3315C24.8756 14.4752 24.6806 14.556 24.4774 14.556ZM24.4774 19.275C24.2741 19.275 24.0791 19.1942 23.9354 19.0505C23.7916 18.9067 23.7109 18.7118 23.7109 18.5085C23.7109 18.3052 23.7916 18.1102 23.9354 17.9665C24.0791 17.8227 24.2741 17.742 24.4774 17.742C24.6806 17.742 24.8756 17.8227 25.0193 17.9665C25.1631 18.1102 25.2439 18.3052 25.2439 18.5085C25.2439 18.7118 25.1631 18.9067 25.0193 19.0505C24.8756 19.1942 24.6806 19.275 24.4774 19.275ZM24.4774 23.995C24.2741 23.995 24.0791 23.9142 23.9354 23.7705C23.7916 23.6267 23.7109 23.4318 23.7109 23.2285C23.7109 23.0252 23.7916 22.8302 23.9354 22.6865C24.0791 22.5427 24.2741 22.462 24.4774 22.462C24.6805 22.462 24.8753 22.5427 25.019 22.6863C25.1626 22.83 25.2434 23.0248 25.2434 23.228C25.2434 23.4311 25.1626 23.626 25.019 23.7696C24.8753 23.9133 24.6805 23.994 24.4774 23.994V23.995ZM22.1074 7.47498C22.0067 7.47492 21.907 7.45502 21.8141 7.41644C21.7211 7.37786 21.6366 7.32135 21.5655 7.25013C21.4944 7.1789 21.438 7.09437 21.3995 7.00135C21.361 6.90832 21.3413 6.80864 21.3414 6.70798C21.3414 6.60732 21.3613 6.50766 21.3999 6.41469C21.4385 6.32172 21.495 6.23726 21.5662 6.16613C21.6374 6.095 21.722 6.0386 21.815 6.00014C21.908 5.96168 22.0077 5.94192 22.1084 5.94198C22.3116 5.94198 22.5066 6.02274 22.6503 6.16648C22.7941 6.31023 22.8749 6.50519 22.8749 6.70848C22.8749 6.91177 22.7941 7.10673 22.6503 7.25048C22.5066 7.39423 22.3106 7.47498 22.1074 7.47498ZM22.1074 12.195C21.9039 12.1948 21.7089 12.1139 21.5651 11.97C21.4214 11.826 21.3407 11.6309 21.3409 11.4275C21.341 11.2241 21.4219 11.029 21.5659 10.8853C21.7098 10.7415 21.9049 10.6608 22.1084 10.661C22.3116 10.661 22.5066 10.7417 22.6503 10.8855C22.7941 11.0292 22.8749 11.2242 22.8749 11.4275C22.8749 11.6308 22.7941 11.8257 22.6503 11.9695C22.5066 12.1132 22.3116 12.194 22.1084 12.194L22.1074 12.195ZM22.1074 16.913C22.0068 16.9129 21.9072 16.893 21.8143 16.8545C21.7213 16.8159 21.6369 16.7594 21.5659 16.6883C21.4948 16.6171 21.4384 16.5326 21.4 16.4397C21.3615 16.3467 21.3418 16.2471 21.3419 16.1465C21.3419 16.0459 21.3618 15.9463 21.4004 15.8534C21.4389 15.7605 21.4954 15.6761 21.5666 15.605C21.6377 15.5339 21.7222 15.4775 21.8152 15.4391C21.9081 15.4007 22.0078 15.3809 22.1084 15.381C22.3115 15.381 22.5063 15.4617 22.65 15.6053C22.7936 15.749 22.8744 15.9438 22.8744 16.147C22.8744 16.3501 22.7936 16.545 22.65 16.6886C22.5063 16.8323 22.3105 16.913 22.1074 16.913ZM22.1074 21.633C21.9041 21.633 21.7091 21.5522 21.5654 21.4085C21.4216 21.2647 21.3409 21.0698 21.3409 20.8665C21.3409 20.6632 21.4216 20.4682 21.5654 20.3245C21.7091 20.1807 21.9041 20.1 22.1074 20.1C22.3105 20.1 22.5053 20.1807 22.649 20.3243C22.7926 20.468 22.8734 20.6628 22.8734 20.866C22.8734 21.0691 22.7926 21.264 22.649 21.4076C22.5053 21.5513 22.3105 21.633 22.1074 21.633ZM19.7474 9.83698C19.6468 9.83705 19.5471 9.8173 19.4542 9.77886C19.3612 9.74043 19.2767 9.68406 19.2056 9.61298C19.1344 9.54189 19.0779 9.45749 19.0394 9.36458C19.0008 9.27167 18.9809 9.17207 18.9809 9.07148C18.9808 8.97089 19.0005 8.87127 19.039 8.77831C19.0774 8.68535 19.1338 8.60087 19.2049 8.52969C19.2759 8.45852 19.3603 8.40204 19.4533 8.36348C19.5462 8.32493 19.6458 8.30505 19.7464 8.30498C19.9495 8.30498 20.1443 8.38568 20.288 8.52934C20.4316 8.67299 20.5124 8.86783 20.5124 9.07098C20.5124 9.27414 20.4316 9.46897 20.288 9.61263C20.1443 9.75628 19.9505 9.83698 19.7474 9.83698ZM19.7474 14.556C19.6468 14.556 19.5471 14.5363 19.4542 14.4979C19.3612 14.4594 19.2767 14.4031 19.2056 14.332C19.1344 14.2609 19.0779 14.1765 19.0394 14.0836C19.0008 13.9907 18.9809 13.8911 18.9809 13.7905C18.9808 13.6899 19.0005 13.5903 19.039 13.4973C19.0774 13.4043 19.1338 13.3199 19.2049 13.2487C19.2759 13.1775 19.3603 13.121 19.4533 13.0825C19.5462 13.0439 19.6458 13.024 19.7464 13.024C19.9495 13.024 20.1443 13.1047 20.288 13.2483C20.4316 13.392 20.5124 13.5868 20.5124 13.79C20.5124 13.9931 20.4316 14.188 20.288 14.3316C20.1443 14.4753 19.9505 14.556 19.7474 14.556ZM19.7474 19.275C19.6468 19.275 19.5471 19.2553 19.4542 19.2169C19.3612 19.1784 19.2767 19.1221 19.2056 19.051C19.1344 18.9799 19.0779 18.8955 19.0394 18.8026C19.0008 18.7097 18.9809 18.6101 18.9809 18.5095C18.9808 18.4089 19.0005 18.3093 19.039 18.2163C19.0774 18.1233 19.1338 18.0389 19.2049 17.9677C19.2759 17.8965 19.3603 17.84 19.4533 17.8015C19.5462 17.7629 19.6458 17.743 19.7464 17.743C19.9495 17.743 20.1443 17.8237 20.288 17.9673C20.4316 18.111 20.5124 18.3058 20.5124 18.509C20.5124 18.7121 20.4316 18.907 20.288 19.0506C20.1443 19.1943 19.9505 19.275 19.7474 19.275ZM17.2354 10.281V17.089C17.2354 22.142 21.4914 26.239 26.7434 26.239H26.8394V21.632C26.6362 21.632 26.4414 21.5513 26.2977 21.4076C26.1541 21.264 26.0734 21.0691 26.0734 20.866C26.0734 20.6628 26.1541 20.468 26.2977 20.3243C26.4414 20.1807 26.6362 20.1 26.8394 20.1V16.913C26.6362 16.913 26.4414 16.8323 26.2977 16.6886C26.1541 16.545 26.0734 16.3501 26.0734 16.147C26.0734 15.9438 26.1541 15.749 26.2977 15.6053C26.4414 15.4617 26.6362 15.381 26.8394 15.381V12.194C26.6362 12.194 26.4414 12.1133 26.2977 11.9696C26.1541 11.826 26.0734 11.6311 26.0734 11.428C26.0734 11.2248 26.1541 11.03 26.2977 10.8863C26.4414 10.7427 26.6362 10.662 26.8394 10.662V7.47498C26.6362 7.47498 26.4414 7.39428 26.2977 7.25063C26.1541 7.10697 26.0734 6.91214 26.0734 6.70898C26.0734 6.50583 26.1541 6.31099 26.2977 6.16734C26.4414 6.02368 26.6362 5.94298 26.8394 5.94298V1.13098H26.7434C21.4914 1.13098 17.2354 5.22698 17.2354 10.281Z" fill="#662C22"/>
<path fill-rule="evenodd" clip-rule="evenodd" d="M29.2079 22.462C29.4112 22.462 29.6061 22.5427 29.7499 22.6865C29.8936 22.8302 29.9744 23.0252 29.9744 23.2285C29.9744 23.4318 29.8936 23.6267 29.7499 23.7705C29.6061 23.9142 29.4112 23.995 29.2079 23.995C29.0046 23.995 28.8096 23.9142 28.6659 23.7705C28.5221 23.6267 28.4414 23.4318 28.4414 23.2285C28.4414 23.0252 28.5221 22.8302 28.6659 22.6865C28.8096 22.5427 29.0046 22.462 29.2079 22.462ZM29.2079 17.742C29.3086 17.742 29.4083 17.7618 29.5014 17.8004C29.5944 17.8389 29.679 17.8954 29.7502 17.9666C29.8214 18.0379 29.8779 18.1224 29.9165 18.2155C29.955 18.3085 29.9749 18.4083 29.9749 18.509C29.9749 18.6097 29.955 18.7094 29.9165 18.8025C29.8779 18.8956 29.8214 18.9801 29.7502 19.0513C29.679 19.1226 29.5944 19.1791 29.5014 19.2176C29.4083 19.2561 29.3086 19.276 29.2079 19.276C29.0094 19.2688 28.8214 19.1849 28.6835 19.042C28.5456 18.899 28.4686 18.7081 28.4686 18.5095C28.4686 18.3109 28.5456 18.12 28.6835 17.977C28.8214 17.834 29.0094 17.7492 29.2079 17.742ZM29.2079 13.023C29.4113 13.023 29.6064 13.1038 29.7502 13.2476C29.8941 13.3915 29.9749 13.5866 29.9749 13.79C29.9749 13.9934 29.8941 14.1885 29.7502 14.3323C29.6064 14.4762 29.4113 14.557 29.2079 14.557C29.0044 14.557 28.8094 14.4762 28.6655 14.3323C28.5217 14.1885 28.4409 13.9934 28.4409 13.79C28.4409 13.5866 28.5217 13.3915 28.6655 13.2476C28.8094 13.1038 29.0044 13.023 29.2079 13.023ZM29.2079 8.30298C29.3087 8.30298 29.4085 8.32283 29.5016 8.3614C29.5947 8.39997 29.6793 8.45651 29.7506 8.52778C29.8218 8.59905 29.8784 8.68365 29.9169 8.77677C29.9555 8.86989 29.9754 8.96969 29.9754 9.07048C29.9754 9.17127 29.9555 9.27107 29.9169 9.36419C29.8784 9.45731 29.8218 9.54192 29.7506 9.61319C29.6793 9.68445 29.5947 9.74099 29.5016 9.77956C29.4085 9.81813 29.3087 9.83798 29.2079 9.83798C29.0044 9.83798 28.8094 9.75717 28.6655 9.61333C28.5217 9.46949 28.4409 9.2744 28.4409 9.07098C28.4409 8.86756 28.5217 8.67247 28.6655 8.52863C28.8094 8.38479 29.0044 8.30298 29.2079 8.30298ZM29.2079 3.58498C29.3109 3.58126 29.4135 3.59833 29.5098 3.63518C29.606 3.67202 29.6939 3.72788 29.768 3.79943C29.8422 3.87097 29.9012 3.95673 29.9415 4.05158C29.9818 4.14643 30.0026 4.24843 30.0026 4.35148C30.0026 4.45454 29.9818 4.55653 29.9415 4.65138C29.9012 4.74623 29.8422 4.83199 29.768 4.90354C29.6939 4.97508 29.606 5.03094 29.5098 5.06779C29.4135 5.10463 29.3109 5.1217 29.2079 5.11798C29.0094 5.11081 28.8214 5.02692 28.6835 4.88395C28.5456 4.74099 28.4686 4.55011 28.4686 4.35148C28.4686 4.15285 28.5456 3.96197 28.6835 3.81901C28.8214 3.67605 29.0094 3.59215 29.2079 3.58498ZM31.5699 20.1C31.773 20.1 31.9679 20.1807 32.1115 20.3243C32.2552 20.468 32.3359 20.6628 32.3359 20.866C32.3359 21.0691 32.2552 21.264 32.1115 21.4076C31.9679 21.5513 31.773 21.632 31.5699 21.632C31.3667 21.632 31.1719 21.5513 31.0282 21.4076C30.8846 21.264 30.8039 21.0691 30.8039 20.866C30.8039 20.6628 30.8846 20.468 31.0282 20.3243C31.1719 20.1807 31.3667 20.1 31.5699 20.1ZM31.5699 15.381C31.773 15.381 31.9679 15.4617 32.1115 15.6053C32.2552 15.749 32.3359 15.9438 32.3359 16.147C32.3359 16.3501 32.2552 16.545 32.1115 16.6886C31.9679 16.8323 31.773 16.913 31.5699 16.913C31.3667 16.913 31.1719 16.8323 31.0282 16.6886C30.8846 16.545 30.8039 16.3501 30.8039 16.147C30.8039 15.9438 30.8846 15.749 31.0282 15.6053C31.1719 15.4617 31.3667 15.381 31.5699 15.381ZM31.5699 10.662C31.773 10.662 31.9679 10.7427 32.1115 10.8863C32.2552 11.03 32.3359 11.2248 32.3359 11.428C32.3359 11.6311 32.2552 11.826 32.1115 11.9696C31.9679 12.1133 31.773 12.194 31.5699 12.194C31.3667 12.194 31.1719 12.1133 31.0282 11.9696C30.8846 11.826 30.8039 11.6311 30.8039 11.428C30.8039 11.2248 30.8846 11.03 31.0282 10.8863C31.1719 10.7427 31.3667 10.662 31.5699 10.662ZM31.5699 5.94198C31.7732 5.94198 31.9681 6.02274 32.1119 6.16648C32.2556 6.31023 32.3364 6.50519 32.3364 6.70848C32.3364 6.91177 32.2556 7.10673 32.1119 7.25048C31.9681 7.39423 31.7732 7.47498 31.5699 7.47498C31.3667 7.47498 31.1719 7.39428 31.0282 7.25063C30.8846 7.10697 30.8039 6.91214 30.8039 6.70898C30.8039 6.50583 30.8846 6.31099 31.0282 6.16734C31.1719 6.02368 31.3667 5.94198 31.5699 5.94198ZM33.9389 17.742C34.1422 17.742 34.3371 17.8227 34.4809 17.9665C34.6246 18.1102 34.7054 18.3052 34.7054 18.5085C34.7054 18.7118 34.6246 18.9067 34.4809 19.0505C34.3371 19.1942 34.1422 19.275 33.9389 19.275C33.7357 19.275 33.5409 19.1943 33.3972 19.0506C33.2536 18.907 33.1729 18.7121 33.1729 18.509C33.1729 18.3058 33.2536 18.111 33.3972 17.9673C33.5409 17.8237 33.7357 17.742 33.9389 17.742ZM33.9389 13.023C34.0395 13.0229 34.1392 13.0427 34.2322 13.0811C34.3253 13.1196 34.4098 13.176 34.481 13.2471C34.5522 13.3183 34.6087 13.4027 34.6473 13.4957C34.6859 13.5887 34.7058 13.6883 34.7059 13.789C34.7059 13.8896 34.6862 13.9893 34.6477 14.0823C34.6093 14.1754 34.5528 14.2599 34.4817 14.3311C34.4106 14.4023 34.3261 14.4589 34.2332 14.4974C34.1402 14.536 34.0405 14.5559 33.9399 14.556C33.8393 14.556 33.7397 14.5363 33.6467 14.4979C33.5537 14.4594 33.4693 14.4031 33.3981 14.332C33.3269 14.2609 33.2704 14.1765 33.2319 14.0836C33.1933 13.9907 33.1734 13.8911 33.1734 13.7905C33.1733 13.6899 33.193 13.5903 33.2315 13.4973C33.2699 13.4043 33.3263 13.3199 33.3974 13.2487C33.4685 13.1775 33.5529 13.121 33.6458 13.0825C33.7387 13.0439 33.8383 13.023 33.9389 13.023ZM33.9389 8.30298C34.1423 8.30298 34.3374 8.38379 34.4812 8.52763C34.6251 8.67147 34.7059 8.86656 34.7059 9.06998C34.7059 9.2734 34.6251 9.46849 34.4812 9.61233C34.3374 9.75617 34.1423 9.83698 33.9389 9.83698C33.7404 9.82981 33.5524 9.74592 33.4145 9.60295C33.2766 9.45999 33.1996 9.26911 33.1996 9.07048C33.1996 8.87186 33.2766 8.68097 33.4145 8.53801C33.5524 8.39505 33.7404 8.31015 33.9389 8.30298ZM27.6049 6.70998C27.6049 6.91314 27.5242 7.10797 27.3805 7.25163C27.2369 7.39528 27.042 7.47598 26.8389 7.47598V10.663C27.042 10.663 27.2369 10.7437 27.3805 10.8873C27.5242 11.031 27.6049 11.2258 27.6049 11.429C27.6049 11.6321 27.5242 11.827 27.3805 11.9706C27.2369 12.1143 27.042 12.195 26.8389 12.195V15.382C27.042 15.382 27.2369 15.4627 27.3805 15.6063C27.5242 15.75 27.6049 15.9448 27.6049 16.148C27.6049 16.3511 27.5242 16.546 27.3805 16.6896C27.2369 16.8333 27.042 16.914 26.8389 16.914V20.1C27.042 20.1 27.2369 20.1807 27.3805 20.3243C27.5242 20.468 27.6049 20.6628 27.6049 20.866C27.6049 21.0691 27.5242 21.264 27.3805 21.4076C27.2369 21.5513 27.042 21.632 26.8389 21.632V26.239H26.9349C32.1849 26.239 36.4419 22.142 36.4419 17.089V10.281C36.4419 5.22798 32.1859 1.13098 26.9349 1.13098H26.8389V5.94198C27.2619 5.94198 27.6049 6.28698 27.6049 6.70998Z" fill="#59231D"/>
<path fill-rule="evenodd" clip-rule="evenodd" d="M22.1077 5.94299C22.0047 5.93933 21.902 5.95647 21.8058 5.99338C21.7096 6.03029 21.6218 6.08621 21.5476 6.1578C21.4735 6.22939 21.4146 6.31519 21.3743 6.41006C21.3341 6.50494 21.3134 6.60695 21.3135 6.71001C21.3135 6.81306 21.3344 6.91504 21.3747 7.00987C21.4151 7.10469 21.4741 7.19041 21.5484 7.2619C21.6226 7.3334 21.7105 7.3892 21.8067 7.42599C21.903 7.46277 22.0057 7.47977 22.1087 7.47599C22.3072 7.46869 22.4951 7.38467 22.6329 7.24162C22.7707 7.09856 22.8476 6.90763 22.8475 6.709C22.8473 6.51038 22.7702 6.31955 22.6322 6.17667C22.4942 6.0338 22.3062 5.95003 22.1077 5.94299ZM26.0727 6.70899C26.0727 7.13199 26.4157 7.47499 26.8387 7.47499V5.94299C26.6355 5.94299 26.4407 6.02369 26.297 6.16734C26.1534 6.311 26.0727 6.50583 26.0727 6.70899Z" fill="#FBD88C"/>
<path fill-rule="evenodd" clip-rule="evenodd" d="M27.6049 6.70899C27.6049 6.50584 27.5242 6.311 27.3805 6.16735C27.2369 6.0237 27.042 5.94299 26.8389 5.94299V7.47499C27.042 7.47499 27.2369 7.39429 27.3805 7.25064C27.5242 7.10698 27.6049 6.91215 27.6049 6.70899ZM31.5699 7.47499C31.6727 7.47871 31.7753 7.46166 31.8714 7.42487C31.9675 7.38807 32.0552 7.33228 32.1293 7.26083C32.2034 7.18938 32.2623 7.10374 32.3026 7.00901C32.3428 6.91428 32.3635 6.81242 32.3635 6.70949C32.3635 6.60657 32.3428 6.5047 32.3026 6.40998C32.2623 6.31525 32.2034 6.2296 32.1293 6.15815C32.0552 6.0867 31.9675 6.03091 31.8714 5.99412C31.7753 5.95732 31.6727 5.94027 31.5699 5.94399C31.3737 5.95402 31.189 6.039 31.0537 6.18136C30.9184 6.32373 30.843 6.51261 30.843 6.70899C30.843 6.90538 30.9184 7.09426 31.0537 7.23662C31.189 7.37899 31.3737 7.46496 31.5699 7.47499Z" fill="#F3B62C"/>
<path fill-rule="evenodd" clip-rule="evenodd" d="M19.7468 8.30397C19.6438 8.30025 19.5412 8.31732 19.4449 8.35416C19.3487 8.39101 19.2609 8.44687 19.1867 8.51841C19.1125 8.58996 19.0535 8.67571 19.0132 8.77056C18.9729 8.86541 18.9521 8.96741 18.9521 9.07047C18.9521 9.17352 18.9729 9.27552 19.0132 9.37037C19.0535 9.46522 19.1125 9.55098 19.1867 9.62252C19.2609 9.69406 19.3487 9.74993 19.4449 9.78677C19.5412 9.82362 19.6438 9.84069 19.7468 9.83697C19.9453 9.8298 20.1333 9.7459 20.2712 9.60294C20.4091 9.45998 20.4861 9.26909 20.4861 9.07047C20.4861 8.87184 20.4091 8.68096 20.2712 8.538C20.1333 8.39503 19.9453 8.31114 19.7468 8.30397ZM24.4768 8.30397C24.3761 8.3041 24.2764 8.32407 24.1834 8.36273C24.0904 8.4014 24.0059 8.45801 23.9348 8.52932C23.8637 8.60064 23.8073 8.68527 23.7688 8.77837C23.7304 8.87148 23.7107 8.97124 23.7108 9.07197C23.711 9.17269 23.7309 9.2724 23.7696 9.36541C23.8083 9.45842 23.8649 9.5429 23.9362 9.61403C24.0075 9.68516 24.0921 9.74154 24.1852 9.77996C24.2784 9.81839 24.3781 9.8381 24.4788 9.83797C24.6823 9.8377 24.8772 9.75664 25.0209 9.61261C25.1645 9.46858 25.2451 9.27339 25.2448 9.06997C25.2446 8.86655 25.1635 8.67156 25.0195 8.52791C24.8755 8.38426 24.6803 8.3037 24.4768 8.30397Z" fill="#FBD88C"/>
<path fill-rule="evenodd" clip-rule="evenodd" d="M29.209 9.83697C29.312 9.84069 29.4147 9.82362 29.5109 9.78677C29.6072 9.74993 29.695 9.69406 29.7692 9.62252C29.8434 9.55098 29.9024 9.46522 29.9427 9.37037C29.983 9.27552 30.0037 9.17352 30.0037 9.07047C30.0037 8.96741 29.983 8.86541 29.9427 8.77056C29.9024 8.67571 29.8434 8.58996 29.7692 8.51841C29.695 8.44687 29.6072 8.39101 29.5109 8.35416C29.4147 8.31732 29.312 8.30025 29.209 8.30397C29.0105 8.31114 28.8226 8.39503 28.6847 8.538C28.5468 8.68096 28.4697 8.87184 28.4697 9.07047C28.4697 9.26909 28.5468 9.45998 28.6847 9.60294C28.8226 9.7459 29.0105 9.8298 29.209 9.83697Z" fill="#F3B62C"/>
<path fill-rule="evenodd" clip-rule="evenodd" d="M24.4774 3.58496C24.2741 3.58496 24.0792 3.66572 23.9354 3.80946C23.7917 3.95321 23.7109 4.14817 23.7109 4.35146C23.7109 4.55475 23.7917 4.74971 23.9354 4.89346C24.0792 5.0372 24.2741 5.11796 24.4774 5.11796C24.6807 5.11796 24.8757 5.0372 25.0194 4.89346C25.1632 4.74971 25.2439 4.55475 25.2439 4.35146C25.2439 4.14817 25.1632 3.95321 25.0194 3.80946C24.8757 3.66572 24.6807 3.58496 24.4774 3.58496Z" fill="#FBD88C"/>
<path fill-rule="evenodd" clip-rule="evenodd" d="M29.2094 5.11798C29.4128 5.11798 29.6079 5.03718 29.7517 4.89334C29.8956 4.74949 29.9764 4.55441 29.9764 4.35098C29.9764 4.14756 29.8956 3.95247 29.7517 3.80863C29.6079 3.66479 29.4128 3.58398 29.2094 3.58398C29.006 3.58398 28.8109 3.66479 28.667 3.80863C28.5232 3.95247 28.4424 4.14756 28.4424 4.35098C28.4424 4.55441 28.5232 4.74949 28.667 4.89334C28.8109 5.03718 29.006 5.11798 29.2094 5.11798ZM33.9394 9.83698C34.1427 9.83712 34.3377 9.75649 34.4815 9.61284C34.6254 9.46918 34.7063 9.27427 34.7064 9.07098C34.7065 8.8677 34.6259 8.67268 34.4822 8.52884C34.3386 8.385 34.1437 8.30412 33.9404 8.30398C33.7371 8.30385 33.5421 8.38448 33.3982 8.52813C33.2544 8.67179 33.1735 8.8667 33.1734 9.06998C33.1733 9.27327 33.2539 9.46829 33.3975 9.61213C33.5412 9.75597 33.7361 9.83685 33.9394 9.83698Z" fill="#F3B62C"/>
<path fill-rule="evenodd" clip-rule="evenodd" d="M22.1083 10.662C21.905 10.662 21.71 10.7427 21.5663 10.8865C21.4226 11.0302 21.3418 11.2252 21.3418 11.4285C21.3418 11.6318 21.4226 11.8267 21.5663 11.9705C21.71 12.1142 21.905 12.195 22.1083 12.195C22.3116 12.195 22.5065 12.1142 22.6503 11.9705C22.794 11.8267 22.8748 11.6318 22.8748 11.4285C22.8748 11.2252 22.794 11.0302 22.6503 10.8865C22.5065 10.7427 22.3116 10.662 22.1083 10.662ZM26.0733 11.428C26.0733 11.852 26.4163 12.194 26.8393 12.194V10.662C26.6361 10.662 26.4413 10.7427 26.2977 10.8863C26.154 11.03 26.0733 11.2248 26.0733 11.428Z" fill="#FBD88C"/>
<path fill-rule="evenodd" clip-rule="evenodd" d="M27.6049 11.428C27.6049 11.2248 27.5242 11.03 27.3805 10.8863C27.2369 10.7427 27.042 10.662 26.8389 10.662V12.194C27.042 12.194 27.2369 12.1133 27.3805 11.9696C27.5242 11.826 27.6049 11.6311 27.6049 11.428ZM31.5699 12.194C31.6736 12.1993 31.7774 12.1834 31.8748 12.1474C31.9722 12.1113 32.0613 12.0559 32.1366 11.9843C32.2119 11.9127 32.2719 11.8266 32.3129 11.7311C32.3539 11.6357 32.375 11.5329 32.375 11.429C32.375 11.3251 32.3539 11.2223 32.3129 11.1268C32.2719 11.0314 32.2119 10.9452 32.1366 10.8737C32.0613 10.8021 31.9722 10.7466 31.8748 10.7106C31.7774 10.6745 31.6736 10.6587 31.5699 10.664C31.3737 10.674 31.189 10.759 31.0537 10.9014C30.9184 11.0437 30.843 11.2326 30.843 11.429C30.843 11.6254 30.9184 11.8143 31.0537 11.9566C31.189 12.099 31.3737 12.184 31.5699 12.194Z" fill="#F3B62C"/>
<path fill-rule="evenodd" clip-rule="evenodd" d="M19.7474 13.024C19.5443 13.024 19.3495 13.1048 19.2058 13.2484C19.0621 13.3921 18.9814 13.5869 18.9814 13.79C18.9814 13.9932 19.0621 14.188 19.2058 14.3317C19.3495 14.4753 19.5443 14.556 19.7474 14.556C19.9506 14.556 20.1454 14.4753 20.2891 14.3317C20.4327 14.188 20.5134 13.9932 20.5134 13.79C20.5134 13.5869 20.4327 13.3921 20.2891 13.2484C20.1454 13.1048 19.9506 13.024 19.7474 13.024ZM24.4774 13.024C24.2742 13.024 24.0792 13.1048 23.9354 13.2486C23.7917 13.3923 23.7109 13.5873 23.7109 13.7905C23.7109 13.9938 23.7917 14.1888 23.9354 14.3325C24.0792 14.4763 24.2742 14.557 24.4774 14.557C24.6807 14.557 24.8757 14.4763 25.0194 14.3325C25.1632 14.1888 25.2439 13.9938 25.2439 13.7905C25.2439 13.5873 25.1632 13.3923 25.0194 13.2486C24.8757 13.1048 24.6807 13.024 24.4774 13.024Z" fill="#FBD88C"/>
<path fill-rule="evenodd" clip-rule="evenodd" d="M29.209 14.556C29.312 14.5597 29.4147 14.5426 29.5109 14.5058C29.6072 14.4689 29.695 14.4131 29.7692 14.3415C29.8434 14.27 29.9024 14.1842 29.9427 14.0894C29.983 13.9945 30.0037 13.8925 30.0037 13.7895C30.0037 13.6864 29.983 13.5844 29.9427 13.4896C29.9024 13.3947 29.8434 13.309 29.7692 13.2374C29.695 13.1659 29.6072 13.11 29.5109 13.0732C29.4147 13.0363 29.312 13.0192 29.209 13.023C29.0105 13.0301 28.8226 13.114 28.6847 13.257C28.5468 13.4 28.4697 13.5908 28.4697 13.7895C28.4697 13.9881 28.5468 14.179 28.6847 14.3219C28.8226 14.4649 29.0105 14.5488 29.209 14.556ZM33.939 14.556C34.0397 14.556 34.1394 14.5363 34.2324 14.4978C34.3254 14.4593 34.41 14.4029 34.4812 14.3318C34.5524 14.2607 34.6089 14.1762 34.6475 14.0833C34.6861 13.9903 34.706 13.8906 34.706 13.79C34.7061 13.6893 34.6863 13.5896 34.6479 13.4966C34.6094 13.4036 34.553 13.319 34.4819 13.2478C34.4108 13.1766 34.3263 13.1201 34.2333 13.0815C34.1404 13.0429 34.0407 13.023 33.94 13.023C33.7367 13.0228 33.5417 13.1035 33.3979 13.2471C33.2541 13.3908 33.1732 13.5857 33.173 13.789C33.1729 13.9922 33.2535 14.1873 33.3972 14.3311C33.5408 14.4749 33.7357 14.5558 33.939 14.556Z" fill="#F3B62C"/>
<path fill-rule="evenodd" clip-rule="evenodd" d="M22.1083 15.381C21.905 15.381 21.71 15.4618 21.5663 15.6055C21.4226 15.7493 21.3418 15.9442 21.3418 16.1475C21.3418 16.3508 21.4226 16.5458 21.5663 16.6895C21.71 16.8332 21.905 16.914 22.1083 16.914C22.3116 16.914 22.5065 16.8332 22.6503 16.6895C22.794 16.5458 22.8748 16.3508 22.8748 16.1475C22.8748 15.9442 22.794 15.7493 22.6503 15.6055C22.5065 15.4618 22.3116 15.381 22.1083 15.381ZM26.0733 16.147C26.0733 16.571 26.4163 16.914 26.8393 16.914V15.38C26.6361 15.38 26.4413 15.4607 26.2977 15.6044C26.154 15.748 26.0733 15.9438 26.0733 16.147Z" fill="#FBD88C"/>
<path fill-rule="evenodd" clip-rule="evenodd" d="M27.6049 16.147C27.6049 15.9438 27.5242 15.749 27.3805 15.6053C27.2369 15.4617 27.042 15.381 26.8389 15.381V16.913C27.042 16.913 27.2369 16.8323 27.3805 16.6886C27.5242 16.545 27.6049 16.3501 27.6049 16.147ZM31.5699 16.913C31.6736 16.9183 31.7774 16.9024 31.8748 16.8664C31.9722 16.8303 32.0613 16.7748 32.1366 16.7033C32.2119 16.6317 32.2719 16.5456 32.3129 16.4501C32.3539 16.3547 32.375 16.2519 32.375 16.148C32.375 16.0441 32.3539 15.9413 32.3129 15.8458C32.2719 15.7504 32.2119 15.6642 32.1366 15.5927C32.0613 15.5211 31.9722 15.4656 31.8748 15.4296C31.7774 15.3935 31.6736 15.3777 31.5699 15.383C31.3737 15.393 31.189 15.478 31.0537 15.6204C30.9184 15.7627 30.843 15.9516 30.843 16.148C30.843 16.3444 30.9184 16.5332 31.0537 16.6756C31.189 16.818 31.3737 16.903 31.5699 16.913Z" fill="#F3B62C"/>
<path fill-rule="evenodd" clip-rule="evenodd" d="M19.7474 17.7431C19.5443 17.7431 19.3495 17.8238 19.2058 17.9674C19.0621 18.1111 18.9814 18.3059 18.9814 18.5091C18.9814 18.7122 19.0621 18.907 19.2058 19.0507C19.3495 19.1944 19.5443 19.2751 19.7474 19.2751C19.9506 19.2751 20.1454 19.1944 20.2891 19.0507C20.4327 18.907 20.5134 18.7122 20.5134 18.5091C20.5134 18.3059 20.4327 18.1111 20.2891 17.9674C20.1454 17.8238 19.9506 17.7431 19.7474 17.7431ZM24.4774 17.7431C24.3745 17.7393 24.2718 17.7564 24.1755 17.7932C24.0793 17.8301 23.9915 17.886 23.9173 17.9575C23.8431 18.029 23.7841 18.1148 23.7438 18.2097C23.7035 18.3045 23.6828 18.4065 23.6828 18.5096C23.6828 18.6126 23.7035 18.7146 23.7438 18.8095C23.7841 18.9043 23.8431 18.9901 23.9173 19.0616C23.9915 19.1332 24.0793 19.189 24.1755 19.2259C24.2718 19.2627 24.3745 19.2798 24.4774 19.2761C24.6759 19.2689 24.8639 19.185 25.0018 19.042C25.1397 18.8991 25.2168 18.7082 25.2168 18.5096C25.2168 18.3109 25.1397 18.12 25.0018 17.9771C24.8639 17.8341 24.6759 17.7502 24.4774 17.7431Z" fill="#FBD88C"/>
<path fill-rule="evenodd" clip-rule="evenodd" d="M29.2089 19.2749C29.4122 19.2749 29.6071 19.1942 29.7509 19.0504C29.8946 18.9067 29.9754 18.7117 29.9754 18.5084C29.9754 18.3052 29.8946 18.1102 29.7509 17.9664C29.6071 17.8227 29.4122 17.7419 29.2089 17.7419C29.0056 17.7419 28.8106 17.8227 28.6669 17.9664C28.5231 18.1102 28.4424 18.3052 28.4424 18.5084C28.4424 18.7117 28.5231 18.9067 28.6669 19.0504C28.8106 19.1942 29.0056 19.2749 29.2089 19.2749ZM33.9389 19.2749C34.0395 19.275 34.1391 19.2553 34.2321 19.2168C34.325 19.1784 34.4095 19.122 34.4807 19.0509C34.5518 18.9799 34.6083 18.8955 34.6469 18.8025C34.6854 18.7096 34.7053 18.61 34.7054 18.5094C34.7055 18.4089 34.6857 18.3092 34.6473 18.2163C34.6088 18.1233 34.5525 18.0388 34.4814 17.9677C34.4103 17.8965 34.3259 17.84 34.233 17.8014C34.1401 17.7629 34.0405 17.743 33.9399 17.7429C33.7367 17.7428 33.5418 17.8234 33.3981 17.9669C33.2543 18.1105 33.1735 18.3053 33.1734 18.5084C33.1733 18.7116 33.2538 18.9065 33.3974 19.0502C33.5409 19.194 33.7357 19.2748 33.9389 19.2749Z" fill="#F3B62C"/>
<path fill-rule="evenodd" clip-rule="evenodd" d="M22.1083 20.1C21.905 20.1 21.71 20.1807 21.5663 20.3245C21.4226 20.4682 21.3418 20.6632 21.3418 20.8665C21.3418 21.0698 21.4226 21.2647 21.5663 21.4085C21.71 21.5522 21.905 21.633 22.1083 21.633C22.3116 21.633 22.5065 21.5522 22.6503 21.4085C22.794 21.2647 22.8748 21.0698 22.8748 20.8665C22.8748 20.6632 22.794 20.4682 22.6503 20.3245C22.5065 20.1807 22.3116 20.1 22.1083 20.1ZM26.0733 20.866C26.0733 21.29 26.4163 21.633 26.8393 21.633V20.1C26.6361 20.1 26.4413 20.1807 26.2977 20.3243C26.154 20.468 26.0733 20.6628 26.0733 20.866Z" fill="#FBD88C"/>
<path fill-rule="evenodd" clip-rule="evenodd" d="M27.6049 20.866C27.6049 20.6628 27.5242 20.468 27.3805 20.3243C27.2369 20.1807 27.042 20.1 26.8389 20.1V21.632C27.042 21.632 27.2369 21.5513 27.3805 21.4076C27.5242 21.264 27.6049 21.0691 27.6049 20.866ZM31.5699 21.633C31.6703 21.6331 31.7698 21.6135 31.8627 21.5751C31.9556 21.5368 32.04 21.4806 32.1111 21.4096C32.1822 21.3387 32.2387 21.2544 32.2773 21.1617C32.3158 21.0689 32.3357 20.9694 32.3359 20.869C32.336 20.7685 32.3163 20.669 32.278 20.5761C32.2397 20.4833 32.1835 20.3989 32.1125 20.3277C32.0416 20.2566 31.9573 20.2002 31.8645 20.1616C31.7718 20.123 31.6723 20.1031 31.5719 20.103C31.369 20.1027 31.1743 20.1831 31.0306 20.3263C30.887 20.4696 30.8061 20.6641 30.8059 20.867C30.8056 21.0699 30.8859 21.2646 31.0292 21.4082C31.1725 21.5519 31.367 21.6327 31.5699 21.633Z" fill="#F3B62C"/>
<path fill-rule="evenodd" clip-rule="evenodd" d="M24.4774 22.462C24.2741 22.462 24.0792 22.5428 23.9354 22.6865C23.7917 22.8303 23.7109 23.0252 23.7109 23.2285C23.7109 23.4318 23.7917 23.6268 23.9354 23.7705C24.0792 23.9143 24.2741 23.995 24.4774 23.995C24.6807 23.995 24.8757 23.9143 25.0194 23.7705C25.1632 23.6268 25.2439 23.4318 25.2439 23.2285C25.2439 23.0252 25.1632 22.8303 25.0194 22.6865C24.8757 22.5428 24.6807 22.462 24.4774 22.462Z" fill="#FBD88C"/>
<path fill-rule="evenodd" clip-rule="evenodd" d="M29.2094 23.9951C29.3101 23.9951 29.4098 23.9752 29.5029 23.9367C29.596 23.8981 29.6805 23.8416 29.7517 23.7704C29.823 23.6992 29.8795 23.6146 29.918 23.5216C29.9565 23.4285 29.9764 23.3288 29.9764 23.2281C29.9764 23.1273 29.9565 23.0276 29.918 22.9345C29.8795 22.8415 29.823 22.7569 29.7517 22.6857C29.6805 22.6145 29.596 22.558 29.5029 22.5194C29.4098 22.4809 29.3101 22.4611 29.2094 22.4611C29.006 22.4611 28.8109 22.5419 28.667 22.6857C28.5232 22.8295 28.4424 23.0246 28.4424 23.2281C28.4424 23.4315 28.5232 23.6266 28.667 23.7704C28.8109 23.9143 29.006 23.9951 29.2094 23.9951Z" fill="#F3B62C"/>
<path fill-rule="evenodd" clip-rule="evenodd" d="M26.7427 27.37C25.9747 27.37 25.2257 27.287 24.5027 27.136L23.4307 41.801C23.4309 42.3841 23.6627 42.9433 24.075 43.3556C24.4874 43.768 25.0465 43.9997 25.6297 44H26.8377V27.37H26.7427Z" fill="#EF9E53"/>
<path fill-rule="evenodd" clip-rule="evenodd" d="M26.8399 27.37V26.756H24.5299L24.5029 27.136C25.2259 27.286 25.9739 27.37 26.7429 27.37H26.8399Z" fill="#E1903F"/>
<path fill-rule="evenodd" clip-rule="evenodd" d="M26.8389 26.756V27.37H26.9349C27.7039 27.37 28.4519 27.287 29.1749 27.136L29.1469 26.756H26.8389Z" fill="#EF9E53"/>
</g>
<defs>
<clipPath id="clip0_5_12132">
<rect width="38" height="44" fill="white"/>
</clipPath>
</defs>
</svg>
