<svg width="29" height="30" viewBox="0 0 29 30" fill="none" xmlns="http://www.w3.org/2000/svg">
<rect width="29" height="30" rx="8" fill="white"/>
<path d="M10.6667 26.6869C11.6839 27.5035 13.0273 28 14.5 28C15.9727 28 17.316 27.5035 18.3333 26.6869M3.72972 22.4848C3.12366 22.4848 2.78515 21.5281 3.15176 20.9965C4.00246 19.7631 4.82354 17.9541 4.82354 15.7757L4.85863 12.6191C4.85863 6.75432 9.17522 2 14.5 2C19.9032 2 24.2834 6.82435 24.2834 12.7755L24.2483 15.7757C24.2483 17.9691 25.0411 19.788 25.8572 21.0219C26.2096 21.5547 25.8702 22.4848 25.2717 22.4848H3.72972Z" stroke="black" stroke-width="3" stroke-linecap="round" stroke-linejoin="round"/>
</svg>
