<svg width="30" height="34" viewBox="0 0 30 34" fill="none" xmlns="http://www.w3.org/2000/svg">
<path d="M26.8522 25.2711C26.8522 25.7661 26.7545 26.2749 26.5467 26.7699C26.3389 27.2649 26.07 27.7324 25.7156 28.1724C25.1167 28.9149 24.4567 29.4511 23.7111 29.7949C22.9778 30.1386 22.1833 30.3174 21.3278 30.3174C20.0811 30.3174 18.7489 29.9874 17.3433 29.3136C15.9378 28.6399 14.5322 27.7324 13.1389 26.5911C11.7333 25.4361 10.4011 24.1574 9.13001 22.7411C7.87112 21.3111 6.73446 19.8124 5.72001 18.2449C4.71779 16.6774 3.91112 15.1099 3.32446 13.5561C2.73779 11.9886 2.44446 10.4899 2.44446 9.05988C2.44446 8.12488 2.59112 7.23113 2.88446 6.40613C3.17779 5.56738 3.64224 4.79738 4.29001 4.10988C5.07224 3.24363 5.92779 2.81738 6.83224 2.81738C7.17446 2.81738 7.51668 2.89988 7.82224 3.06488C8.14001 3.22988 8.42112 3.47738 8.64112 3.83488L11.4767 8.33113C11.6967 8.67488 11.8556 8.99113 11.9656 9.29363C12.0756 9.58238 12.1367 9.87113 12.1367 10.1324C12.1367 10.4624 12.0511 10.7924 11.88 11.1086C11.7211 11.4249 11.4889 11.7549 11.1956 12.0849L10.2667 13.1711C10.1322 13.3224 10.0711 13.5011 10.0711 13.7211C10.0711 13.8311 10.0833 13.9274 10.1078 14.0374C10.1445 14.1474 10.1811 14.2299 10.2056 14.3124C10.4256 14.7661 10.8045 15.3574 11.3422 16.0724C11.8922 16.7874 12.4789 17.5161 13.1145 18.2449C13.7745 18.9736 14.41 19.6474 15.0578 20.2661C15.6933 20.8711 16.2189 21.2836 16.6345 21.5311C16.6956 21.5586 16.7689 21.5999 16.8545 21.6411C16.9522 21.6824 17.05 21.6961 17.16 21.6961C17.3678 21.6961 17.5267 21.6136 17.6611 21.4624L18.59 20.4311C18.8956 20.0874 19.1889 19.8261 19.47 19.6611C19.7511 19.4686 20.0322 19.3724 20.3378 19.3724C20.57 19.3724 20.8145 19.4274 21.0833 19.5511C21.3522 19.6749 21.6333 19.8536 21.9389 20.0874L25.9845 23.3186C26.3022 23.5661 26.5222 23.8549 26.6567 24.1986C26.7789 24.5424 26.8522 24.8861 26.8522 25.2711Z" fill="#171717"/>
</svg>
