<svg width="36" height="36" viewBox="0 0 36 36" fill="none" xmlns="http://www.w3.org/2000/svg">
<path d="M30.7204 28.2575C30.7204 28.2575 29.0206 29.927 28.6041 30.4164C27.9255 31.1406 27.126 31.4825 26.0779 31.4825C25.9771 31.4825 25.8696 31.4825 25.7689 31.4758C23.7734 31.3484 21.9191 30.5707 20.5284 29.9069C16.7257 28.0697 13.3865 25.4616 10.6118 22.1561C8.32074 19.4004 6.78891 16.8526 5.77441 14.117C5.14958 12.4475 4.92115 11.1467 5.02193 9.91975C5.08911 9.13528 5.39145 8.48491 5.94909 7.92841L8.24012 5.64206C8.56933 5.33364 8.91869 5.16602 9.26134 5.16602C9.68461 5.16602 10.0273 5.4208 10.2423 5.63535C10.249 5.64206 10.2557 5.64876 10.2624 5.65547C10.6722 6.03765 11.0619 6.43323 11.4717 6.85564C11.68 7.07019 11.895 7.28475 12.11 7.506L13.9442 9.33643C14.6564 10.0471 14.6564 10.7042 13.9442 11.4149C13.7493 11.6094 13.5612 11.8038 13.3664 11.9915C12.802 12.5682 13.2454 12.1257 12.6608 12.6487C12.6474 12.6621 12.634 12.6688 12.6273 12.6822C12.0495 13.2588 12.157 13.822 12.2779 14.2042C12.2846 14.2243 12.2913 14.2445 12.298 14.2646C12.7751 15.4178 13.4469 16.504 14.4681 17.798L14.4749 17.8047C16.3292 20.0844 18.2843 21.8612 20.4409 23.2222C20.7164 23.3966 20.9986 23.5374 21.2673 23.6715C21.5092 23.7921 21.7376 23.9061 21.9325 24.0268C21.9593 24.0402 21.9862 24.0603 22.0131 24.0737C22.2415 24.1877 22.4565 24.2414 22.6782 24.2414C23.2359 24.2414 23.5852 23.8927 23.6995 23.7787L25.0164 22.4645C25.2448 22.2365 25.6076 21.9616 26.0309 21.9616C26.4474 21.9616 26.7901 22.2231 26.9984 22.4511C27.0051 22.4578 27.0051 22.4578 27.0118 22.4645L30.7137 26.1589C31.4057 26.8428 30.7204 28.2575 30.7204 28.2575Z" stroke="black" stroke-width="2.93407" stroke-linecap="round" stroke-linejoin="round"/>
</svg>
