<svg width="52" height="54" viewBox="0 0 52 54" fill="none" xmlns="http://www.w3.org/2000/svg">
<g clip-path="url(#clip0_5_15929)">
<path d="M50.0701 3.28906C51.3566 3.55989 51.9998 4.33854 51.9998 5.625C51.9998 18.625 47.3957 29.7292 38.1873 38.9375C28.979 48.1458 17.8748 52.75 4.87484 52.75C3.58838 52.75 2.80973 52.1068 2.5389 50.8203L0.1014 40.2578C-0.237142 38.9714 0.236816 38.0573 1.52327 37.5156L12.8983 32.6406C13.9816 32.1667 14.9295 32.4036 15.742 33.3516L20.7186 39.4453C24.7134 37.6172 28.2511 35.1458 31.3319 32.0312C34.4126 28.9167 36.867 25.3958 38.6951 21.4688L32.6014 16.3906C31.6535 15.6458 31.4165 14.6979 31.8905 13.5469L36.7655 2.17188C37.3071 0.953125 38.2212 0.51302 39.5076 0.851562L50.0701 3.28906Z" fill="#7C58D3"/>
</g>
<defs>
<clipPath id="clip0_5_15929">
<rect width="52" height="53" fill="white" transform="matrix(1 0 0 -1 0 53.25)"/>
</clipPath>
</defs>
</svg>
