<svg width="70" height="70" viewBox="0 0 70 70" fill="none" xmlns="http://www.w3.org/2000/svg">
<rect width="70" height="70" rx="35" fill="#EBE5F7"/>
<g clip-path="url(#clip0_5_6604)">
<path d="M46.1094 24.1719C46.7031 24.2969 47 24.6562 47 25.25C47 31.25 44.875 36.375 40.625 40.625C36.375 44.875 31.25 47 25.25 47C24.6562 47 24.2969 46.7031 24.1719 46.1094L23.0469 41.2344C22.8906 40.6406 23.1094 40.2188 23.7031 39.9688L28.9531 37.7188C29.4531 37.5 29.8906 37.6094 30.2656 38.0469L32.5625 40.8594C34.4062 40.0156 36.0391 38.875 37.4609 37.4375C38.8828 36 40.0156 34.375 40.8594 32.5625L38.0469 30.2188C37.6094 29.875 37.5 29.4375 37.7188 28.9062L39.9688 23.6562C40.2188 23.0938 40.6406 22.8906 41.2344 23.0469L46.1094 24.1719Z" fill="#7C58D3"/>
</g>
<defs>
<clipPath id="clip0_5_6604">
<rect width="24" height="24" fill="white" transform="matrix(1 0 0 -1 23 47)"/>
</clipPath>
</defs>
</svg>
