<svg width="17" height="17" viewBox="0 0 17 17" fill="none" xmlns="http://www.w3.org/2000/svg">
<g clip-path="url(#clip0_5_16002)">
<path d="M15.516 1.28125C15.9118 1.36458 16.1097 1.60417 16.1097 2C16.1097 6 14.693 9.41667 11.8597 12.25C9.02637 15.0833 5.6097 16.5 1.6097 16.5C1.21387 16.5 0.974284 16.3021 0.890951 15.9062L0.140951 12.6562C0.0367839 12.2604 0.182617 11.9792 0.578451 11.8125L4.07845 10.3125C4.41178 10.1667 4.70345 10.2396 4.95345 10.5312L6.4847 12.4062C7.71387 11.8438 8.80241 11.0833 9.75033 10.125C10.6982 9.16667 11.4535 8.08333 12.016 6.875L10.141 5.3125C9.84928 5.08333 9.77637 4.79167 9.9222 4.4375L11.4222 0.9375C11.5889 0.5625 11.8701 0.427084 12.266 0.53125L15.516 1.28125Z" fill="white"/>
</g>
<defs>
<clipPath id="clip0_5_16002">
<rect width="16" height="16" fill="white" transform="matrix(1 0 0 -1 0.109863 16.5)"/>
</clipPath>
</defs>
</svg>
