<svg width="17" height="17" viewBox="0 0 17 17" fill="none" xmlns="http://www.w3.org/2000/svg">
<g clip-path="url(#clip0_67_2412)">
<path d="M15.5163 1.28125C15.9121 1.36458 16.11 1.60417 16.11 2C16.11 6 14.6933 9.41667 11.86 12.25C9.02667 15.0833 5.61001 16.5 1.61001 16.5C1.21417 16.5 0.974589 16.3021 0.891256 15.9062L0.141256 12.6562C0.037089 12.2604 0.182922 11.9792 0.578756 11.8125L4.07876 10.3125C4.41209 10.1667 4.70376 10.2396 4.95376 10.5312L6.48501 12.4062C7.71417 11.8438 8.80271 11.0833 9.75063 10.125C10.6985 9.16667 11.4538 8.08333 12.0163 6.875L10.1413 5.3125C9.84959 5.08333 9.77667 4.79167 9.92251 4.4375L11.4225 0.9375C11.5892 0.5625 11.8704 0.427084 12.2663 0.53125L15.5163 1.28125Z" fill="#5E17EB"/>
</g>
<defs>
<clipPath id="clip0_67_2412">
<rect width="16" height="16" fill="white" transform="matrix(1 0 0 -1 0.109985 16.5)"/>
</clipPath>
</defs>
</svg>
