<svg width="60" height="39" viewBox="0 0 60 39" fill="none" xmlns="http://www.w3.org/2000/svg">
<g clip-path="url(#clip0_5_12120)">
<path fill-rule="evenodd" clip-rule="evenodd" d="M30 7.97401V6.62001H20.11L17.308 3.81701C16.3751 2.87905 15.2655 2.1353 14.0434 1.62878C12.8213 1.12226 11.511 0.863009 10.188 0.866015C8.86372 0.861908 7.55173 1.12052 6.32803 1.62689C5.10434 2.13326 3.99323 2.87733 3.05904 3.81602L2.95104 3.92602C2.01241 4.85989 1.2683 5.97063 0.761766 7.19397C0.255231 8.41731 -0.00367187 9.72896 3.98012e-05 11.053C-0.00360413 12.3771 0.255228 13.6888 0.761575 14.9123C1.26792 16.1358 2.01174 17.2467 2.95004 18.181L4.48004 19.703L2.95004 21.234C2.01168 22.168 1.26781 23.2788 0.761459 24.5022C0.255103 25.7255 -0.00369249 27.037 3.98012e-05 28.361C3.98012e-05 31.055 1.05004 33.587 2.95004 35.489L3.06004 35.59C3.99286 36.5301 5.10338 37.2753 6.32695 37.7821C7.55051 38.2889 8.86268 38.5472 10.187 38.542C11.5103 38.5466 12.8212 38.2879 14.0435 37.7811C15.2659 37.2743 16.3752 36.5295 17.307 35.59L20.11 32.794H30V31.441H19.547L16.352 34.636C15.5439 35.4478 14.5829 36.0913 13.5245 36.5293C12.4662 36.9674 11.3315 37.1912 10.186 37.188C9.03956 37.1913 7.90377 36.9675 6.84426 36.5295C5.78474 36.0915 4.82248 35.4479 4.01304 34.636L3.90504 34.527C0.50704 31.13 0.50704 25.592 3.91204 22.188L6.39704 19.703L3.91204 17.22C3.09817 16.4129 2.45283 15.4521 2.01353 14.3934C1.57422 13.3347 1.34971 12.1992 1.35304 11.053C1.35304 8.72402 2.26104 6.53201 3.91204 4.88001L4.01404 4.77901C4.82212 3.9647 5.78395 3.31905 6.84366 2.87958C7.90336 2.44011 9.03983 2.21558 10.187 2.21902C12.516 2.21902 14.708 3.12701 16.353 4.77901L19.548 7.97401H30Z" fill="#F3B62C"/>
<path fill-rule="evenodd" clip-rule="evenodd" d="M55.133 23.15C56.5142 24.5327 57.2901 26.4071 57.2901 28.3615C57.2901 30.3159 56.5142 32.1903 55.133 33.573L55.023 33.681C54.3388 34.3648 53.5264 34.9069 52.6324 35.2764C51.7384 35.6458 50.7803 35.8353 49.813 35.834C48.8453 35.8355 47.8869 35.6461 46.9925 35.2767C46.0982 34.9073 45.2855 34.365 44.601 33.681L41.007 30.087H30V9.327H41.007L44.6 5.733C45.284 5.04816 46.0963 4.50489 46.9905 4.13426C47.8846 3.76362 48.8431 3.5729 49.811 3.573C51.7 3.573 53.582 4.298 55.023 5.733L55.133 5.841C56.5145 7.22371 57.2906 9.09837 57.2906 11.053C57.2906 13.0076 56.5145 14.8823 55.133 16.265L51.686 19.703L55.133 23.15Z" fill="#F8D82B"/>
<path fill-rule="evenodd" clip-rule="evenodd" d="M55.518 19.703L57.042 18.181C57.9829 17.2483 58.729 16.1378 59.2368 14.9141C59.7446 13.6904 60.004 12.3779 60 11.053C60.0039 9.72812 59.7442 8.41569 59.2361 7.19212C58.7279 5.96855 57.9814 4.85831 57.04 3.92602L56.94 3.81602C56.0058 2.87733 54.8947 2.13326 53.671 1.62689C52.4473 1.12052 51.1353 0.861908 49.811 0.866015C48.487 0.861951 47.1753 1.1206 45.9519 1.62697C44.7286 2.13335 43.6178 2.87739 42.684 3.81602L39.89 6.62001H30V7.97401H40.444L43.646 4.77901C44.4528 3.96491 45.4134 3.31934 46.4719 2.87985C47.5305 2.44036 48.6658 2.21573 49.812 2.21902C52.141 2.21902 54.334 3.12701 55.979 4.77901L56.088 4.87901C56.9002 5.68881 57.5442 6.65115 57.9832 7.7107C58.4222 8.77025 58.6475 9.90612 58.646 11.053C58.6481 12.199 58.4231 13.334 57.984 14.3925C57.545 15.451 56.9006 16.412 56.088 17.22L53.603 19.703L56.088 22.188C59.492 25.592 59.492 31.13 56.088 34.528L55.986 34.636C55.1759 35.4474 54.2134 36.0905 53.1538 36.5285C52.0942 36.9665 50.9585 37.1906 49.812 37.188C48.6666 37.1911 47.5319 36.9672 46.4736 36.5292C45.4152 36.0911 44.4542 35.4477 43.646 34.636L40.444 31.441H30V32.795H39.889L42.685 35.59C43.6177 36.5303 44.7282 37.2755 45.9518 37.7823C47.1754 38.2891 48.4876 38.5474 49.812 38.542C51.1365 38.5473 52.4489 38.289 53.6726 37.7822C54.8963 37.2754 56.007 36.5302 56.94 35.59L57.042 35.489C57.9831 34.5562 58.7293 33.4456 59.2371 32.2217C59.745 30.9978 60.0043 29.6851 60 28.36C60.0039 27.0351 59.7442 25.7227 59.236 24.4992C58.7278 23.2756 57.9813 22.1653 57.04 21.233L55.517 19.703H55.518Z" fill="#EC982D"/>
<path fill-rule="evenodd" clip-rule="evenodd" d="M56.0876 22.188C59.4916 25.592 59.4916 31.13 56.0876 34.528L55.9855 34.636C55.1755 35.4473 54.2129 36.0905 53.1534 36.5285C52.0938 36.9664 50.9581 37.1906 49.8116 37.188C48.6661 37.1911 47.5315 36.9672 46.4731 36.5292C45.4148 36.0911 44.4537 35.4477 43.6455 34.636L40.4436 31.441H29.9996V30.087H41.0065L44.5995 33.68C45.2839 34.3639 46.0964 34.9061 46.9906 35.2755C47.8848 35.645 48.8431 35.8344 49.8106 35.833C50.7782 35.8347 51.7367 35.6454 52.6311 35.2759C53.5255 34.9065 54.3382 34.3641 55.0225 33.68L55.1325 33.572C56.5138 32.1893 57.2896 30.3149 57.2896 28.3605C57.2896 26.4061 56.5138 24.5317 55.1325 23.149L51.6856 19.703L55.1325 16.263C56.5138 14.8803 57.2896 13.0059 57.2896 11.0515C57.2896 9.09712 56.5138 7.22267 55.1325 5.84L55.0225 5.732C54.3385 5.04695 53.526 4.50356 52.6317 4.13291C51.7373 3.76227 50.7787 3.57166 49.8106 3.572C47.9226 3.572 46.0406 4.297 44.5995 5.732L41.0056 9.326H29.9996V7.974H40.4436L43.6455 4.779C44.4523 3.96489 45.4129 3.31932 46.4715 2.87983C47.53 2.44034 48.6654 2.21571 49.8116 2.219C52.1405 2.219 54.3335 3.127 55.9785 4.779L56.0876 4.879C56.8997 5.68879 57.5438 6.65113 57.9828 7.71068C58.4218 8.77023 58.647 9.90611 58.6455 11.053C58.6476 12.1989 58.4226 13.3339 57.9836 14.3924C57.5445 15.4509 56.9001 16.412 56.0876 17.22L53.6026 19.704L56.0876 22.188ZM29.9996 9.326V30.087H18.9846L15.3996 33.68C14.0163 35.0601 12.1416 35.8345 10.1876 35.833C9.21981 35.8351 8.2612 35.6459 7.36676 35.2765C6.47233 34.907 5.6597 34.3644 4.97555 33.68L4.86755 33.572C3.48631 32.1893 2.71046 30.3149 2.71046 28.3605C2.71046 26.4061 3.48631 24.5317 4.86755 23.149L8.30555 19.702L4.86755 16.264C3.48601 14.8813 2.70996 13.0066 2.70996 11.052C2.70996 9.09737 3.48601 7.22271 4.86755 5.84L4.97555 5.732C5.65935 5.0466 6.47177 4.50297 7.36617 4.1323C8.26058 3.76163 9.21938 3.57123 10.1876 3.572C12.1424 3.5733 14.0169 4.35013 15.3996 5.732L18.9866 9.326H29.9996Z" fill="#FBE15B"/>
<path fill-rule="evenodd" clip-rule="evenodd" d="M4.86656 5.84C3.4847 7.22275 2.70847 9.09763 2.70847 11.0525C2.70847 13.0074 3.4847 14.8822 4.86656 16.265L8.30456 19.704L4.86656 23.15C3.48532 24.5327 2.70946 26.4071 2.70946 28.3615C2.70946 30.3159 3.48532 32.1903 4.86656 33.573L4.97456 33.681C5.6587 34.3654 6.47133 34.908 7.36577 35.2775C8.2602 35.6469 9.21881 35.8361 10.1866 35.834C12.141 35.8359 14.0161 35.0615 15.3996 33.681L18.9866 30.087H29.9996V31.441H19.5476L16.3526 34.636C15.5444 35.4478 14.5834 36.0913 13.525 36.5293C12.4667 36.9674 11.332 37.1912 10.1866 37.188C9.04024 37.1912 7.90464 36.9673 6.84531 36.5293C5.78597 36.0913 4.82388 35.4478 4.01455 34.636L3.90456 34.528C0.506555 31.13 0.506555 25.592 3.91156 22.188L6.39655 19.704L3.91156 17.22C3.09787 16.4128 2.45271 15.4519 2.01358 14.3932C1.57445 13.3346 1.3501 12.1991 1.35356 11.053C1.35356 8.724 2.26056 6.532 3.91156 4.88L4.01455 4.779C4.82252 3.9648 5.78418 3.31923 6.84371 2.87976C7.90323 2.44029 9.03951 2.21569 10.1866 2.219C12.5156 2.219 14.7076 3.127 16.3526 4.779L19.5476 7.974H29.9996V9.327H18.9866L15.3996 5.733C14.0167 4.3507 12.1418 3.57381 10.1866 3.573C8.29656 3.573 6.40955 4.298 4.97456 5.733L4.86656 5.84Z" fill="#F8D82B"/>
<path fill-rule="evenodd" clip-rule="evenodd" d="M39.8499 24.622L39.6299 23.867C39.7739 24.111 39.8499 24.361 39.8499 24.622Z" fill="#F3BE27"/>
<path fill-rule="evenodd" clip-rule="evenodd" d="M24.979 28.543C24.317 28.543 23.736 28.241 23.5 27.323L23.313 26.593C23.057 25.593 23.475 24.531 24.305 24.073L25.513 23.408C26.253 22.999 26.795 22.244 26.993 21.343L27.067 20.999C27.387 19.543 28.547 18.519 29.88 18.519H29.903V27.374L29.827 27.376C28.679 27.415 27.554 27.707 26.481 28.17C26.009 28.374 25.471 28.543 24.979 28.543ZM26.491 18.54C26.491 18.54 24.558 18.101 24.571 15.633C24.577 14.607 25.515 12.439 26.966 11.714C27.1636 11.6089 27.3832 11.5521 27.607 11.548C28.612 11.548 29.071 12.875 29.071 12.875C29.071 12.875 29.143 15.995 29.071 17.157C28.998 18.319 26.491 18.54 26.491 18.54ZM22.946 23.29C22.462 23.29 20.995 23.125 20.312 21.199C19.97 20.231 20.118 17.874 21.237 16.699C21.544 16.377 21.861 16.26 22.16 16.26C22.95 16.26 23.612 17.078 23.612 17.078C23.612 17.078 24.738 19.99 25.062 21.108C25.388 22.224 23.105 23.283 23.105 23.283C23.105 23.283 23.047 23.29 22.946 23.29Z" fill="#F8C630"/>
<path fill-rule="evenodd" clip-rule="evenodd" d="M34.827 28.543C34.335 28.543 33.797 28.375 33.325 28.17C32.259 27.71 31.141 27.418 30 27.377V18.52C31.302 18.557 32.426 19.57 32.74 21L32.814 21.343C33.012 22.244 33.554 22.999 34.294 23.408L35.5 24.073C36.331 24.531 36.75 25.593 36.494 26.593L36.306 27.323C36.07 28.241 35.489 28.543 34.827 28.543Z" fill="#F3BE27"/>
<path fill-rule="evenodd" clip-rule="evenodd" d="M30.0003 27.377H29.9803L29.9043 27.374V18.519H30.0003V27.377Z" fill="#F8C630"/>
<path fill-rule="evenodd" clip-rule="evenodd" d="M33.3151 18.54C33.3151 18.54 30.8081 18.319 30.7351 17.157C30.6631 15.996 30.7351 12.875 30.7351 12.875C30.7351 12.875 31.1951 11.548 32.2001 11.548C32.3931 11.548 32.6061 11.596 32.8401 11.714C34.2921 12.439 35.2301 14.607 35.2351 15.634C35.2481 18.101 33.3151 18.54 33.3151 18.54ZM36.8601 23.29C36.7601 23.29 36.7021 23.284 36.7021 23.284C36.7021 23.284 34.4181 22.224 34.7441 21.107C35.0691 19.99 36.1951 17.078 36.1951 17.078C36.1951 17.078 36.8551 16.26 37.6451 16.26C37.9451 16.26 38.2621 16.377 38.5691 16.7C39.6891 17.874 39.8371 20.231 39.4941 21.199C38.8111 23.125 37.3441 23.291 36.8611 23.291L36.8601 23.29Z" fill="#F3BE27"/>
</g>
<defs>
<clipPath id="clip0_5_12120">
<rect width="60" height="39" fill="white"/>
</clipPath>
</defs>
</svg>
