<svg width="17" height="17" viewBox="0 0 17 17" fill="none" xmlns="http://www.w3.org/2000/svg">
<g clip-path="url(#clip0_5_16009)">
<path d="M16.2373 6.46875C16.2998 6.40625 16.3675 6.39583 16.4404 6.4375C16.5133 6.47917 16.5498 6.54167 16.5498 6.625V13C16.5498 13.4167 16.404 13.7708 16.1123 14.0625C15.8206 14.3542 15.4665 14.5 15.0498 14.5H2.0498C1.63314 14.5 1.27897 14.3542 0.987305 14.0625C0.695638 13.7708 0.549805 13.4167 0.549805 13V6.625C0.549805 6.54167 0.586263 6.48438 0.65918 6.45312C0.732096 6.42188 0.799805 6.42708 0.862305 6.46875C1.5498 6.98958 3.15397 8.16667 5.6748 10C5.71647 10.0417 5.8571 10.1562 6.09668 10.3438C6.33626 10.5312 6.52897 10.6719 6.6748 10.7656C6.82064 10.8594 7.00814 10.974 7.2373 11.1094C7.46647 11.2448 7.69043 11.3438 7.90918 11.4062C8.12793 11.4688 8.34147 11.5 8.5498 11.5C8.7373 11.5 8.9248 11.474 9.1123 11.4219C9.2998 11.3698 9.47689 11.3073 9.64355 11.2344C9.81022 11.1615 9.9873 11.0625 10.1748 10.9375C10.3623 10.8125 10.5186 10.7031 10.6436 10.6094C10.7686 10.5156 10.9144 10.4062 11.0811 10.2812C11.2477 10.1562 11.3623 10.0625 11.4248 10C13.8831 8.22917 15.4873 7.05208 16.2373 6.46875ZM8.5498 10.5C8.38314 10.5 8.18001 10.4427 7.94043 10.3281C7.70085 10.2135 7.50814 10.1094 7.3623 10.0156C7.21647 9.92188 7.00293 9.76562 6.72168 9.54688C6.44043 9.32812 6.28939 9.21875 6.26855 9.21875C3.72689 7.36458 1.91439 6.02083 0.831055 5.1875C0.643555 5.04167 0.549805 4.84375 0.549805 4.59375V4C0.549805 3.58333 0.695638 3.22917 0.987305 2.9375C1.27897 2.64583 1.63314 2.5 2.0498 2.5H15.0498C15.4665 2.5 15.8206 2.64583 16.1123 2.9375C16.404 3.22917 16.5498 3.58333 16.5498 4V4.59375C16.5498 4.84375 16.4561 5.04167 16.2686 5.1875C15.2477 5.97917 13.4352 7.32292 10.8311 9.21875C10.8102 9.21875 10.6592 9.32812 10.3779 9.54688C10.0967 9.76562 9.88314 9.92188 9.7373 10.0156C9.59147 10.1094 9.39876 10.2135 9.15918 10.3281C8.9196 10.4427 8.71647 10.5 8.5498 10.5Z" fill="white"/>
</g>
<defs>
<clipPath id="clip0_5_16009">
<rect width="16" height="16" fill="white" transform="matrix(1 0 0 -1 0.549805 16.5)"/>
</clipPath>
</defs>
</svg>
