<svg width="70" height="70" viewBox="0 0 70 70" fill="none" xmlns="http://www.w3.org/2000/svg">
<rect width="70" height="70" rx="35" fill="#EBE5F7"/>
<path d="M46.5312 31.9531C46.625 31.8594 46.7266 31.8438 46.8359 31.9062C46.9453 31.9688 47 32.0625 47 32.1875V41.75C47 42.375 46.7812 42.9062 46.3438 43.3438C45.9062 43.7812 45.375 44 44.75 44H25.25C24.625 44 24.0938 43.7812 23.6562 43.3438C23.2188 42.9062 23 42.375 23 41.75V32.1875C23 32.0625 23.0547 31.9766 23.1641 31.9297C23.2734 31.8828 23.375 31.8906 23.4688 31.9531C24.5 32.7344 26.9062 34.5 30.6875 37.25C30.75 37.3125 30.9609 37.4844 31.3203 37.7656C31.6797 38.0469 31.9688 38.2578 32.1875 38.3984C32.4062 38.5391 32.6875 38.7109 33.0312 38.9141C33.375 39.1172 33.7109 39.2656 34.0391 39.3594C34.3672 39.4531 34.6875 39.5 35 39.5C35.2812 39.5 35.5625 39.4609 35.8438 39.3828C36.125 39.3047 36.3906 39.2109 36.6406 39.1016C36.8906 38.9922 37.1562 38.8438 37.4375 38.6562C37.7188 38.4688 37.9531 38.3047 38.1406 38.1641C38.3281 38.0234 38.5469 37.8594 38.7969 37.6719C39.0469 37.4844 39.2188 37.3438 39.3125 37.25C43 34.5938 45.4062 32.8281 46.5312 31.9531ZM35 38C34.75 38 34.4453 37.9141 34.0859 37.7422C33.7266 37.5703 33.4375 37.4141 33.2188 37.2734C33 37.1328 32.6797 36.8984 32.2578 36.5703C31.8359 36.2422 31.6094 36.0781 31.5781 36.0781C27.7656 33.2969 25.0469 31.2812 23.4219 30.0312C23.1406 29.8125 23 29.5156 23 29.1406V28.25C23 27.625 23.2188 27.0938 23.6562 26.6562C24.0938 26.2188 24.625 26 25.25 26H44.75C45.375 26 45.9062 26.2188 46.3438 26.6562C46.7812 27.0938 47 27.625 47 28.25V29.1406C47 29.5156 46.8594 29.8125 46.5781 30.0312C45.0469 31.2188 42.3281 33.2344 38.4219 36.0781C38.3906 36.0781 38.1641 36.2422 37.7422 36.5703C37.3203 36.8984 37 37.1328 36.7812 37.2734C36.5625 37.4141 36.2734 37.5703 35.9141 37.7422C35.5547 37.9141 35.25 38 35 38Z" fill="#7C58D3"/>
</svg>
