<svg width="17" height="17" viewBox="0 0 17 17" fill="none" xmlns="http://www.w3.org/2000/svg">
<g clip-path="url(#clip0_67_2418)">
<path d="M16.2375 6.46875C16.3 6.40625 16.3677 6.39583 16.4406 6.4375C16.5135 6.47917 16.55 6.54167 16.55 6.625V13C16.55 13.4167 16.4042 13.7708 16.1125 14.0625C15.8208 14.3542 15.4667 14.5 15.05 14.5H2.04999C1.63332 14.5 1.27915 14.3542 0.987488 14.0625C0.695821 13.7708 0.549988 13.4167 0.549988 13V6.625C0.549988 6.54167 0.586446 6.48438 0.659363 6.45312C0.732279 6.42188 0.799988 6.42708 0.862488 6.46875C1.54999 6.98958 3.15415 8.16667 5.67499 10C5.71665 10.0417 5.85728 10.1562 6.09686 10.3438C6.33645 10.5312 6.52915 10.6719 6.67499 10.7656C6.82082 10.8594 7.00832 10.974 7.23749 11.1094C7.46665 11.2448 7.69061 11.3438 7.90936 11.4062C8.12811 11.4688 8.34165 11.5 8.54999 11.5C8.73749 11.5 8.92499 11.474 9.11249 11.4219C9.29999 11.3698 9.47707 11.3073 9.64374 11.2344C9.8104 11.1615 9.98749 11.0625 10.175 10.9375C10.3625 10.8125 10.5187 10.7031 10.6437 10.6094C10.7687 10.5156 10.9146 10.4062 11.0812 10.2812C11.2479 10.1562 11.3625 10.0625 11.425 10C13.8833 8.22917 15.4875 7.05208 16.2375 6.46875ZM8.54999 10.5C8.38332 10.5 8.1802 10.4427 7.94061 10.3281C7.70103 10.2135 7.50832 10.1094 7.36249 10.0156C7.21665 9.92188 7.00311 9.76562 6.72186 9.54688C6.44061 9.32812 6.28957 9.21875 6.26874 9.21875C3.72707 7.36458 1.91457 6.02083 0.831238 5.1875C0.643738 5.04167 0.549988 4.84375 0.549988 4.59375V4C0.549988 3.58333 0.695821 3.22917 0.987488 2.9375C1.27915 2.64583 1.63332 2.5 2.04999 2.5H15.05C15.4667 2.5 15.8208 2.64583 16.1125 2.9375C16.4042 3.22917 16.55 3.58333 16.55 4V4.59375C16.55 4.84375 16.4562 5.04167 16.2687 5.1875C15.2479 5.97917 13.4354 7.32292 10.8312 9.21875C10.8104 9.21875 10.6594 9.32812 10.3781 9.54688C10.0969 9.76562 9.88332 9.92188 9.73749 10.0156C9.59165 10.1094 9.39895 10.2135 9.15936 10.3281C8.91978 10.4427 8.71665 10.5 8.54999 10.5Z" fill="#5E17EB"/>
</g>
<defs>
<clipPath id="clip0_67_2418">
<rect width="16" height="16" fill="white" transform="matrix(1 0 0 -1 0.549988 16.5)"/>
</clipPath>
</defs>
</svg>
