<svg width="12" height="14" viewBox="0 0 12 14" fill="none" xmlns="http://www.w3.org/2000/svg">
<g clip-path="url(#clip0_5_6413)">
<path d="M4.0801 6.99094C4.0801 6.99094 4.25763 6.86166 4.61268 6.60309C4.96773 6.34452 5.43856 6.21523 6.02517 6.21523C6.61178 6.21523 7.26014 6.4738 7.97024 6.99094C8.68035 7.50809 9.27467 8.13329 9.75322 8.86655C10.2318 9.59981 10.471 10.2597 10.471 10.8464C10.471 11.2477 10.3244 11.5642 10.0311 11.7957C9.73779 12.0273 9.3287 12.1431 8.80384 12.1431C8.41792 12.1431 7.93165 12.0466 7.34504 11.8536C6.75843 11.6607 6.31848 11.5642 6.02517 11.5642C5.7473 11.5642 5.31121 11.6607 4.71688 11.8536C4.12255 12.0466 3.63243 12.1431 3.2465 12.1431C2.72164 12.1431 2.31256 12.0273 2.01925 11.7957C1.72595 11.5642 1.5793 11.2477 1.5793 10.8464C1.5793 10.2597 1.81857 9.59981 2.29712 8.86655C2.77567 8.13329 3.37 7.50809 4.0801 6.99094ZM1.94979 4.97641C1.94979 4.97641 2.03083 5.03237 2.19292 5.14428C2.35501 5.2562 2.4978 5.51284 2.6213 5.91421C2.74479 6.31557 2.72936 6.68992 2.57499 7.03726C2.42062 7.38459 2.17362 7.59685 1.83401 7.67403C1.61789 7.72035 1.39405 7.70105 1.16249 7.61615C0.930939 7.53124 0.726398 7.39231 0.548871 7.19934C0.371345 7.00638 0.243989 6.77868 0.166804 6.51625C0.0433071 6.11489 0.0587442 5.74054 0.213115 5.39321C0.367486 5.04587 0.614479 4.83361 0.954094 4.75643C1.29371 4.67924 1.62561 4.75257 1.94979 4.97641ZM5.35366 4.67538C5.35366 4.67538 5.31507 4.78151 5.23788 4.99377C5.1607 5.20603 4.94072 5.35847 4.57795 5.4511C4.21518 5.54372 3.86012 5.44338 3.51279 5.15007C3.16545 4.85677 2.92232 4.45926 2.78339 3.95756C2.64445 3.45586 2.65217 2.99274 2.80654 2.56822C2.96091 2.1437 3.22334 1.88513 3.59383 1.79251C3.82539 1.73076 4.0608 1.75778 4.30008 1.87356C4.53935 1.98933 4.75547 2.17072 4.94844 2.41771C5.1414 2.66471 5.28419 2.95029 5.37681 3.27447C5.51575 3.78389 5.50803 4.25086 5.35366 4.67538ZM11.0962 4.75643C11.4359 4.83361 11.6829 5.04587 11.8372 5.39321C11.9916 5.74054 12.007 6.11489 11.8835 6.51625C11.76 6.91762 11.5362 7.23022 11.212 7.45406C10.8878 7.67789 10.556 7.75122 10.2163 7.67403C9.87672 7.59685 9.62973 7.38459 9.47536 7.03726C9.32099 6.68992 9.30555 6.31557 9.42905 5.91421C9.50623 5.65178 9.63359 5.42408 9.81111 5.23112C9.98864 5.03815 10.1932 4.89922 10.4247 4.81432C10.6563 4.72941 10.8801 4.71012 11.0962 4.75643ZM7.48397 5.4511C7.11348 5.35847 6.85105 5.0999 6.69668 4.67538C6.54231 4.25086 6.5346 3.78775 6.67353 3.28605C6.81246 2.78434 7.0556 2.38684 7.40293 2.09353C7.75026 1.80023 8.10532 1.69989 8.46809 1.79251C8.83086 1.88513 9.08943 2.1437 9.2438 2.56822C9.39817 2.99274 9.40589 3.45971 9.26696 3.96914C9.20521 4.21613 9.10873 4.44383 8.97751 4.65223C8.8463 4.86063 8.69964 5.03044 8.53755 5.16165C8.37547 5.29287 8.2018 5.38549 8.01655 5.43952C7.83131 5.49355 7.65378 5.49741 7.48397 5.4511Z" fill="#FFDA47"/>
</g>
<defs>
<clipPath id="clip0_5_6413">
<rect width="11.8557" height="12.4485" fill="white" transform="matrix(1 0 0 -1 0.0981445 13.1805)"/>
</clipPath>
</defs>
</svg>
