<svg width="35" height="34" viewBox="0 0 35 34" fill="none" xmlns="http://www.w3.org/2000/svg">
<g clip-path="url(#clip0_5_16074)">
<path fill-rule="evenodd" clip-rule="evenodd" d="M5.89231 8.79241C7.1675 7.5176 8.8968 6.80146 10.6999 6.80146C12.503 6.80146 14.2323 7.5176 15.5075 8.79241L17.4999 10.7831L19.4923 8.79241C20.1196 8.14294 20.8699 7.6249 21.6996 7.26852C22.5292 6.91213 23.4215 6.72455 24.3244 6.7167C25.2273 6.70886 26.1227 6.88091 26.9584 7.22282C27.7941 7.56473 28.5533 8.06965 29.1918 8.70812C29.8303 9.34659 30.3352 10.1058 30.6771 10.9415C31.019 11.7772 31.1911 12.6726 31.1832 13.5755C31.1754 14.4784 30.9878 15.3707 30.6314 16.2004C30.275 17.03 29.757 17.7803 29.1075 18.4076L17.4999 30.0169L5.89231 18.4076C4.61751 17.1324 3.90137 15.4031 3.90137 13.6C3.90137 11.7969 4.61751 10.0676 5.89231 8.79241V8.79241Z" stroke="black" stroke-width="3" stroke-linejoin="round"/>
</g>
<defs>
<clipPath id="clip0_5_16074">
<rect width="34" height="34" fill="white" transform="translate(0.5)"/>
</clipPath>
</defs>
</svg>
