<svg width="39" height="44" viewBox="0 0 39 44" fill="none" xmlns="http://www.w3.org/2000/svg">
<g clip-path="url(#clip0_5_12164)">
<g clip-path="url(#clip1_5_12164)">
<path fill-rule="evenodd" clip-rule="evenodd" d="M30.762 16.554V39.382H26.74V26.74C26.74 24.8579 25.9924 23.0529 24.6617 21.722C23.331 20.3911 21.5261 19.6433 19.644 19.643H19.417V5.21301L30.763 16.553L30.762 16.554Z" fill="#A84A37"/>
<path fill-rule="evenodd" clip-rule="evenodd" d="M19.4156 5.21303V19.643C17.5476 19.6649 15.7635 20.4222 14.4501 21.7507C13.1367 23.0792 12.4 24.8719 12.3996 26.74V39.382H8.05957V16.56L19.4096 5.20703L19.4156 5.21303Z" fill="#AD513B"/>
<path fill-rule="evenodd" clip-rule="evenodd" d="M8.05924 16.5601V44.0001H4.57324V20.0451L8.06024 16.5601H8.05924Z" fill="#BE6A4B"/>
<path fill-rule="evenodd" clip-rule="evenodd" d="M19.416 0.289954V5.20195L2.468 22.15L0 19.684L19.405 0.277954L19.411 0.282954L19.416 0.287954V0.289954Z" fill="#CA7055"/>
<path fill-rule="evenodd" clip-rule="evenodd" d="M38.827 19.6831L36.359 22.1501L19.416 5.21305V0.279053L38.827 19.6831Z" fill="#BE6A4B"/>
<path fill-rule="evenodd" clip-rule="evenodd" d="M34.2537 20.045V44H30.7627V16.553L34.2537 20.045Z" fill="#B2573F"/>
<path fill-rule="evenodd" clip-rule="evenodd" d="M19.4161 0.279053V0.289053L19.4111 0.284053L19.4161 0.279053Z" fill="#D4C0D4"/>
<path fill-rule="evenodd" clip-rule="evenodd" d="M19.4111 5.20703L19.4161 5.20203V5.21303L19.4111 5.20703Z" fill="#DFA278"/>
<path fill-rule="evenodd" clip-rule="evenodd" d="M8.05859 41.93H19.4156V39.382H8.05959V41.929L8.05859 41.93Z" fill="#CA7055"/>
<path fill-rule="evenodd" clip-rule="evenodd" d="M26.74 26.7399V39.3819H19.416V19.6429H19.643C21.5249 19.6432 23.3297 20.3909 24.6604 21.7216C25.9911 23.0523 26.7388 24.857 26.739 26.7389L26.74 26.7399Z" fill="#49231D"/>
<path fill-rule="evenodd" clip-rule="evenodd" d="M19.4164 19.6429V39.3819H12.4004V26.7399C12.4008 24.8716 13.1377 23.0788 14.4513 21.7503C15.7648 20.4217 17.5482 19.6645 19.4164 19.6429Z" fill="#3E201A"/>
<path fill-rule="evenodd" clip-rule="evenodd" d="M19.416 41.93H30.762V39.382H19.416V41.93Z" fill="#BE6A4B"/>
</g>
</g>
<defs>
<clipPath id="clip0_5_12164">
<rect width="39" height="44" fill="white"/>
</clipPath>
<clipPath id="clip1_5_12164">
<rect width="39" height="44" fill="white"/>
</clipPath>
</defs>
</svg>
