<svg width="32" height="51" viewBox="0 0 32 51" fill="none" xmlns="http://www.w3.org/2000/svg">
<path d="M16.1442 15.3883C20.4035 15.3883 23.9192 18.904 23.9192 23.1633C23.9192 27.4902 20.4035 30.9382 16.1442 30.9382C11.8173 30.9382 8.36929 27.4902 8.36929 23.1633C8.36929 18.904 11.8173 15.3883 16.1442 15.3883ZM16.1442 28.2339C18.9162 28.2339 21.1472 26.0028 21.1472 23.1633C21.1472 20.3913 18.9162 18.1603 16.1442 18.1603C13.3047 18.1603 11.0736 20.3913 11.0736 23.1633C11.0736 26.0028 13.3723 28.2339 16.1442 28.2339ZM26.015 15.1179C26.015 16.132 25.2037 16.9433 24.1896 16.9433C23.1755 16.9433 22.3642 16.132 22.3642 15.1179C22.3642 14.1038 23.1755 13.2925 24.1896 13.2925C25.2037 13.2925 26.015 14.1038 26.015 15.1179ZM31.1532 16.9433C31.2885 19.4448 31.2885 26.9493 31.1532 29.4508C31.018 31.8847 30.4772 33.9806 28.7193 35.806C26.9615 37.5638 24.7981 38.1047 22.3642 38.2399C19.8627 38.3751 12.3582 38.3751 9.85667 38.2399C7.42278 38.1047 5.32692 37.5638 3.5015 35.806C1.74369 33.9806 1.20282 31.8847 1.06761 29.4508C0.932392 26.9493 0.932392 19.4448 1.06761 16.9433C1.20282 14.5094 1.74369 12.346 3.5015 10.5882C5.32692 8.83034 7.42278 8.28948 9.85667 8.15426C12.3582 8.01904 19.8627 8.01904 22.3642 8.15426C24.7981 8.28948 26.9615 8.83034 28.7193 10.5882C30.4772 12.346 31.018 14.5094 31.1532 16.9433ZM27.9081 32.0876C28.7193 30.1269 28.5165 25.3943 28.5165 23.1633C28.5165 20.9998 28.7193 16.2672 27.9081 14.239C27.3672 12.9544 26.3531 11.8727 25.0685 11.3995C23.0403 10.5882 18.3077 10.791 16.1442 10.791C13.9132 10.791 9.18059 10.5882 7.21995 11.3995C5.86779 11.9403 4.85367 12.9544 4.3128 14.239C3.5015 16.2672 3.70433 20.9998 3.70433 23.1633C3.70433 25.3943 3.5015 30.1269 4.3128 32.0876C4.85367 33.4397 5.86779 34.4538 7.21995 34.9947C9.18059 35.806 13.9132 35.6032 16.1442 35.6032C18.3077 35.6032 23.0403 35.806 25.0685 34.9947C26.3531 34.4538 27.4348 33.4397 27.9081 32.0876Z" fill="#1C103B"/>
</svg>
