<svg width="15" height="14" viewBox="0 0 15 14" fill="none" xmlns="http://www.w3.org/2000/svg">
<path d="M6.81787 1.82928L7.4249 1.22225C7.68193 0.965222 8.09756 0.965222 8.35186 1.22225L13.6675 6.53514C13.9245 6.79218 13.9245 7.2078 13.6675 7.4621L8.35186 12.7777C8.09482 13.0348 7.6792 13.0348 7.4249 12.7777L6.81787 12.1707C6.55811 11.9109 6.56357 11.4871 6.82881 11.2328L10.1237 8.09374H2.26514C1.90146 8.09374 1.60889 7.80116 1.60889 7.43749V6.56249C1.60889 6.19882 1.90146 5.90624 2.26514 5.90624H10.1237L6.82881 2.76718C6.56084 2.51288 6.55537 2.08905 6.81787 1.82928Z" fill="#5E17EB"/>
</svg>
