<svg width="70" height="70" viewBox="0 0 70 70" fill="none" xmlns="http://www.w3.org/2000/svg">
<rect width="70" height="70" rx="35" fill="#EBE5F7"/>
<g clip-path="url(#clip0_5_6634)">
<path d="M34.0625 46.5312C33.3125 45.4375 32.4609 44.2031 31.5078 42.8281C30.5547 41.4531 29.875 40.4844 29.4688 39.9219C29.0625 39.3594 28.5938 38.6641 28.0625 37.8359C27.5312 37.0078 27.1797 36.4219 27.0078 36.0781C26.8359 35.7344 26.6484 35.2969 26.4453 34.7656C26.2422 34.2344 26.1172 33.7734 26.0703 33.3828C26.0234 32.9922 26 32.5312 26 32C26 29.5 26.875 27.375 28.625 25.625C30.375 23.875 32.5 23 35 23C37.5 23 39.625 23.875 41.375 25.625C43.125 27.375 44 29.5 44 32C44 32.5312 43.9766 32.9922 43.9297 33.3828C43.8828 33.7734 43.7578 34.2344 43.5547 34.7656C43.3516 35.2969 43.1641 35.7344 42.9922 36.0781C42.8203 36.4219 42.4688 37.0078 41.9375 37.8359C41.4062 38.6641 40.9375 39.3594 40.5312 39.9219C40.125 40.4844 39.4453 41.4531 38.4922 42.8281C37.5391 44.2031 36.6875 45.4375 35.9375 46.5312C35.7188 46.8438 35.4062 47 35 47C34.5938 47 34.2812 46.8438 34.0625 46.5312ZM32.3516 34.6484C32.3516 34.6484 32.5352 34.832 32.9023 35.1992C33.2695 35.5664 33.9688 35.75 35 35.75C36.0312 35.75 36.9141 35.3828 37.6484 34.6484C38.3828 33.9141 38.75 33.0312 38.75 32C38.75 30.9688 38.3828 30.0859 37.6484 29.3516C36.9141 28.6172 36.0312 28.25 35 28.25C33.9688 28.25 33.0859 28.6172 32.3516 29.3516C31.6172 30.0859 31.25 30.9688 31.25 32C31.25 33.0312 31.6172 33.9141 32.3516 34.6484Z" fill="#7C58D3"/>
</g>
<defs>
<clipPath id="clip0_5_6634">
<rect width="18" height="24" fill="white" transform="matrix(1 0 0 -1 26 47)"/>
</clipPath>
</defs>
</svg>
