<svg width="64" height="65" viewBox="0 0 64 65" fill="none" xmlns="http://www.w3.org/2000/svg">
<path d="M28 40.0498C28 41.1544 27.1046 42.0498 26 42.0498C24.8954 42.0498 24 41.1544 24 40.0498C24 38.9452 24.8954 38.0498 26 38.0498C27.1046 38.0498 28 38.9452 28 40.0498Z" fill="black"/>
<path d="M40 40.0498C40 41.1544 39.1046 42.0498 38 42.0498C36.8954 42.0498 36 41.1544 36 40.0498C36 38.9452 36.8954 38.0498 38 38.0498C39.1046 38.0498 40 38.9452 40 40.0498Z" fill="black"/>
<path d="M29.2437 45.0498C28.0045 45.0498 27 46.0543 27 47.2935C27 47.9044 27.2491 48.489 27.6899 48.9121L28.1419 49.3461C28.9602 50.1316 29.9584 50.619 31 50.8082V53.0498C31 53.6021 31.4477 54.0498 32 54.0498C32.5523 54.0498 33 53.6021 33 53.0498V50.8082C34.0416 50.619 35.0398 50.1316 35.8581 49.3461L36.3101 48.9121C36.7509 48.489 37 47.9044 37 47.2935C37 46.0543 35.9955 45.0498 34.7563 45.0498H29.2437Z" fill="black"/>
<path fill-rule="evenodd" clip-rule="evenodd" d="M32.7692 4.41657C32.5864 4.19148 32.3153 4.05772 32.0266 4.05014C31.738 4.04257 31.4603 4.16194 31.2661 4.37713L26.845 9.27518L23.332 7.18845C22.8709 6.91457 22.2773 7.05812 21.9899 7.51297L19.7752 11.0185H13.1359C12.6268 11.0185 12.2002 11.4064 12.1482 11.9165L11.5255 18.0304L6.65853 20.4771C6.27186 20.6715 6.05444 21.0954 6.12086 21.5255L7.00323 27.2389L4.35051 31.5204C4.13365 31.8704 4.15247 32.3186 4.39787 32.6489L4.40061 32.6526L4.41482 32.6721C4.428 32.6904 4.4484 32.7188 4.47493 32.7565C4.52805 32.8321 4.60546 32.9446 4.69862 33.0869C4.88569 33.3726 5.13249 33.7727 5.3728 34.2309C5.88193 35.2018 6.25027 36.2281 6.18916 36.9668C6.17914 37.0879 6.11027 37.3509 5.93978 37.7925C5.77885 38.2093 5.56574 38.6914 5.3298 39.2244L5.31402 39.26C4.93919 40.1068 4.50718 41.0827 4.24939 41.9422C4.11872 42.3779 4.01459 42.8407 4.00141 43.2781C3.98862 43.7023 4.05744 44.2547 4.44072 44.7026C4.61203 44.9028 4.85506 45.0266 5.1167 45.0469L10.2666 45.4458L8.72773 49.7081C8.61304 50.0257 8.66544 50.3802 8.867 50.6504C9.06857 50.9207 9.39204 51.0701 9.72688 51.0476L15.7779 50.6413C17.3327 56.1037 22.3242 60.0498 28.1852 60.0498H35.8163C41.5566 60.0498 46.4628 56.2645 48.1232 50.977L53.0558 52.5056C53.3709 52.6032 53.7136 52.537 53.9704 52.3288C54.2272 52.1206 54.3647 51.7976 54.3373 51.4668L53.913 46.3395L59.0209 45.2142C59.2303 45.1681 59.4192 45.0549 59.5595 44.8917C59.9639 44.4209 60.0161 43.8257 59.9965 43.3929C59.9757 42.9326 59.8632 42.4357 59.7224 41.961C59.4435 41.0201 58.9863 39.9516 58.6007 39.0506L58.5872 39.019C58.3651 38.5002 58.1685 38.0403 58.0229 37.6562C57.9506 37.4652 57.8963 37.3072 57.8597 37.1809C57.8416 37.1184 57.8296 37.0696 57.8221 37.033C57.815 36.9989 57.8136 36.9837 57.8136 36.9837C57.7646 36.2318 58.1396 35.1969 58.6441 34.2268C58.8828 33.7677 59.1268 33.3671 59.3115 33.0812C59.4034 32.9388 59.4798 32.8262 59.5322 32.7506L59.5634 32.7058L59.5914 32.6661L59.6055 32.6465L59.608 32.643C59.8491 32.3131 59.8664 31.8679 59.651 31.5204L56.9983 27.2389L57.8807 21.5255C57.9471 21.0954 57.7297 20.6715 57.343 20.4771L52.4758 18.0303L51.8533 11.9473C51.8013 11.439 51.3772 11.052 50.8699 11.0498L44.2279 11.0209L42.0116 7.51297C41.734 7.07356 41.168 6.92232 40.7107 7.16534L36.7233 9.28394L32.7692 4.41657ZM22.4236 33.5145C25.0122 31.3548 28.344 30.0498 32 30.0498C35.656 30.0498 38.9878 31.3548 41.5764 33.5145L42.6902 34.4438L43.1626 33.0723C43.5684 31.8941 44.6869 31.0498 46 31.0498C47.6569 31.0498 49 32.393 49 34.0498C49 35.6148 47.8009 36.9009 46.2719 37.0377L44.8263 37.167L45.4621 38.4718C46.5556 40.7157 47.1028 43.2682 46.9337 45.9534L46.8212 47.741C46.4563 53.5363 41.6496 58.0498 35.8429 58.0498H28.1571C22.3504 58.0498 17.5437 53.5363 17.1788 47.741L17.0663 45.9534C16.8972 43.2682 17.4444 40.7157 18.5379 38.4718L19.1737 37.167L17.7281 37.0377C16.1991 36.9009 15 35.6148 15 34.0498C15 32.393 16.3431 31.0498 18 31.0498C19.3131 31.0498 20.4316 31.8941 20.8374 33.0723L21.3098 34.4438L22.4236 33.5145Z" fill="black"/>
</svg>
