<svg width="60" height="60" viewBox="0 0 60 60" fill="none" xmlns="http://www.w3.org/2000/svg">
<g clip-path="url(#clip0_5_6428)">
<path fill-rule="evenodd" clip-rule="evenodd" d="M29.9643 13.0235C29.2826 13.0235 28.6727 12.6648 28.3856 12.0548C28.2422 11.732 28.1346 11.3732 28.1346 10.9785V7.31902C28.1346 5.66866 28.1346 3.98241 28.0987 2.33204C28.0987 1.07633 28.5651 0.394653 29.6055 0H30.359C31.3993 0.394653 31.8658 1.07633 31.8299 2.36791C31.794 4.19767 31.794 6.0633 31.794 7.89305V11.1938C31.794 12.0907 31.2559 12.7724 30.359 12.9877C30.309 12.9877 30.2513 12.9954 30.1894 13.0037C30.1181 13.0132 30.0413 13.0235 29.9643 13.0235ZM29.8926 58.7675C25.4078 58.7675 20.9232 57.6194 16.5461 55.3233C9.90875 51.879 4.67062 46.6409 0.975242 39.8241C0.544711 39.0348 0.544711 38.3173 0.975242 37.5279C5.53169 29.312 11.9896 23.5358 20.2056 20.4502C23.4705 19.2304 26.7711 18.5846 30.036 18.5846C34.5566 18.5846 39.113 19.7686 43.5977 22.1365C50.1274 25.5807 55.2938 30.7471 58.9533 37.492C59.0167 37.5977 59.0677 37.7157 59.1208 37.8389C59.158 37.925 59.196 38.0135 59.2404 38.102L59.348 38.3173V39.0348C57.7335 42.4432 55.3656 45.6721 52.1366 48.8653C47.6519 53.314 42.8443 56.1843 37.4986 57.6912C34.9512 58.4087 32.404 58.7675 29.8926 58.7675ZM30.0719 22.316C26.4124 22.316 22.6812 23.2128 18.9857 24.9708C13.3889 27.6258 8.79655 31.967 4.92177 38.1738C4.7065 38.4967 4.77826 38.999 4.95764 39.2859C7.61259 43.5554 10.8416 47.1073 14.5729 49.798C19.3446 53.2423 24.4391 55.0003 29.785 55.0362C33.6238 55.0003 37.068 54.2469 40.4047 52.7041C46.2886 49.9775 51.0603 45.5645 55.0069 39.25C55.2221 38.9272 55.1503 38.3532 54.9709 38.0661C51.8137 33.0074 48.1542 29.2043 43.7771 26.4777C39.2925 23.7151 34.6643 22.316 30.0719 22.316ZM16.9049 13.8487C17.2995 14.6738 18.0171 14.8533 18.4117 14.8891C19.1292 14.8891 19.7751 14.5662 20.098 14.028C20.4209 13.5617 20.4568 12.9517 20.2414 12.4136C18.9857 9.43573 17.6583 6.45789 16.6178 4.23348C16.3309 3.58769 15.721 3.19303 15.0033 3.19303C14.7522 3.19303 14.4651 3.2648 14.214 3.37243C13.2812 3.80296 12.8866 4.84341 13.2812 5.74034C14.2395 7.90319 15.2185 10.0869 16.107 12.0684L16.1087 12.0722C16.384 12.686 16.6504 13.2803 16.9049 13.8487ZM41.5528 14.8891C40.8353 14.8891 40.2252 14.5663 39.8665 14.0281C39.5436 13.5258 39.4718 12.88 39.723 12.306C39.838 12.0422 39.9529 11.7772 40.0682 11.5116C40.5641 10.3683 41.0646 9.21467 41.5886 8.10831C41.7059 7.85913 41.8172 7.60996 41.9273 7.36323C42.0867 7.00614 42.2441 6.65384 42.4138 6.31443C42.4677 6.2068 42.5125 6.10816 42.5573 6.00951C42.6021 5.91093 42.647 5.81206 42.7009 5.70451C42.8802 5.27397 43.0954 4.80757 43.3108 4.37704C43.6336 3.65949 44.2794 3.22897 44.997 3.22897C45.2481 3.22897 45.5352 3.30072 45.7863 3.40835C46.7192 3.83888 47.1137 4.87933 46.6832 5.84802C45.8103 7.87552 44.8931 9.90301 43.9838 11.9132L43.9821 11.9169C43.7335 12.4666 43.4854 13.015 43.239 13.5617L43.1313 13.8128C42.7009 14.6022 42.0551 14.8533 41.5528 14.8891ZM50.8091 19.912C51.1679 20.3067 51.6702 20.5578 52.2084 20.5578C52.6031 20.5578 52.9618 20.4502 53.3565 20.1633C55.1503 18.6205 56.9442 16.9701 58.774 15.2838C59.4556 14.638 59.3121 13.8488 59.0969 13.3106C58.8457 12.6289 58.2358 12.2343 57.4107 12.0908C57.3568 12.1087 57.294 12.1356 57.2312 12.1625C57.1684 12.1894 57.1057 12.2164 57.0518 12.2343C56.9986 12.2579 56.9464 12.2806 56.8953 12.3028C56.6363 12.4152 56.4064 12.515 56.2267 12.6648C54.6122 14.064 52.9259 15.5709 50.9527 17.4007C50.1992 18.0823 50.1633 19.1587 50.8091 19.912ZM7.79197 20.5578C7.36144 20.5578 6.93091 20.4143 6.60801 20.0915C5.06528 18.7281 3.41491 17.2572 1.33402 15.3557C0.759974 14.8175 0.580587 14.0999 0.903484 13.3465C1.1905 12.7007 1.76455 12.2343 2.58973 12.0908C2.67663 12.1487 2.78692 12.1833 2.88283 12.2133C2.90563 12.2204 2.92783 12.2274 2.9485 12.2343C3.02435 12.268 3.1002 12.2997 3.17465 12.3309C3.41712 12.4323 3.6449 12.5276 3.80957 12.6648C5.38818 14.0281 7.03855 15.4992 9.04769 17.3648C9.80112 18.0464 9.83699 19.1945 9.15532 19.912C8.79655 20.3426 8.29426 20.5578 7.79197 20.5578ZM19.0575 38.6761C19.0575 44.7394 23.9728 49.6546 30.0002 49.6546C36.0276 49.6546 40.9429 44.7394 40.9429 38.712C40.9429 32.6486 36.0276 27.7334 30.0002 27.7334C23.9728 27.7334 19.0575 32.6486 19.0575 38.6761ZM22.7171 38.712C22.7171 34.6937 25.9819 31.4288 30.0002 31.4288C34.0185 31.4288 37.2833 34.7296 37.2474 38.7479C37.2474 42.7303 33.9826 45.9951 29.9643 45.9951C25.9819 45.9951 22.7171 42.7303 22.7171 38.712Z" fill="black"/>
</g>
<defs>
<clipPath id="clip0_5_6428">
<rect width="60" height="60" fill="white"/>
</clipPath>
</defs>
</svg>
