<svg width="37" height="44" viewBox="0 0 37 44" fill="none" xmlns="http://www.w3.org/2000/svg">
<g clip-path="url(#clip0_5_12179)">
<path fill-rule="evenodd" clip-rule="evenodd" d="M9.59927 19.582L9.57427 19.336L4.38726 17.611C3.68849 17.3808 3.06682 16.9622 2.59077 16.4013C2.11471 15.8403 1.80275 15.1589 1.68926 14.432L0.981265 9.99697C0.889832 9.4241 0.923943 8.83821 1.08124 8.27982C1.23853 7.72144 1.51526 7.20389 1.89226 6.76297C2.2684 6.32132 2.73588 5.96654 3.26246 5.7231C3.78903 5.47967 4.36215 5.35339 4.94226 5.35297H8.15227L8.05227 4.42297H4.94226C4.22728 4.42279 3.52078 4.57781 2.87156 4.87732C2.22233 5.17683 1.64586 5.6137 1.18196 6.15776C0.71806 6.70181 0.377785 7.34008 0.18464 8.02848C-0.00850481 8.71688 -0.0499168 9.43901 0.0632647 10.145L0.771265 14.58C0.912904 15.4737 1.2975 16.3113 1.88302 17.0013C2.46854 17.6912 3.23246 18.2069 4.09126 18.492L9.64227 20.334C9.6123 20.0844 9.59794 19.8333 9.59927 19.582Z" fill="#EC982D"/>
<path fill-rule="evenodd" clip-rule="evenodd" d="M35.9493 10.145L35.2403 14.58C35.0985 15.4747 34.713 16.3131 34.1261 17.0032C33.5393 17.6933 32.7737 18.2084 31.9133 18.492L26.3203 20.352C26.3503 20.099 26.3753 19.842 26.3753 19.582L26.3943 19.348L31.6243 17.611C32.3219 17.3788 32.9423 16.9595 33.4181 16.399C33.8938 15.8384 34.2066 15.158 34.3223 14.432L35.0313 9.997C35.1214 9.42366 35.0863 8.83762 34.9284 8.27914C34.7705 7.72065 34.4936 7.20297 34.1167 6.76164C33.7398 6.32031 33.2718 5.96581 32.7449 5.72248C32.218 5.47915 31.6447 5.35276 31.0643 5.352H27.8233L27.9163 4.422H31.0633C34.1063 4.422 36.4293 7.145 35.9493 10.145Z" fill="#F3B62C"/>
<path fill-rule="evenodd" clip-rule="evenodd" d="M20.3154 5.20203C22.2764 5.15203 24.2934 5.02903 26.0254 4.78003L24.4934 20.103C24.2654 21.95 23.0534 25.201 20.6744 26.371C20.5534 26.431 20.4337 26.4937 20.3154 26.559V5.20203Z" fill="#EECA28"/>
<path fill-rule="evenodd" clip-rule="evenodd" d="M17.9681 0V2.882C12.0321 2.877 7.16309 2.231 7.16309 1.44C7.16309 0.646 11.9911 0 17.9681 0Z" fill="#EC982D"/>
<path fill-rule="evenodd" clip-rule="evenodd" d="M28.8078 1.439C28.8078 1.509 28.7728 1.574 28.6968 1.644V1.65C27.9398 2.348 23.4088 2.882 17.9668 2.882V0C23.9378 0 28.8078 0.646 28.8078 1.439Z" fill="#F3B62C"/>
<path fill-rule="evenodd" clip-rule="evenodd" d="M10.791 42.533C10.791 42.473 10.809 42.409 10.85 42.351L10.791 42.533Z" fill="#A84266"/>
<path fill-rule="evenodd" clip-rule="evenodd" d="M17.9681 42.533V44C13.9931 44 10.7911 43.343 10.7911 42.533L10.8511 42.351L10.8561 42.339C11.3033 40.9871 12.0861 39.7707 13.1312 38.8036C14.1763 37.8365 15.4496 37.1502 16.8321 36.809L16.9431 36.779L16.7911 32.476C16.7321 30.915 16.0211 29.389 14.1731 28.478C10.9271 26.882 9.37006 22.908 9.05306 20.336L7.16406 1.43896C7.16406 2.23096 12.0341 2.87696 17.9691 2.88196V42.532L17.9681 42.533Z" fill="#FBE15B"/>
<path fill-rule="evenodd" clip-rule="evenodd" d="M17.9678 42.533V44C21.9418 44 25.1438 43.343 25.1438 42.533L25.0838 42.351L25.0788 42.339C24.6316 40.9869 23.8487 39.7703 22.8034 38.8032C21.7581 37.836 20.4845 37.1499 19.1018 36.809L18.9918 36.779L19.1438 32.476C19.2028 30.915 19.9128 29.389 21.7618 28.478C25.0088 26.882 26.5638 22.908 26.8818 20.336L28.7718 1.43896C28.7718 2.23096 23.9018 2.87696 17.9678 2.88196V42.533Z" fill="#F8D82B"/>
<path fill-rule="evenodd" clip-rule="evenodd" d="M20.3154 5.20303C22.7584 5.14303 24.6334 4.99403 26.0764 4.78503L24.5454 20.102C24.3164 21.95 23.1054 25.202 20.7254 26.372C20.5867 26.4397 20.45 26.5114 20.3154 26.587V5.20303Z" fill="#F2BA27"/>
<path fill-rule="evenodd" clip-rule="evenodd" d="M15.6194 26.587C15.4847 26.5117 15.348 26.44 15.2094 26.372C12.8304 25.202 11.6184 21.95 11.3844 20.049L9.85742 4.78503C11.3014 4.99403 13.1764 5.14403 15.6194 5.20303V26.587Z" fill="#FDEA97"/>
</g>
<defs>
<clipPath id="clip0_5_12179">
<rect width="37" height="44" fill="white"/>
</clipPath>
</defs>
</svg>
