<svg width="30" height="30" viewBox="0 0 30 30" fill="none" xmlns="http://www.w3.org/2000/svg">
<rect width="30" height="30" fill="white"/>
<path d="M26.7375 11.4C24.5875 13.15 20.15 14.35 15 14.35C9.85 14.35 5.4125 13.1 3.2625 11.4C2.86827 11.1302 2.53916 10.7759 2.29913 10.3629C2.05911 9.94988 1.91422 9.48853 1.875 9.01245V13.75C1.875 16.7 7.75 19.0875 15 19.0875C22.25 19.0875 28.125 16.725 28.125 13.75V9.01245C28.0858 9.48853 27.9409 9.94988 27.7009 10.3629C27.4608 10.7759 27.1317 11.1302 26.7375 11.4Z" stroke="#1C103B" stroke-width="2.5" stroke-linecap="round" stroke-linejoin="round"/>
<path d="M15 3.67554C7.75 3.67554 1.875 6.06304 1.875 9.01304C1.91422 9.48912 2.05911 9.95046 2.29913 10.3635C2.53916 10.7765 2.86827 11.1308 3.2625 11.4005C5.4125 9.63804 9.85 8.43804 15 8.43804C20.15 8.43804 24.5875 9.68804 26.7375 11.4005C27.1317 11.1308 27.4608 10.7765 27.7009 10.3635C27.9409 9.95046 28.0858 9.48912 28.125 9.01304C28.125 6.06304 22.25 3.67554 15 3.67554Z" stroke="#1C103B" stroke-width="2.5" stroke-linecap="round" stroke-linejoin="round"/>
<path d="M15 17.2119V22.2369" stroke="black" stroke-width="2.5" stroke-linecap="round" stroke-linejoin="round"/>
<path d="M14.9998 26.3253C16.1113 26.3253 17.0123 25.4075 17.0123 24.2753C17.0123 23.1432 16.1113 22.2253 14.9998 22.2253C13.8883 22.2253 12.9873 23.1432 12.9873 24.2753C12.9873 25.4075 13.8883 26.3253 14.9998 26.3253Z" stroke="#0E081E" stroke-width="2.5" stroke-linecap="round" stroke-linejoin="round"/>
</svg>
