    <svg width="24" height="25" viewBox="0 0 24 25" fill="none" xmlns="http://www.w3.org/2000/svg">
<path d="M21 21.4L16.657 17.057M16.657 17.057C17.3998 16.3141 17.9891 15.4322 18.3912 14.4615C18.7932 13.4909 19.0002 12.4506 19.0002 11.4C19.0002 10.3494 18.7932 9.30908 18.3912 8.33846C17.9891 7.36783 17.3998 6.48589 16.657 5.743C15.9141 5.00011 15.0321 4.41082 14.0615 4.00877C13.0909 3.60673 12.0506 3.3998 11 3.3998C9.94936 3.3998 8.90905 3.60673 7.93842 4.00877C6.96779 4.41082 6.08585 5.00011 5.34296 5.743C3.84263 7.24333 2.99976 9.27821 2.99976 11.4C2.99976 13.5218 3.84263 15.5567 5.34296 17.057C6.84329 18.5573 8.87818 19.4002 11 19.4002C13.1217 19.4002 15.1566 18.5573 16.657 17.057Z" stroke="black" stroke-width="1.5" stroke-linecap="round" stroke-linejoin="round"/>
</svg>
