<svg width="50" height="51" viewBox="0 0 50 51" fill="none" xmlns="http://www.w3.org/2000/svg">
<rect y="0.369995" width="50" height="50" rx="8" fill="#7C58D3"/>
<g clip-path="url(#clip0_5_15979)">
<path d="M24.7939 17.7059C25.0049 17.5184 25.2041 17.5184 25.3916 17.7059L32.7393 25.0887C32.9502 25.2762 32.9502 25.4637 32.7393 25.6512L25.3916 33.0341C25.2041 33.2216 25.0049 33.2216 24.7939 33.0341L24.0908 32.3309C24.0205 32.2606 23.9854 32.1669 23.9854 32.0497C23.9854 31.9325 24.0205 31.827 24.0908 31.7333L29.54 26.2841H17.5518C17.2705 26.2841 17.1299 26.1434 17.1299 25.8622V24.8778C17.1299 24.5966 17.2705 24.4559 17.5518 24.4559H29.54L24.0908 19.0067C23.9033 18.7958 23.9033 18.5966 24.0908 18.4091L24.7939 17.7059Z" fill="white"/>
</g>
<defs>
<clipPath id="clip0_5_15979">
<rect width="15.75" height="18" fill="white" transform="matrix(1 0 0 -1 17.1299 34.37)"/>
</clipPath>
</defs>
</svg>
