<svg width="70" height="70" viewBox="0 0 70 70" fill="none" xmlns="http://www.w3.org/2000/svg">
<rect width="70" height="70" rx="35" fill="#EBE5F7"/>
<g clip-path="url(#clip0_5_6649)">
<path d="M26.7734 26.7734C26.7734 26.7734 27.3398 26.207 28.4727 25.0742C29.6055 23.9414 31.7812 23.375 35 23.375C38.2188 23.375 40.9609 24.5078 43.2266 26.7734C45.4922 29.0391 46.625 31.7812 46.625 35C46.625 38.2188 45.4922 40.9609 43.2266 43.2266C40.9609 45.4922 38.2188 46.625 35 46.625C31.7812 46.625 29.0391 45.4922 26.7734 43.2266C24.5078 40.9609 23.375 38.2188 23.375 35C23.375 31.7812 24.5078 29.0391 26.7734 26.7734ZM37.6719 39.7812C37.9844 40 38.25 39.9688 38.4688 39.6875L39.7812 37.8594C40 37.5469 39.9688 37.2812 39.6875 37.0625L36.6875 34.9062V28.4375C36.6875 28.0625 36.5 27.875 36.125 27.875H33.875C33.5 27.875 33.3125 28.0625 33.3125 28.4375V36.3125C33.3125 36.5 33.3906 36.6562 33.5469 36.7812L37.6719 39.7812Z" fill="#7C58D3"/>
</g>
<defs>
<clipPath id="clip0_5_6649">
<rect width="24" height="24" fill="white" transform="matrix(1 0 0 -1 23 47)"/>
</clipPath>
</defs>
</svg>
