<svg width="35" height="51" viewBox="0 0 35 51" fill="none" xmlns="http://www.w3.org/2000/svg">
<path d="M31.0322 16.132C31.0322 16.4701 31.0322 16.7405 31.0322 17.0785C31.0322 26.4761 23.9333 37.2258 10.8849 37.2258C6.82843 37.2258 3.10998 36.0764 0 34.0482C0.540865 34.1158 1.08173 34.1834 1.6902 34.1834C5.003 34.1834 8.04537 33.0341 10.4793 31.141C7.36929 31.0734 4.73257 29.0452 3.85367 26.2056C4.32692 26.2733 4.73257 26.3409 5.20583 26.3409C5.8143 26.3409 6.49038 26.2056 7.03125 26.0704C3.78606 25.3943 1.35216 22.5548 1.35216 19.1068V19.0392C2.29868 19.58 3.44802 19.8505 4.59736 19.9181C2.63672 18.6335 1.41977 16.4701 1.41977 14.0362C1.41977 12.684 1.75781 11.4671 2.36629 10.4529C5.88191 14.7123 11.1553 17.5518 17.0373 17.8898C16.902 17.349 16.8344 16.8081 16.8344 16.2672C16.8344 12.346 20.012 9.16838 23.9333 9.16838C25.9615 9.16838 27.787 9.97968 29.1391 11.3995C30.6941 11.0614 32.2491 10.4529 33.6013 9.64164C33.0604 11.3318 31.9787 12.684 30.4913 13.5629C31.9111 13.4277 33.3308 13.022 34.5478 12.4812C33.6013 13.901 32.3843 15.1179 31.0322 16.132Z" fill="#1C103B"/>
</svg>
