<svg width="41" height="40" viewBox="0 0 41 40" fill="none" xmlns="http://www.w3.org/2000/svg">
<path fill-rule="evenodd" clip-rule="evenodd" d="M13.1327 8.22399C13.5777 6.09524 15.5211 4.58887 17.7461 4.58887H23.1927C25.4177 4.58887 27.3594 6.09524 27.8061 8.22399C27.8553 8.4584 27.984 8.66984 28.1714 8.8243C28.3589 8.97875 28.5941 9.06723 28.8394 9.07549H28.8944C31.2327 9.17624 33.0294 9.45574 34.5294 10.4161C35.4744 11.0206 36.2877 11.7974 36.9211 12.7057C37.7094 13.8335 38.0561 15.1302 38.2227 16.6967C38.3861 18.2291 38.3861 20.1482 38.3861 22.5792V22.7174C38.3861 25.1484 38.3861 27.0691 38.2227 28.5999C38.0561 30.1664 37.7094 31.4631 36.9211 32.5925C36.2858 33.5014 35.4731 34.2794 34.5294 34.8821C33.3577 35.6312 32.0127 35.9627 30.3827 36.1204C28.7861 36.2764 26.7844 36.2764 24.2411 36.2764H16.6977C14.1544 36.2764 12.1527 36.2764 10.5561 36.1204C8.92607 35.9627 7.58107 35.6329 6.4094 34.8821C5.46558 34.2789 4.65288 33.5003 4.01773 32.5909C3.2294 31.4631 2.88273 30.1664 2.71607 28.5999C2.55273 27.0691 2.55273 25.1484 2.55273 22.7174V22.5792C2.55273 20.1482 2.55273 18.2291 2.71607 16.6967C2.88273 15.1302 3.2294 13.8335 4.01773 12.7057C4.65288 11.7963 5.46558 11.0177 6.4094 10.4145C7.9094 9.45574 9.70607 9.17624 12.0444 9.07712L12.0727 9.07549H12.0994C12.3447 9.06723 12.5799 8.97875 12.7674 8.8243C12.9548 8.66984 13.0835 8.4584 13.1327 8.22399ZM17.7461 7.02637C16.6794 7.02637 15.7844 7.74624 15.5827 8.70987C15.2577 10.2699 13.8377 11.4984 12.1294 11.513C9.88273 11.6105 8.6794 11.8786 7.7794 12.4539C7.11087 12.8816 6.53497 13.4332 6.0844 14.0772C5.6244 14.7354 5.34773 15.5787 5.20107 16.9486C5.0544 18.3396 5.05273 20.1336 5.05273 22.6491C5.05273 25.1646 5.05273 26.957 5.20273 28.348C5.34773 29.7179 5.6244 30.5612 6.08607 31.221C6.53273 31.8612 7.10773 32.4137 7.78107 32.8444C8.47607 33.288 9.36607 33.5561 10.8044 33.6959C12.2611 33.8372 14.1377 33.8389 16.7661 33.8389H24.1727C26.7994 33.8389 28.6761 33.8389 30.1344 33.6959C31.5727 33.5561 32.4627 33.2896 33.1577 32.8444C33.8311 32.4137 34.4077 31.8612 34.8544 31.2194C35.3144 30.5612 35.5911 29.7179 35.7377 28.348C35.8844 26.957 35.8861 25.163 35.8861 22.6491C35.8861 20.1336 35.8861 18.3396 35.7361 16.9486C35.5911 15.5787 35.3144 14.7354 34.8527 14.0772C34.4027 13.4323 33.8267 12.8801 33.1577 12.4522C32.2611 11.8786 31.0577 11.6105 28.8077 11.513C27.1011 11.4967 25.6811 10.2715 25.3561 8.70987C25.2494 8.22931 24.9759 7.79936 24.5818 7.49265C24.1876 7.18593 23.697 7.02123 23.1927 7.02637H17.7461ZM20.4694 18.4014C19.4748 18.4014 18.521 18.7866 17.8178 19.4723C17.1145 20.1579 16.7194 21.0879 16.7194 22.0576C16.7194 23.0273 17.1145 23.9573 17.8178 24.643C18.521 25.3287 19.4748 25.7139 20.4694 25.7139C21.464 25.7139 22.4178 25.3287 23.1211 24.643C23.8243 23.9573 24.2194 23.0273 24.2194 22.0576C24.2194 21.0879 23.8243 20.1579 23.1211 19.4723C22.4178 18.7866 21.464 18.4014 20.4694 18.4014ZM14.2194 22.0576C14.2194 20.4415 14.8779 18.8915 16.05 17.7487C17.2221 16.6059 18.8118 15.9639 20.4694 15.9639C22.127 15.9639 23.7167 16.6059 24.8888 17.7487C26.0609 18.8915 26.7194 20.4415 26.7194 22.0576C26.7194 23.6738 26.0609 25.2237 24.8888 26.3665C23.7167 27.5093 22.127 28.1514 20.4694 28.1514C18.8118 28.1514 17.2221 27.5093 16.05 26.3665C14.8779 25.2237 14.2194 23.6738 14.2194 22.0576ZM29.2194 17.1826C29.2194 16.8594 29.3511 16.5494 29.5855 16.3208C29.8199 16.0923 30.1379 15.9639 30.4694 15.9639H32.1361C32.4676 15.9639 32.7855 16.0923 33.02 16.3208C33.2544 16.5494 33.3861 16.8594 33.3861 17.1826C33.3861 17.5058 33.2544 17.8158 33.02 18.0444C32.7855 18.273 32.4676 18.4014 32.1361 18.4014H30.4694C30.1379 18.4014 29.8199 18.273 29.5855 18.0444C29.3511 17.8158 29.2194 17.5058 29.2194 17.1826Z" fill="#5E17EB"/>
</svg>
