<svg width="51" height="45" viewBox="0 0 51 45" fill="none" xmlns="http://www.w3.org/2000/svg">
<g clip-path="url(#clip0_5_11003)">
<g clip-path="url(#clip1_5_11003)">
<path fill-rule="evenodd" clip-rule="evenodd" d="M39.4999 34.647L39.4599 34.858C39.3539 35.397 39.0499 36.839 38.6699 37.708C38.1949 38.792 35.9209 42.77 35.9209 42.77L36.5059 44.93H38.8259C38.8259 44.93 39.1169 44.095 37.7109 43.821C36.6859 43.621 39.5989 39.941 39.5989 39.941L42.2929 37.491L39.4999 34.647Z" fill="#CA7055"/>
<path fill-rule="evenodd" clip-rule="evenodd" d="M19.0155 23.702L19.4395 22.985C29.3445 28.855 41.9815 27.441 42.1045 27.431L41.6045 27.931C41.1045 28.431 42.1045 28.431 39.6045 28.431C37.1045 28.431 26.6215 28.21 19.0155 23.702ZM5.20149 44.931L6.10749 44.922C6.19457 44.9206 6.27985 44.897 6.35533 44.8536C6.43081 44.8101 6.49401 44.7482 6.53899 44.6736C6.58398 44.599 6.60927 44.5142 6.61251 44.4272C6.61575 44.3402 6.59682 44.2538 6.55749 44.176C6.44435 43.944 6.27965 43.741 6.076 43.5824C5.87235 43.4238 5.63514 43.3139 5.38249 43.261L5.20149 43.223L4.54449 41.227L2.16849 39.692L0.604492 42.311L2.80249 44.191C3.36049 44.669 4.06949 44.931 4.80349 44.931H5.20149ZM13.8045 41.712L13.2675 43.896C13.2372 44.019 13.2352 44.1472 13.2617 44.271C13.2882 44.3948 13.3426 44.511 13.4206 44.6107C13.4987 44.7104 13.5983 44.791 13.7121 44.8465C13.8259 44.902 13.9509 44.9309 14.0775 44.931H19.4145C19.5287 44.9311 19.6415 44.9053 19.7443 44.8555C19.8471 44.8058 19.9374 44.7335 20.0083 44.6439C20.0792 44.5543 20.1289 44.4499 20.1537 44.3384C20.1785 44.2269 20.1777 44.1112 20.1515 44L20.1485 43.986C20.1169 43.852 20.0494 43.7291 19.9532 43.6306C19.857 43.5322 19.7357 43.4618 19.6025 43.427L17.8095 42.96L16.8255 41.712H13.8045Z" fill="#362129"/>
<path fill-rule="evenodd" clip-rule="evenodd" d="M6.72754 12.989H10.0485V8.30402H6.72754V12.989Z" fill="#DFA278"/>
<path fill-rule="evenodd" clip-rule="evenodd" d="M12.162 23.207H6.31702L5.79102 13.539C5.79128 12.8772 6.05437 12.2426 6.52243 11.7747C6.99049 11.3069 7.62521 11.044 8.28702 11.044H8.35702C10.748 11.044 12.687 14.034 12.687 16.426L12.162 23.207Z" fill="#F3B62C"/>
<path fill-rule="evenodd" clip-rule="evenodd" d="M17.7447 41.712H13.4767L10.9157 34.589L7.42572 29.197C6.37358 27.5717 5.95277 25.6174 6.24272 23.703L6.31772 23.207H12.1637L15.1837 33.143L17.7447 41.713V41.712Z" fill="#27313F"/>
<path fill-rule="evenodd" clip-rule="evenodd" d="M5.20097 42.311L2.16797 39.691L5.79197 33.196L6.31797 23.206H12.163L9.70997 35.091L5.20097 42.311Z" fill="#3C4758"/>
<path fill-rule="evenodd" clip-rule="evenodd" d="M18.6628 21.879L16.7588 23.783L17.3238 24.347C17.4475 24.4709 17.5944 24.5692 17.7561 24.6362C17.9179 24.7033 18.0912 24.7378 18.2663 24.7378C18.4414 24.7378 18.6147 24.7033 18.7764 24.6362C18.9382 24.5692 19.0851 24.4709 19.2088 24.347L19.2278 24.327C19.7478 23.808 19.7478 22.964 19.2278 22.443L18.6628 21.879Z" fill="#E2B188"/>
<path fill-rule="evenodd" clip-rule="evenodd" d="M9.75496 12.971C9.63125 12.8472 9.48433 12.7489 9.32261 12.6818C9.16089 12.6148 8.98753 12.5803 8.81246 12.5803C8.63739 12.5803 8.46404 12.6148 8.30231 12.6818C8.14059 12.7489 7.99367 12.8472 7.86996 12.971L7.84996 12.99C7.32996 13.51 7.32996 14.354 7.84996 14.874L16.76 23.783L18.663 21.879L9.75496 12.97V12.971Z" fill="#F8D82B"/>
<path fill-rule="evenodd" clip-rule="evenodd" d="M7.23778 6.73503C6.97478 6.08303 7.30278 4.60303 8.02578 5.07603C8.74778 5.55003 8.94578 6.73503 8.94578 6.73503L9.53578 5.39103L10.0488 3.06203L10.7488 3.01503C11.5538 2.96103 12.2278 2.29103 12.0308 1.58503C11.9248 1.20103 11.3098 0.93103 8.94478 0.93103C5.46478 0.93103 4.67578 2.44203 4.67578 4.30603C4.67578 5.62703 5.56078 7.32103 6.44978 8.15903C6.82978 7.81403 7.41978 7.18603 7.23778 6.73503Z" fill="#64301F"/>
<path fill-rule="evenodd" clip-rule="evenodd" d="M10.0482 3.06202L9.53422 5.39102L8.94422 6.73502C8.94422 6.73502 8.74722 5.55002 8.02422 5.07602C7.30222 4.60302 6.97422 6.08302 7.23622 6.73502C7.41822 7.18502 6.82922 7.81502 6.44922 8.15902C6.81622 8.50402 7.26322 8.79202 7.82722 8.98402C12.6872 10.644 12.6872 6.64402 12.6872 4.78102C12.6872 4.09502 12.3372 2.81602 11.9482 2.28302L10.0482 3.06202Z" fill="#E2B188"/>
<path fill-rule="evenodd" clip-rule="evenodd" d="M25.2441 35.755C25.2441 35.755 27.6171 38.777 26.9731 40.068C26.3301 41.359 25.5971 41.908 25.5971 41.908L28.0411 44.931H30.5751C30.5751 44.931 30.7771 44.056 30.0801 43.768C29.3851 43.48 29.0961 43.592 29.0961 43.592L27.8231 41.838C27.8231 41.838 32.2131 36.222 31.0261 32.899C29.8381 29.576 25.2441 35.755 25.2441 35.755Z" fill="#BD5E44"/>
<path fill-rule="evenodd" clip-rule="evenodd" d="M30.7788 34.051C30.7865 34.5017 30.7044 34.9494 30.5373 35.368C30.3702 35.7866 30.1214 36.1678 29.8054 36.4892C29.4894 36.8107 29.1126 37.066 28.6969 37.2403C28.2812 37.4145 27.835 37.5043 27.3843 37.5043C26.9335 37.5043 26.4873 37.4145 26.0716 37.2403C25.6559 37.066 25.2791 36.8107 24.9631 36.4892C24.6471 36.1678 24.3983 35.7866 24.2312 35.368C24.0641 34.9494 23.982 34.5017 23.9898 34.051C23.9898 33.1506 24.3474 32.2871 24.9841 31.6504C25.6208 31.0137 26.4843 30.656 27.3848 30.656C28.2852 30.656 29.1487 31.0137 29.7854 31.6504C30.4221 32.2871 30.7788 33.1506 30.7788 34.051ZM47.3678 30.088L46.8638 29.962L47.2578 30.208L48.4578 30.765C48.4578 30.765 48.1078 31.313 46.5178 30.912L46.3118 30.77C46.0598 30.86 45.7918 30.912 45.5088 30.912C45.4238 30.912 45.3398 30.902 45.2558 30.892C45.0482 30.8678 44.8437 30.8219 44.6458 30.755C44.6518 31.495 44.6518 32.268 44.6578 33.025C44.6838 36.397 42.9758 37.143 42.9758 37.143L39.2928 30.439L43.3428 27.087C43.6418 26.59 44.102 26.2103 44.6468 26.011L44.6568 26V26.01C44.9248 25.91 45.2088 25.853 45.5088 25.853C46.6638 25.853 47.6258 26.63 47.9298 27.687C48.8238 27.976 50.2368 28.49 50.2368 28.821C50.2368 29.304 48.7288 30.44 48.7288 30.44L47.3678 30.088Z" fill="#E1903F"/>
<path fill-rule="evenodd" clip-rule="evenodd" d="M27.1211 33.656V30.656L39.2911 30.441V38.846C39.2911 38.846 33.9511 38.929 27.1211 33.656Z" fill="#E1903F"/>
<path fill-rule="evenodd" clip-rule="evenodd" d="M24.3123 34.611C24.3123 34.611 24.6223 38.441 23.3733 39.162C22.1233 39.883 22.2453 40.162 22.2453 40.162L21.2973 43.662L22.5283 44.931H23.8013C23.8013 44.931 24.3433 44.587 23.9213 43.963C23.4993 43.338 22.6983 43.487 22.6983 43.487L23.4413 41.588C23.4413 41.588 29.8653 38.849 30.7103 35.422C31.5543 31.996 24.3123 34.611 24.3123 34.611ZM39.5843 35.977L39.6993 36.159C39.9893 36.625 40.4223 39.511 40.7363 40.406C41.1283 41.521 44.6053 44.931 44.6053 44.931H46.0703C46.0703 44.931 46.8373 44.327 46.4413 44.016C46.1203 43.766 45.6553 43.55 44.9833 43.487C43.9433 43.391 43.2673 39.781 43.2673 39.781L43.5663 36.151L39.5843 35.977ZM25.8563 31.021C25.8563 31.021 24.5813 31.141 23.5313 32.367C22.4793 33.593 21.1223 37.357 19.5903 37.445C18.0583 37.533 17.4893 37.445 17.4893 37.445C17.4893 37.445 16.6573 39.04 18.5833 39.294C20.5103 39.547 20.5993 39.722 21.5833 38.847C22.5673 37.971 24.8373 33.197 24.8373 33.197L25.8563 31.021Z" fill="#E1903F"/>
<path fill-rule="evenodd" clip-rule="evenodd" d="M45.6171 30.996L44.7361 31.876L41.1641 28.305L42.0441 27.424L45.6171 30.996Z" fill="#362129"/>
<path fill-rule="evenodd" clip-rule="evenodd" d="M46.2848 25.517H44.1948L43.8018 28.276C43.8018 28.276 44.7288 28.85 44.7648 28.982C44.8018 29.112 46.0168 28.3 46.0168 28.3L45.9848 25.994L46.2848 25.517Z" fill="#F3B62C"/>
<path fill-rule="evenodd" clip-rule="evenodd" d="M46.2844 25.517L45.9844 25.994L46.0164 28.3L46.5544 26.618L46.2944 25.517H46.2844Z" fill="#CA7055"/>
<path fill-rule="evenodd" clip-rule="evenodd" d="M43.801 34.644C43.8095 35.2014 43.7071 35.7548 43.4997 36.2722C43.2923 36.7896 42.9841 37.2605 42.593 37.6577C42.2018 38.0548 41.7356 38.3701 41.2214 38.5854C40.7073 38.8006 40.1554 38.9114 39.598 38.9114C39.0406 38.9113 38.4888 38.8003 37.9747 38.585C37.4605 38.3696 36.9944 38.0542 36.6034 37.657C36.2123 37.2597 35.9042 36.7887 35.6969 36.2713C35.4896 35.7538 35.3874 35.2004 35.396 34.643C35.413 33.5397 35.8633 32.4873 36.6496 31.7131C37.4358 30.9388 38.495 30.5049 39.5985 30.5049C40.702 30.5049 41.7612 30.9388 42.5475 31.7131C43.3337 32.4873 43.784 33.5407 43.801 34.644Z" fill="#E1903F"/>
</g>
</g>
<defs>
<clipPath id="clip0_5_11003">
<rect width="50" height="44" fill="white" transform="translate(0.604492 0.93103)"/>
</clipPath>
<clipPath id="clip1_5_11003">
<rect width="50" height="44" fill="white" transform="translate(0.604492 0.93103)"/>
</clipPath>
</defs>
</svg>
