<svg width="14" height="17" viewBox="0 0 14 17" fill="none" xmlns="http://www.w3.org/2000/svg">
<path d="M11.875 3.0625C13.1875 4.375 14 6.09375 14 7.96875C14 11.7812 10.8125 14.9062 6.96875 14.9062C5.8125 14.9062 4.6875 14.5938 3.65625 14.0625L0 15L0.96875 11.4062C0.375 10.375 0.03125 9.1875 0.03125 7.9375C0.03125 4.125 3.15625 1 6.96875 1C8.84375 1 10.5938 1.75 11.875 3.0625ZM6.96875 13.7188C10.1562 13.7188 12.8125 11.125 12.8125 7.96875C12.8125 6.40625 12.1562 4.96875 11.0625 3.875C9.96875 2.78125 8.53125 2.1875 7 2.1875C3.8125 2.1875 1.21875 4.78125 1.21875 7.9375C1.21875 9.03125 1.53125 10.0938 2.09375 11.0312L2.25 11.25L1.65625 13.375L3.84375 12.7812L4.03125 12.9062C4.9375 13.4375 5.9375 13.7188 6.96875 13.7188ZM10.1562 9.40625C10.3125 9.5 10.4375 9.53125 10.4688 9.625C10.5312 9.6875 10.5312 10.0312 10.375 10.4375C10.2188 10.8438 9.53125 11.2188 9.21875 11.25C8.65625 11.3438 8.21875 11.3125 7.125 10.8125C5.375 10.0625 4.25 8.3125 4.15625 8.21875C4.0625 8.09375 3.46875 7.28125 3.46875 6.40625C3.46875 5.5625 3.90625 5.15625 4.0625 4.96875C4.21875 4.78125 4.40625 4.75 4.53125 4.75C4.625 4.75 4.75 4.75 4.84375 4.75C4.96875 4.75 5.09375 4.71875 5.25 5.0625C5.375 5.40625 5.75 6.25 5.78125 6.34375C5.8125 6.4375 5.84375 6.53125 5.78125 6.65625C5.46875 7.3125 5.09375 7.28125 5.28125 7.59375C5.96875 8.75 6.625 9.15625 7.65625 9.65625C7.8125 9.75 7.90625 9.71875 8.03125 9.625C8.125 9.5 8.46875 9.09375 8.5625 8.9375C8.6875 8.75 8.8125 8.78125 8.96875 8.84375C9.125 8.90625 9.96875 9.3125 10.1562 9.40625Z" fill="#5E17EB"/>
</svg>
