<svg width="36" height="37" viewBox="0 0 36 37" fill="none" xmlns="http://www.w3.org/2000/svg">
<path d="M0.406738 36.1043L2.88162 27.063C1.35444 24.4164 0.551975 21.4164 0.553442 18.34C0.557843 8.72213 8.38446 0.895508 18.0009 0.895508C22.6675 0.896975 27.0481 2.71463 30.343 6.01252C33.6365 9.31041 35.4498 13.6939 35.4483 18.3561C35.4439 27.9755 27.6173 35.8021 18.0009 35.8021C15.0815 35.8006 12.2046 35.0686 9.65638 33.6778L0.406738 36.1043ZM10.0848 30.5193C12.5435 31.979 14.8908 32.8534 17.995 32.8548C25.9874 32.8548 32.4981 26.35 32.5025 18.3532C32.5054 10.3403 26.0255 3.84424 18.0067 3.84131C10.0085 3.84131 3.50218 10.3461 3.49924 18.3415C3.49778 21.6056 4.45428 24.0497 6.06068 26.6067L4.59512 31.9585L10.0848 30.5193ZM26.7899 22.5034C26.6813 22.3215 26.3908 22.213 25.9537 21.9944C25.5179 21.7758 23.3746 20.721 22.9741 20.5758C22.5751 20.4305 22.2846 20.3572 21.9927 20.7943C21.7022 21.2301 20.866 22.213 20.6122 22.5034C20.3584 22.7939 20.1031 22.8306 19.6674 22.612C19.2317 22.3934 17.8263 21.9342 16.1612 20.4481C14.8658 19.2921 13.99 17.8647 13.7362 17.4275C13.4824 16.9918 13.7098 16.7556 13.9269 16.5385C14.1235 16.3434 14.3626 16.0294 14.5812 15.7742C14.8027 15.5218 14.8746 15.3399 15.0213 15.048C15.1666 14.7575 15.0947 14.5022 14.9846 14.2837C14.8746 14.0665 14.0032 11.9203 13.6408 11.0474C13.2858 10.198 12.9264 10.3124 12.6594 10.2992L11.8232 10.2845C11.5327 10.2845 11.0603 10.3931 10.6613 10.8303C10.2623 11.2674 9.13558 12.3208 9.13558 14.467C9.13558 16.6133 10.698 18.6862 10.9151 18.9767C11.1337 19.2672 13.9885 23.6712 18.3618 25.5593C19.4019 26.0082 20.2146 26.2766 20.8469 26.4776C21.8914 26.8092 22.8421 26.7622 23.5932 26.6507C24.4309 26.526 26.1722 25.5959 26.5361 24.5778C26.8999 23.5582 26.8999 22.6853 26.7899 22.5034Z" fill="#25D366"/>
</svg>
