<svg width="69" height="69" viewBox="0 0 69 69" fill="none" xmlns="http://www.w3.org/2000/svg">
<g filter="url(#filter0_d_107_2347)">
<circle cx="34.5" cy="30.5" r="30.5" fill="white"/>
<path d="M15 49.9999L17.8116 39.7283C16.0766 36.7216 15.165 33.3133 15.1667 29.8183C15.1717 18.8916 24.0633 10 34.9883 10C40.2899 10.0017 45.2666 12.0667 49.0099 15.8133C52.7516 19.56 54.8116 24.54 54.8099 29.8366C54.8049 40.7649 45.9132 49.6566 34.9883 49.6566C31.6716 49.6549 28.4033 48.8232 25.5083 47.2433L15 49.9999ZM25.995 43.6549C28.7883 45.3133 31.4549 46.3066 34.9816 46.3083C44.0616 46.3083 51.4582 38.9183 51.4632 29.8333C51.4666 20.73 44.1049 13.35 34.9949 13.3467C25.9083 13.3467 18.5166 20.7366 18.5133 29.82C18.5116 33.5283 19.5983 36.3049 21.4233 39.2099L19.7583 45.2899L25.995 43.6549ZM44.9733 34.5483C44.8499 34.3416 44.5199 34.2183 44.0233 33.9699C43.5283 33.7216 41.0933 32.5233 40.6383 32.3583C40.1849 32.1933 39.8549 32.11 39.5233 32.6066C39.1933 33.1016 38.2433 34.2183 37.9549 34.5483C37.6666 34.8783 37.3766 34.9199 36.8816 34.6716C36.3866 34.4233 34.7899 33.9016 32.8983 32.2133C31.4266 30.9 30.4316 29.2783 30.1433 28.7816C29.855 28.2866 30.1133 28.0183 30.36 27.7716C30.5833 27.55 30.8549 27.1933 31.1033 26.9033C31.3549 26.6166 31.4366 26.41 31.6033 26.0783C31.7683 25.7483 31.6866 25.4583 31.5616 25.21C31.4366 24.9633 30.4466 22.525 30.035 21.5333C29.6316 20.5683 29.2233 20.6983 28.92 20.6833L27.97 20.6666C27.64 20.6666 27.1033 20.79 26.65 21.2866C26.1966 21.7833 24.9166 22.98 24.9166 25.4183C24.9166 27.8566 26.6916 30.2116 26.9383 30.5416C27.1866 30.8716 30.4299 35.8749 35.3983 38.0199C36.5799 38.5299 37.5033 38.8349 38.2216 39.0633C39.4083 39.4399 40.4883 39.3866 41.3416 39.2599C42.2933 39.1183 44.2716 38.0616 44.6849 36.9049C45.0983 35.7466 45.0983 34.7549 44.9733 34.5483Z" fill="#25D366"/>
</g>
<defs>
<filter id="filter0_d_107_2347" x="0" y="0" width="69" height="69" filterUnits="userSpaceOnUse" color-interpolation-filters="sRGB">
<feFlood flood-opacity="0" result="BackgroundImageFix"/>
<feColorMatrix in="SourceAlpha" type="matrix" values="0 0 0 0 0 0 0 0 0 0 0 0 0 0 0 0 0 0 127 0" result="hardAlpha"/>
<feOffset dy="4"/>
<feGaussianBlur stdDeviation="2"/>
<feComposite in2="hardAlpha" operator="out"/>
<feColorMatrix type="matrix" values="0 0 0 0 0 0 0 0 0 0 0 0 0 0 0 0 0 0 0.25 0"/>
<feBlend mode="normal" in2="BackgroundImageFix" result="effect1_dropShadow_107_2347"/>
<feBlend mode="normal" in="SourceGraphic" in2="effect1_dropShadow_107_2347" result="shape"/>
</filter>
</defs>
</svg>
