<svg width="1917" height="1083" viewBox="0 0 1917 1083" fill="none" xmlns="http://www.w3.org/2000/svg">
<g clip-path="url(#clip0_759_7815)">
<rect width="1917" height="1193" fill="white"/>
<g clip-path="url(#clip1_759_7815)">
<path d="M1917 0.48877H0.796875V1191.51H1917V0.48877Z" fill="#5E17EB"/>
<path d="M0.796875 64.9529C0.796875 64.9529 15.1684 52.8938 19.2935 33.2419C23.4187 13.59 38.7217 0.48877 38.7217 0.48877" stroke="#FFDA47" stroke-width="3" stroke-miterlimit="10" stroke-linecap="round"/>
<path d="M0.796875 118.549C0.796875 118.549 50.0326 101.577 63.0734 58.8489C75.582 17.312 126.148 0.48877 126.148 0.48877" stroke="#FFDA47" stroke-width="3" stroke-miterlimit="10" stroke-linecap="round"/>
<path d="M0.796875 172.145C0.796875 172.145 84.8968 150.26 106.72 84.6047C127.745 21.3317 213.575 0.48877 213.575 0.48877" stroke="#FFDA47" stroke-width="3" stroke-miterlimit="10" stroke-linecap="round"/>
<path d="M0.796875 225.89C0.796875 225.89 119.628 198.943 150.5 110.361C179.908 25.2025 300.869 0.48877 300.869 0.48877" stroke="#FFDA47" stroke-width="3" stroke-miterlimit="10" stroke-linecap="round"/>
<path d="M0.796875 279.486C0.796875 279.486 154.492 247.626 194.147 136.116C232.072 29.2222 388.295 0.48877 388.295 0.48877" stroke="#FFDA47" stroke-width="3" stroke-miterlimit="10" stroke-linecap="round"/>
<path d="M0.796875 333.082C0.796875 333.082 189.356 296.309 237.927 161.723C284.235 33.2419 475.722 0.48877 475.722 0.48877" stroke="#FFDA47" stroke-width="3" stroke-miterlimit="10" stroke-linecap="round"/>
<path d="M0.796875 386.827C0.796875 386.827 224.088 344.992 281.574 187.628C336.398 37.1127 563.149 0.48877 563.149 0.48877" stroke="#FFDA47" stroke-width="3" stroke-miterlimit="10" stroke-linecap="round"/>
<path d="M0.796875 440.423C0.796875 440.423 258.952 393.675 325.354 213.235C388.562 41.1324 650.575 0.48877 650.575 0.48877" stroke="#FFDA47" stroke-width="3" stroke-miterlimit="10" stroke-linecap="round"/>
<path d="M0.796875 494.019C0.796875 494.019 293.816 442.358 369.133 238.991C440.725 45.1521 737.869 0.48877 737.869 0.48877" stroke="#FFDA47" stroke-width="3" stroke-miterlimit="10" stroke-linecap="round"/>
<path d="M0.796875 547.764C0.796875 547.764 328.547 491.19 412.78 264.747C493.021 49.0229 825.296 0.48877 825.296 0.48877" stroke="#FFDA47" stroke-width="3" stroke-miterlimit="10" stroke-linecap="round"/>
<path d="M0.796875 601.36C0.796875 601.36 363.411 539.724 456.56 290.503C545.184 53.0426 912.723 0.48877 912.723 0.48877" stroke="#FFDA47" stroke-width="3" stroke-miterlimit="10" stroke-linecap="round"/>
<path d="M0.796875 654.956C0.796875 654.956 398.276 588.407 500.207 316.11C597.348 57.0623 1000.15 0.48877 1000.15 0.48877" stroke="#FFDA47" stroke-width="3" stroke-miterlimit="10" stroke-linecap="round"/>
<path d="M0.796875 708.7C0.796875 708.7 433.007 637.239 543.987 342.014C649.511 60.9331 1087.44 0.48877 1087.44 0.48877" stroke="#FFDA47" stroke-width="3" stroke-miterlimit="10" stroke-linecap="round"/>
<path d="M0.796875 762.296C0.796875 762.296 467.871 685.922 587.634 367.77C701.674 64.9529 1174.87 0.48877 1174.87 0.48877" stroke="#FFDA47" stroke-width="3" stroke-miterlimit="10" stroke-linecap="round"/>
<path d="M0.796875 816.041C0.796875 816.041 502.735 734.605 631.413 393.526C753.837 68.9726 1262.3 0.48877 1262.3 0.48877" stroke="#FFDA47" stroke-width="3" stroke-miterlimit="10" stroke-linecap="round"/>
<path d="M0.796875 869.637C0.796875 869.637 537.466 783.288 675.06 419.282C806.001 72.8434 1349.72 0.48877 1349.72 0.48877" stroke="#FFDA47" stroke-width="3" stroke-miterlimit="10" stroke-linecap="round"/>
<path d="M0.796875 923.233C0.796875 923.233 572.331 831.971 718.84 444.889C858.164 76.8631 1437.15 0.48877 1437.15 0.48877" stroke="#FFDA47" stroke-width="3" stroke-miterlimit="10" stroke-linecap="round"/>
<path d="M0.796875 976.978C0.796875 976.978 607.195 880.654 762.62 470.794C910.327 80.8828 1524.44 0.48877 1524.44 0.48877" stroke="#FFDA47" stroke-width="3" stroke-miterlimit="10" stroke-linecap="round"/>
<path d="M0.796875 1030.57C0.796875 1030.57 641.926 929.337 806.267 496.401C962.491 84.7536 1611.87 0.48877 1611.87 0.48877" stroke="#FFDA47" stroke-width="3" stroke-miterlimit="10" stroke-linecap="round"/>
<path d="M0.796875 1084.17C0.796875 1084.17 676.79 978.02 850.047 522.157C1014.65 88.7733 1699.3 0.48877 1699.3 0.48877" stroke="#FFDA47" stroke-width="3" stroke-miterlimit="10" stroke-linecap="round"/>
<path d="M0.796875 1137.92C0.796875 1137.92 711.654 1026.85 893.694 547.912C1066.82 92.793 1786.72 0.48877 1786.72 0.48877" stroke="#FFDA47" stroke-width="3" stroke-miterlimit="10" stroke-linecap="round"/>
<path d="M0.796875 1191.51C0.796875 1191.51 746.386 1075.39 937.473 573.668C1118.98 96.6638 1874.02 0.48877 1874.02 0.48877" stroke="#FFDA47" stroke-width="3" stroke-miterlimit="10" stroke-linecap="round"/>
<path d="M1912.07 1073.45C1912.07 1073.45 1862.84 1090.42 1849.8 1133.15C1837.29 1174.69 1786.72 1191.51 1786.72 1191.51" stroke="#FFDA47" stroke-width="4" stroke-miterlimit="10" stroke-linecap="round"/>
<path d="M1912.08 1019.85C1912.08 1019.85 1827.98 1041.74 1806.15 1107.4C1784.99 1170.67 1699.3 1191.51 1699.3 1191.51" stroke="#FFDA47" stroke-width="4" stroke-miterlimit="10" stroke-linecap="round"/>
<path d="M1912.08 966.11C1912.08 966.11 1793.24 993.057 1762.37 1081.64C1732.96 1166.65 1611.87 1191.51 1611.87 1191.51" stroke="#FFDA47" stroke-width="4" stroke-miterlimit="10" stroke-linecap="round"/>
<path d="M1912.08 912.514C1912.08 912.514 1758.38 944.374 1718.73 1055.88C1680.8 1162.78 1524.58 1191.51 1524.58 1191.51" stroke="#FFDA47" stroke-width="4" stroke-miterlimit="10" stroke-linecap="round"/>
<path d="M1912.08 858.77C1912.08 858.77 1723.52 895.542 1674.95 1030.13C1628.51 1158.76 1437.15 1191.51 1437.15 1191.51" stroke="#FFDA47" stroke-width="4" stroke-miterlimit="10" stroke-linecap="round"/>
<path d="M1912.07 805.173C1912.07 805.173 1688.78 847.008 1631.3 1004.37C1576.47 1154.74 1349.86 1191.51 1349.86 1191.51" stroke="#FFDA47" stroke-width="4" stroke-miterlimit="10" stroke-linecap="round"/>
<path d="M1912.08 751.577C1912.08 751.577 1653.92 798.325 1587.52 978.765C1524.18 1150.87 1262.3 1191.51 1262.3 1191.51" stroke="#FFDA47" stroke-width="4" stroke-miterlimit="10" stroke-linecap="round"/>
<path d="M1912.08 697.833C1912.08 697.833 1619.06 749.493 1543.74 952.86C1472.02 1146.85 1174.87 1191.51 1174.87 1191.51" stroke="#FFDA47" stroke-width="4" stroke-miterlimit="10" stroke-linecap="round"/>
<path d="M1912.08 644.236C1912.08 644.236 1584.33 700.81 1500.09 927.253C1419.85 1142.83 1087.45 1191.51 1087.45 1191.51" stroke="#FFDA47" stroke-width="4" stroke-miterlimit="10" stroke-linecap="round"/>
<path d="M1912.07 590.641C1912.07 590.641 1549.46 652.276 1456.31 901.498C1367.69 1138.96 1000.15 1191.51 1000.15 1191.51" stroke="#FFDA47" stroke-width="4" stroke-miterlimit="10" stroke-linecap="round"/>
<path d="M1912.07 536.896C1912.07 536.896 1514.6 603.444 1412.66 875.741C1315.52 1134.94 912.723 1191.51 912.723 1191.51" stroke="#FFDA47" stroke-width="4" stroke-miterlimit="10" stroke-linecap="round"/>
<path d="M1912.08 483.299C1912.08 483.299 1479.87 554.761 1368.89 849.985C1263.36 1131.07 825.297 1191.51 825.297 1191.51" stroke="#FFDA47" stroke-width="4" stroke-miterlimit="10" stroke-linecap="round"/>
<path d="M1912.08 429.704C1912.08 429.704 1445 506.078 1325.24 824.23C1211.2 1127.05 737.871 1191.51 737.871 1191.51" stroke="#FFDA47" stroke-width="4" stroke-miterlimit="10" stroke-linecap="round"/>
<path d="M1912.08 375.958C1912.08 375.958 1410.14 457.395 1281.46 798.474C1159.04 1123.03 650.578 1191.51 650.578 1191.51" stroke="#FFDA47" stroke-width="4" stroke-miterlimit="10" stroke-linecap="round"/>
<path d="M1912.07 322.363C1912.07 322.363 1375.41 408.712 1237.81 772.718C1106.87 1119.16 563.148 1191.51 563.148 1191.51" stroke="#FFDA47" stroke-width="4" stroke-miterlimit="10" stroke-linecap="round"/>
<path d="M1912.08 268.767C1912.08 268.767 1340.54 360.029 1194.03 747.111C1054.71 1115.14 475.723 1191.51 475.723 1191.51" stroke="#FFDA47" stroke-width="4" stroke-miterlimit="10" stroke-linecap="round"/>
<path d="M1912.08 215.021C1912.08 215.021 1305.68 311.345 1150.25 721.206C1002.55 1111.12 388.297 1191.51 388.297 1191.51" stroke="#FFDA47" stroke-width="4" stroke-miterlimit="10" stroke-linecap="round"/>
<path d="M1912.08 161.426C1912.08 161.426 1270.95 262.663 1106.61 695.599C950.384 1107.25 300.871 1191.51 300.871 1191.51" stroke="#FFDA47" stroke-width="4" stroke-miterlimit="10" stroke-linecap="round"/>
<path d="M1912.07 107.83C1912.07 107.83 1236.08 213.979 1062.82 669.843C898.217 1103.23 213.574 1191.51 213.574 1191.51" stroke="#FFDA47" stroke-width="4" stroke-miterlimit="10" stroke-linecap="round"/>
<path d="M1912.08 54.085C1912.08 54.085 1201.22 165.148 1019.18 644.088C845.922 1099.21 126.148 1191.51 126.148 1191.51" stroke="#FFDA47" stroke-width="4" stroke-miterlimit="10" stroke-linecap="round"/>
<path d="M1912.08 0.48877C1912.08 0.48877 1166.49 116.613 975.399 618.332C793.759 1095.34 38.7227 1191.51 38.7227 1191.51" stroke="#FFDA47" stroke-width="4" stroke-miterlimit="10" stroke-linecap="round"/>
</g>
</g>
<defs>
<clipPath id="clip0_759_7815">
<rect width="1917" height="1193" fill="white"/>
</clipPath>
<clipPath id="clip1_759_7815">
<rect width="1917" height="1194" fill="white" transform="translate(0 -1)"/>
</clipPath>
</defs>
</svg>
