<svg width="16" height="15" viewBox="0 0 16 15" fill="none" xmlns="http://www.w3.org/2000/svg">
<path fill-rule="evenodd" clip-rule="evenodd" d="M4.81029 2.25378C5.00702 1.28852 5.86618 0.605469 6.84986 0.605469H9.25786C10.2415 0.605469 11.1 1.28852 11.2974 2.25378C11.3192 2.36008 11.3761 2.45595 11.459 2.52599C11.5418 2.59602 11.6459 2.63614 11.7543 2.63989H11.7786C12.8124 2.68557 13.6067 2.81231 14.2699 3.24778C14.6877 3.52189 15.0472 3.8741 15.3272 4.286C15.6758 4.79736 15.829 5.38536 15.9027 6.09568C15.9749 6.79052 15.9749 7.66073 15.9749 8.76305V8.82568C15.9749 9.92799 15.9749 10.7989 15.9027 11.493C15.829 12.2034 15.6758 12.7914 15.3272 13.3035C15.0464 13.7156 14.6871 14.0684 14.2699 14.3417C13.7519 14.6814 13.1572 14.8317 12.4366 14.9032C11.7307 14.9739 10.8458 14.9739 9.72134 14.9739H6.38639C5.26197 14.9739 4.37702 14.9739 3.67113 14.9032C2.9505 14.8317 2.35587 14.6821 1.83786 14.3417C1.4206 14.0682 1.0613 13.7151 0.780497 13.3027C0.43197 12.7914 0.278707 12.2034 0.205023 11.493C0.132813 10.7989 0.132812 9.92799 0.132812 8.82568V8.76305C0.132812 7.66073 0.132813 6.79052 0.205023 6.09568C0.278707 5.38536 0.43197 4.79736 0.780497 4.286C1.0613 3.8736 1.4206 3.52056 1.83786 3.24705C2.50102 2.81231 3.29534 2.68557 4.32913 2.64063L4.34165 2.63989H4.35344C4.46188 2.63614 4.56589 2.59602 4.64876 2.52599C4.73163 2.45595 4.78852 2.36008 4.81029 2.25378ZM6.84986 1.71073C6.37829 1.71073 5.9826 2.03715 5.89344 2.4741C5.74976 3.18147 5.12197 3.73852 4.36671 3.74515C3.37344 3.78936 2.84144 3.91094 2.44355 4.17178C2.14799 4.36574 1.89338 4.61584 1.69418 4.90789C1.49081 5.20631 1.3685 5.58873 1.30365 6.20989C1.23881 6.84063 1.23808 7.6541 1.23808 8.79473C1.23808 9.93536 1.23808 10.7481 1.30439 11.3788C1.3685 12 1.49081 12.3824 1.69492 12.6816C1.89239 12.9719 2.1466 13.2224 2.44429 13.4177C2.75155 13.6188 3.14502 13.7404 3.78092 13.8038C4.42492 13.8679 5.2546 13.8686 6.4166 13.8686H9.69113C10.8524 13.8686 11.6821 13.8686 12.3268 13.8038C12.9627 13.7404 13.3562 13.6196 13.6634 13.4177C13.9611 13.2224 14.2161 12.9719 14.4135 12.6808C14.6169 12.3824 14.7392 12 14.8041 11.3788C14.8689 10.7481 14.8697 9.93463 14.8697 8.79473C14.8697 7.6541 14.8697 6.84063 14.8033 6.20989C14.7392 5.58873 14.6169 5.20631 14.4128 4.90789C14.2138 4.61545 13.9592 4.36507 13.6634 4.17105C13.267 3.91094 12.735 3.78936 11.7403 3.74515C10.9858 3.73778 10.358 3.18221 10.2143 2.4741C10.1671 2.25619 10.0462 2.06124 9.87196 1.92216C9.69771 1.78308 9.4808 1.7084 9.25786 1.71073H6.84986ZM8.05386 6.86863C7.61416 6.86863 7.19247 7.0433 6.88156 7.35421C6.57064 7.66513 6.39597 8.08682 6.39597 8.52652C6.39597 8.96622 6.57064 9.38791 6.88156 9.69883C7.19247 10.0097 7.61416 10.1844 8.05386 10.1844C8.49357 10.1844 8.91526 10.0097 9.22617 9.69883C9.53709 9.38791 9.71176 8.96622 9.71176 8.52652C9.71176 8.08682 9.53709 7.66513 9.22617 7.35421C8.91526 7.0433 8.49357 6.86863 8.05386 6.86863ZM5.29071 8.52652C5.29071 7.79369 5.58182 7.09087 6.10002 6.57267C6.61821 6.05448 7.32103 5.76336 8.05386 5.76336C8.7867 5.76336 9.48952 6.05448 10.0077 6.57267C10.5259 7.09087 10.817 7.79369 10.817 8.52652C10.817 9.25936 10.5259 9.96218 10.0077 10.4804C9.48952 10.9986 8.7867 11.2897 8.05386 11.2897C7.32103 11.2897 6.61821 10.9986 6.10002 10.4804C5.58182 9.96218 5.29071 9.25936 5.29071 8.52652ZM11.9223 6.316C11.9223 6.16943 11.9805 6.02886 12.0841 5.92523C12.1878 5.82159 12.3284 5.76336 12.4749 5.76336H13.2118C13.3583 5.76336 13.4989 5.82159 13.6025 5.92523C13.7062 6.02886 13.7644 6.16943 13.7644 6.316C13.7644 6.46256 13.7062 6.60313 13.6025 6.70676C13.4989 6.8104 13.3583 6.86863 13.2118 6.86863H12.4749C12.3284 6.86863 12.1878 6.8104 12.0841 6.70676C11.9805 6.60313 11.9223 6.46256 11.9223 6.316Z" fill="white"/>
</svg>
