<svg width="36" height="33" viewBox="0 0 36 33" fill="none" xmlns="http://www.w3.org/2000/svg">
<path fill-rule="evenodd" clip-rule="evenodd" d="M10.6152 4.22375C11.0602 2.095 13.0035 0.588623 15.2285 0.588623H20.6752C22.9002 0.588623 24.8418 2.095 25.2885 4.22375C25.3377 4.45816 25.4664 4.6696 25.6538 4.82405C25.8413 4.9785 26.0766 5.06698 26.3218 5.07525H26.3768C28.7152 5.176 30.5118 5.4555 32.0118 6.41587C32.9568 7.02037 33.7702 7.79712 34.4035 8.7055C35.1918 9.83325 35.5385 11.13 35.7052 12.6965C35.8685 14.2289 35.8685 16.148 35.8685 18.579V18.7171C35.8685 21.1481 35.8685 23.0689 35.7052 24.5996C35.5385 26.1661 35.1918 27.4629 34.4035 28.5922C33.7682 29.5011 32.9555 30.2792 32.0118 30.8819C30.8402 31.631 29.4952 31.9625 27.8652 32.1201C26.2685 32.2761 24.2668 32.2761 21.7235 32.2761H14.1802C11.6368 32.2761 9.63516 32.2761 8.03849 32.1201C6.40849 31.9625 5.06349 31.6326 3.89182 30.8819C2.948 30.2787 2.13531 29.5001 1.50016 28.5906C0.711823 27.4629 0.365156 26.1661 0.19849 24.5996C0.0351563 23.0689 0.0351562 21.1481 0.0351562 18.7171V18.579C0.0351562 16.148 0.0351563 14.2289 0.19849 12.6965C0.365156 11.13 0.711823 9.83325 1.50016 8.7055C2.13531 7.79601 2.948 7.01744 3.89182 6.41425C5.39182 5.4555 7.18849 5.176 9.52682 5.07687L9.55516 5.07525H9.58182C9.82709 5.06698 10.0624 4.9785 10.2498 4.82405C10.4372 4.6696 10.5659 4.45816 10.6152 4.22375ZM15.2285 3.02612C14.1618 3.02612 13.2668 3.746 13.0652 4.70962C12.7402 6.26962 11.3202 7.49812 9.61182 7.51275C7.36516 7.61025 6.16182 7.87837 5.26182 8.45362C4.59329 8.88136 4.0174 9.43292 3.56682 10.077C3.10682 10.7351 2.83016 11.5785 2.68349 12.9484C2.53682 14.3394 2.53516 16.1334 2.53516 18.6489C2.53516 21.1644 2.53516 22.9567 2.68516 24.3477C2.83016 25.7176 3.10682 26.561 3.56849 27.2207C4.01516 27.861 4.59016 28.4135 5.26349 28.8441C5.95849 29.2877 6.84849 29.5559 8.28682 29.6956C9.74349 29.837 11.6202 29.8386 14.2485 29.8386H21.6552C24.2818 29.8386 26.1585 29.8386 27.6168 29.6956C29.0552 29.5559 29.9452 29.2894 30.6402 28.8441C31.3135 28.4135 31.8902 27.861 32.3368 27.2191C32.7968 26.561 33.0735 25.7176 33.2202 24.3477C33.3668 22.9567 33.3685 21.1627 33.3685 18.6489C33.3685 16.1334 33.3685 14.3394 33.2185 12.9484C33.0735 11.5785 32.7968 10.7351 32.3352 10.077C31.8851 9.43206 31.3091 8.87988 30.6402 8.452C29.7435 7.87837 28.5402 7.61025 26.2902 7.51275C24.5835 7.4965 23.1635 6.27125 22.8385 4.70962C22.7318 4.22906 22.4583 3.79912 22.0642 3.4924C21.67 3.18568 21.1794 3.02099 20.6752 3.02612H15.2285ZM17.9518 14.4011C16.9573 14.4011 16.0034 14.7863 15.3002 15.472C14.5969 16.1577 14.2018 17.0877 14.2018 18.0574C14.2018 19.0271 14.5969 19.9571 15.3002 20.6427C16.0034 21.3284 16.9573 21.7136 17.9518 21.7136C18.9464 21.7136 19.9002 21.3284 20.6035 20.6427C21.3067 19.9571 21.7018 19.0271 21.7018 18.0574C21.7018 17.0877 21.3067 16.1577 20.6035 15.472C19.9002 14.7863 18.9464 14.4011 17.9518 14.4011ZM11.7018 18.0574C11.7018 16.4412 12.3603 14.8912 13.5324 13.7484C14.7045 12.6056 16.2942 11.9636 17.9518 11.9636C19.6094 11.9636 21.1991 12.6056 22.3712 13.7484C23.5433 14.8912 24.2018 16.4412 24.2018 18.0574C24.2018 19.6735 23.5433 21.2235 22.3712 22.3663C21.1991 23.5091 19.6094 24.1511 17.9518 24.1511C16.2942 24.1511 14.7045 23.5091 13.5324 22.3663C12.3603 21.2235 11.7018 19.6735 11.7018 18.0574ZM26.7018 13.1824C26.7018 12.8591 26.8335 12.5491 27.0679 12.3206C27.3024 12.092 27.6203 11.9636 27.9518 11.9636H29.6185C29.95 11.9636 30.268 12.092 30.5024 12.3206C30.7368 12.5491 30.8685 12.8591 30.8685 13.1824C30.8685 13.5056 30.7368 13.8156 30.5024 14.0442C30.268 14.2727 29.95 14.4011 29.6185 14.4011H27.9518C27.6203 14.4011 27.3024 14.2727 27.0679 14.0442C26.8335 13.8156 26.7018 13.5056 26.7018 13.1824Z" fill="#5E17EB"/>
</svg>
