<svg width="25" height="25" viewBox="0 0 25 25" fill="none" xmlns="http://www.w3.org/2000/svg">
<path d="M17.957 9.10205V7.10205C17.957 6.57162 17.7463 6.06291 17.3712 5.68784C16.9962 5.31276 16.4875 5.10205 15.957 5.10205H5.95703C5.4266 5.10205 4.91789 5.31276 4.54282 5.68784C4.16774 6.06291 3.95703 6.57162 3.95703 7.10205V13.102C3.95703 13.6325 4.16774 14.1412 4.54282 14.5163C4.91789 14.8913 5.4266 15.102 5.95703 15.102H7.95703M9.95703 9.10205H19.957C21.0616 9.10205 21.957 9.99748 21.957 11.1021V17.1021C21.957 18.2066 21.0616 19.102 19.957 19.102H9.95703C8.85246 19.102 7.95703 18.2066 7.95703 17.1021V11.1021C7.95703 9.99748 8.85246 9.10205 9.95703 9.10205ZM16.957 14.1021C16.957 15.2066 16.0616 16.1021 14.957 16.1021C13.8525 16.1021 12.957 15.2066 12.957 14.1021C12.957 12.9975 13.8525 12.1021 14.957 12.1021C16.0616 12.1021 16.957 12.9975 16.957 14.1021Z" stroke="black" stroke-width="2" stroke-linecap="round" stroke-linejoin="round"/>
</svg>
