<svg width="80" height="81" viewBox="0 0 80 81" fill="none" xmlns="http://www.w3.org/2000/svg">
<path d="M28 52.5L52 28.5M29.8463 30.3311L29.7992 30.2835M50.2147 50.909L50.1676 50.8613M26.4095 15.1244L23.0165 15.3311C18.6117 15.5993 15.0993 19.1117 14.8311 23.5165L14.6244 26.9095C14.5059 28.8559 13.7393 30.7066 12.4468 32.1667L10.1937 34.712C7.26876 38.0164 7.26876 42.9836 10.1937 46.288L12.4468 48.8333C13.7393 50.2934 14.5059 52.1441 14.6244 54.0905L14.8311 57.4835C15.0993 61.8883 18.6117 65.4007 23.0165 65.6689L26.4095 65.8756C28.3559 65.9941 30.2066 66.7607 31.6667 68.0532L34.212 70.3063C37.5164 73.2312 42.4836 73.2312 45.788 70.3063L48.3333 68.0532C49.7934 66.7607 51.6441 65.9941 53.5905 65.8756L56.9835 65.6689C61.3883 65.4007 64.9007 61.8883 65.1689 57.4835L65.3756 54.0905C65.4941 52.1441 66.2607 50.2934 67.5532 48.8333L69.8063 46.288C72.7312 42.9836 72.7312 38.0164 69.8063 34.712L67.5532 32.1667C66.2607 30.7066 65.4941 28.8559 65.3756 26.9095L65.1689 23.5165C64.9007 19.1117 61.3883 15.5993 56.9835 15.3311L53.5905 15.1244C51.6441 15.0059 49.7934 14.2393 48.3333 12.9468L45.788 10.6937C42.4836 7.76876 37.5164 7.76876 34.212 10.6937L31.6667 12.9468C30.2066 14.2393 28.3559 15.0059 26.4095 15.1244Z" stroke="black" stroke-width="7" stroke-linecap="round"/>
</svg>
