<svg width="25" height="26" viewBox="0 0 25 26" fill="none" xmlns="http://www.w3.org/2000/svg">
<path d="M12.3595 21.2703H21.5861M3.13281 21.2703H4.84953C5.35103 21.2703 5.60178 21.2703 5.83776 21.2137C6.04697 21.1634 6.24697 21.0806 6.43042 20.9682C6.63734 20.8414 6.81465 20.6641 7.16926 20.3095L20.0484 7.4303C20.8977 6.58101 20.8977 5.20403 20.0484 4.35474C19.1991 3.50545 17.8221 3.50545 16.9729 4.35474L4.09368 17.2339C3.73906 17.5885 3.56175 17.7658 3.43496 17.9727C3.32254 18.1562 3.23969 18.3562 3.18946 18.5654C3.13281 18.8014 3.13281 19.0521 3.13281 19.5536V21.2703Z" stroke="white" stroke-width="1.5" stroke-linecap="round" stroke-linejoin="round"/>
</svg>
