<svg width="16" height="16" viewBox="0 0 16 16" fill="none" xmlns="http://www.w3.org/2000/svg">
<path d="M1.92774 5.5625C1.51352 5.5625 1.17774 5.89829 1.17774 6.3125C1.17774 6.72671 1.51352 7.0625 1.92774 7.0625V5.5625ZM13.7402 7.0625C14.1545 7.0625 14.4902 6.72671 14.4902 6.3125C14.4902 5.89829 14.1545 5.5625 13.7402 5.5625V7.0625ZM1.99859 9.35931C1.58438 9.35931 1.24859 9.69509 1.24859 10.1093C1.24859 10.5235 1.58438 10.8593 1.99859 10.8593V9.35931ZM13.8111 10.8593C14.2253 10.8593 14.5611 10.5235 14.5611 10.1093C14.5611 9.69509 14.2253 9.35931 13.8111 9.35931V10.8593ZM13.834 8C13.834 11.3137 11.1477 14 7.83398 14V15.5C11.9761 15.5 15.334 12.1421 15.334 8H13.834ZM7.83398 14C4.52028 14 1.83398 11.3137 1.83398 8H0.333984C0.333984 12.1421 3.69185 15.5 7.83398 15.5V14ZM1.83398 8C1.83398 4.68629 4.52028 2 7.83398 2V0.5C3.69185 0.5 0.333984 3.85786 0.333984 8H1.83398ZM7.83398 2C11.1477 2 13.834 4.68629 13.834 8H15.334C15.334 3.85786 11.9761 0.5 7.83398 0.5V2ZM7.83398 14C7.67439 14 7.46323 13.9292 7.20579 13.6803C6.94474 13.428 6.67539 13.0266 6.43293 12.4724C5.94897 11.3662 5.63086 9.78554 5.63086 8H4.13086C4.13086 9.94238 4.47383 11.7367 5.05869 13.0736C5.35064 13.7409 5.71763 14.328 6.1632 14.7588C6.61237 15.193 7.17809 15.5 7.83398 15.5V14ZM5.63086 8C5.63086 6.21446 5.94897 4.63383 6.43293 3.52764C6.67539 2.97344 6.94474 2.57204 7.20579 2.31966C7.46323 2.07077 7.67439 2 7.83398 2V0.5C7.17809 0.5 6.61237 0.806986 6.1632 1.24124C5.71763 1.672 5.35064 2.25911 5.05869 2.92642C4.47383 4.26325 4.13086 6.05762 4.13086 8H5.63086ZM7.83398 15.5C8.48987 15.5 9.0556 15.193 9.50477 14.7588C9.95034 14.328 10.3173 13.7409 10.6093 13.0736C11.1941 11.7367 11.5371 9.94238 11.5371 8H10.0371C10.0371 9.78554 9.719 11.3662 9.23504 12.4724C8.99258 13.0266 8.72323 13.428 8.46218 13.6803C8.20474 13.9292 7.99358 14 7.83398 14V15.5ZM11.5371 8C11.5371 6.05762 11.1941 4.26325 10.6093 2.92642C10.3173 2.25911 9.95034 1.672 9.50477 1.24124C9.0556 0.806986 8.48987 0.5 7.83398 0.5V2C7.99358 2 8.20474 2.07077 8.46218 2.31966C8.72323 2.57204 8.99258 2.97344 9.23504 3.52764C9.719 4.63383 10.0371 6.21446 10.0371 8H11.5371ZM1.92774 7.0625H13.7402V5.5625H1.92774V7.0625ZM1.99859 10.8593H13.8111V9.35931H1.99859V10.8593Z" fill="black"/>
</svg>
