<svg width="19" height="18" viewBox="0 0 19 18" fill="none" xmlns="http://www.w3.org/2000/svg">
<g clip-path="url(#clip0_977_20845)">
<path d="M14.6152 0H5.05273C2.72278 0 0.833984 1.8888 0.833984 4.21875V13.7812C0.833984 16.1112 2.72278 18 5.05273 18H14.6152C16.9452 18 18.834 16.1112 18.834 13.7812V4.21875C18.834 1.8888 16.9452 0 14.6152 0Z" fill="url(#paint0_radial_977_20845)"/>
<path d="M14.6152 0H5.05273C2.72278 0 0.833984 1.8888 0.833984 4.21875V13.7812C0.833984 16.1112 2.72278 18 5.05273 18H14.6152C16.9452 18 18.834 16.1112 18.834 13.7812V4.21875C18.834 1.8888 16.9452 0 14.6152 0Z" fill="url(#paint1_radial_977_20845)"/>
<path d="M9.83462 1.96875C7.92507 1.96875 7.68538 1.97712 6.93542 2.01122C6.18688 2.04553 5.67591 2.16401 5.22887 2.33789C4.76635 2.51747 4.37408 2.75773 3.98328 3.14866C3.59213 3.53953 3.35188 3.9318 3.17173 4.39411C2.99736 4.8413 2.87874 5.35247 2.84506 6.10066C2.81152 6.85069 2.80273 7.09045 2.80273 9.00007C2.80273 10.9097 2.81117 11.1486 2.8452 11.8986C2.87966 12.6471 2.99813 13.1581 3.17188 13.6051C3.35159 14.0676 3.59185 14.4599 3.98279 14.8507C4.37352 15.2419 4.76579 15.4827 5.22795 15.6622C5.67535 15.8361 6.18638 15.9546 6.93479 15.9889C7.68481 16.023 7.9243 16.0314 9.83377 16.0314C11.7435 16.0314 11.9825 16.023 12.7324 15.9889C13.481 15.9546 13.9925 15.8361 14.4399 15.6622C14.9022 15.4827 15.2939 15.2419 15.6845 14.8507C16.0757 14.4599 16.3159 14.0676 16.4961 13.6053C16.6689 13.1581 16.7876 12.647 16.8228 11.8987C16.8564 11.1488 16.8652 10.9097 16.8652 9.00007C16.8652 7.09045 16.8564 6.85083 16.8228 6.1008C16.7876 5.35226 16.6689 4.84137 16.4961 4.39432C16.3159 3.9318 16.0757 3.53953 15.6845 3.14866C15.2935 2.75759 14.9023 2.51733 14.4395 2.33796C13.9912 2.16401 13.48 2.04546 12.7314 2.01122C11.9814 1.97712 11.7426 1.96875 9.83244 1.96875H9.83462ZM9.20384 3.23585C9.39109 3.23557 9.59998 3.23585 9.83462 3.23585C11.712 3.23585 11.9345 3.2426 12.6759 3.27628C13.3614 3.30764 13.7335 3.42218 13.9814 3.51844C14.3095 3.64584 14.5434 3.79821 14.7894 4.04437C15.0355 4.29047 15.1878 4.52482 15.3155 4.85297C15.4118 5.10047 15.5265 5.47256 15.5577 6.15811C15.5914 6.89934 15.5987 7.12195 15.5987 8.99845C15.5987 10.875 15.5914 11.0976 15.5577 11.8388C15.5263 12.5243 15.4118 12.8964 15.3155 13.144C15.1881 13.4722 15.0355 13.7058 14.7894 13.9518C14.5433 14.1979 14.3097 14.3501 13.9814 14.4776C13.7338 14.5743 13.3614 14.6886 12.6759 14.7199C11.9346 14.7536 11.712 14.7609 9.83462 14.7609C7.95713 14.7609 7.73459 14.7536 6.99343 14.7199C6.30788 14.6883 5.93579 14.5737 5.68773 14.4775C5.35965 14.35 5.12523 14.1977 4.87913 13.9516C4.63304 13.7055 4.48074 13.4717 4.35298 13.1434C4.25673 12.8959 4.14205 12.5238 4.11083 11.8382C4.07715 11.097 4.0704 10.8744 4.0704 8.9967C4.0704 7.11907 4.07715 6.89759 4.11083 6.15635C4.14219 5.4708 4.25673 5.09871 4.35298 4.85086C4.48046 4.52271 4.63304 4.28836 4.8792 4.04227C5.1253 3.79617 5.35965 3.6438 5.6878 3.51612C5.93565 3.41944 6.30788 3.30518 6.99343 3.27368C7.64206 3.24436 7.89343 3.23557 9.20384 3.23409V3.23585ZM13.5879 4.40332C13.1221 4.40332 12.7441 4.7809 12.7441 5.24679C12.7441 5.71261 13.1221 6.09054 13.5879 6.09054C14.0537 6.09054 14.4316 5.71261 14.4316 5.24679C14.4316 4.78097 14.0537 4.40304 13.5879 4.40304V4.40332ZM9.83462 5.38917C7.84055 5.38917 6.22379 7.00594 6.22379 9.00007C6.22379 10.9942 7.84055 12.6102 9.83462 12.6102C11.8288 12.6102 13.445 10.9942 13.445 9.00007C13.445 7.00601 11.8286 5.38917 9.83448 5.38917H9.83462ZM9.83462 6.65627C11.129 6.65627 12.1784 7.70555 12.1784 9.00007C12.1784 10.2945 11.129 11.3439 9.83462 11.3439C8.54016 11.3439 7.49089 10.2945 7.49089 9.00007C7.49089 7.70555 8.54016 6.65627 9.83462 6.65627Z" fill="white"/>
</g>
<defs>
<radialGradient id="paint0_radial_977_20845" cx="0" cy="0" r="1" gradientUnits="userSpaceOnUse" gradientTransform="translate(5.61523 19.3864) rotate(-90) scale(17.8393 16.592)">
<stop stop-color="#FFDD55"/>
<stop offset="0.1" stop-color="#FFDD55"/>
<stop offset="0.5" stop-color="#FF543E"/>
<stop offset="1" stop-color="#C837AB"/>
</radialGradient>
<radialGradient id="paint1_radial_977_20845" cx="0" cy="0" r="1" gradientUnits="userSpaceOnUse" gradientTransform="translate(-2.18109 1.29663) rotate(78.681) scale(7.97428 32.8702)">
<stop stop-color="#3771C8"/>
<stop offset="0.128" stop-color="#3771C8"/>
<stop offset="1" stop-color="#6600FF" stop-opacity="0"/>
</radialGradient>
<clipPath id="clip0_977_20845">
<rect width="18" height="18" fill="white" transform="translate(0.833984)"/>
</clipPath>
</defs>
</svg>
