<svg width="25" height="25" viewBox="0 0 25 25" fill="none" xmlns="http://www.w3.org/2000/svg">
<path d="M5.32208 21.3365V20.1005C5.32933 19.9965 5.31433 19.8922 5.27809 19.7945C5.24185 19.6968 5.18519 19.608 5.11189 19.5339C5.0386 19.4598 4.95035 19.4022 4.85304 19.3649C4.75573 19.3277 4.65159 19.3116 4.54756 19.3177C4.41142 19.3089 4.27539 19.3367 4.15365 19.3983C4.03192 19.4598 3.92893 19.553 3.85543 19.6679C3.78844 19.5564 3.69262 19.465 3.57806 19.4034C3.46351 19.3418 3.33445 19.3122 3.20449 19.3177C3.0912 19.312 2.97839 19.336 2.87722 19.3873C2.77606 19.4386 2.69004 19.5155 2.6277 19.6102V19.3672H2.19922V21.3365H2.6318V20.2447C2.62245 20.1773 2.62813 20.1087 2.64845 20.0438C2.66876 19.9789 2.70319 19.9193 2.74927 19.8693C2.79536 19.8192 2.85195 19.78 2.91498 19.7545C2.97801 19.7289 3.04593 19.7177 3.11384 19.7215C3.39811 19.7215 3.54232 19.9069 3.54232 20.2406V21.3365H3.97491V20.2447C3.96626 20.1774 3.97243 20.1091 3.993 20.0445C4.01357 19.9799 4.04804 19.9206 4.09397 19.8707C4.13991 19.8209 4.19621 19.7817 4.25891 19.7559C4.32162 19.7301 4.38921 19.7183 4.45693 19.7215C4.74942 19.7215 4.8895 19.9069 4.8895 20.2406V21.3365H5.32208ZM11.7244 19.3672H11.024V18.7698H10.5914V19.3672H10.1918V19.7586H10.5914V20.6567C10.5914 21.114 10.7686 21.3859 11.2753 21.3859C11.4646 21.3865 11.6503 21.3336 11.8109 21.2335L11.6873 20.8668C11.5724 20.9353 11.442 20.9736 11.3083 20.978C11.094 20.978 11.024 20.8462 11.024 20.6485V19.7586H11.7244V19.3672ZM15.3787 19.3177C15.2742 19.3146 15.1709 19.3398 15.0795 19.3906C14.9882 19.4413 14.9122 19.5158 14.8596 19.6061V19.3672H14.4352V21.3365H14.8637V20.2323C14.8637 19.9069 15.0038 19.7256 15.284 19.7256C15.3756 19.7243 15.4666 19.7411 15.5517 19.775L15.6836 19.3713C15.5857 19.3363 15.4826 19.3182 15.3787 19.3177ZM9.85396 19.5237C9.61143 19.3795 9.33258 19.308 9.05058 19.3177C8.55207 19.3177 8.23074 19.5567 8.23074 19.9481C8.23074 20.2694 8.46968 20.4672 8.91048 20.529L9.11237 20.5578C9.34719 20.5907 9.45844 20.6525 9.45844 20.7638C9.45844 20.9162 9.30186 21.0028 9.00937 21.0028C8.77409 21.0095 8.54336 20.937 8.35431 20.7967L8.15245 21.1305C8.40202 21.3048 8.70096 21.3943 9.00526 21.3859C9.57379 21.3859 9.90336 21.1181 9.90336 20.7432C9.90336 20.3971 9.64384 20.2158 9.21538 20.154L9.01352 20.1252C8.8281 20.1005 8.6798 20.0634 8.6798 19.9316C8.6798 19.7874 8.81983 19.7009 9.0547 19.7009C9.27034 19.7041 9.48161 19.7623 9.66856 19.8698L9.85396 19.5237ZM21.3319 19.3177C21.2274 19.3146 21.1241 19.3398 21.0327 19.3906C20.9414 19.4413 20.8654 19.5158 20.8128 19.6061V19.3672H20.3885V21.3365H20.8169V20.2323C20.8169 19.9069 20.957 19.7256 21.2371 19.7256C21.3288 19.7243 21.4198 19.7411 21.505 19.775L21.6368 19.3713C21.5389 19.3363 21.4358 19.3182 21.3319 19.3177ZM15.8113 20.3518C15.8056 20.4905 15.829 20.6289 15.88 20.758C15.931 20.8872 16.0085 21.0042 16.1074 21.1016C16.2064 21.199 16.3246 21.2747 16.4546 21.3236C16.5845 21.3726 16.7232 21.3938 16.8619 21.3859C17.1191 21.3988 17.3719 21.3151 17.5705 21.1511L17.3645 20.805C17.2164 20.9179 17.0357 20.98 16.8495 20.9821C16.6889 20.9724 16.5381 20.9017 16.4279 20.7846C16.3176 20.6675 16.2563 20.5127 16.2563 20.3518C16.2563 20.1909 16.3176 20.0361 16.4279 19.919C16.5381 19.8019 16.6889 19.7312 16.8495 19.7215C17.0357 19.7236 17.2164 19.7857 17.3645 19.8986L17.5705 19.5525C17.3719 19.3886 17.1191 19.3048 16.8619 19.3177C16.7233 19.3098 16.5845 19.3311 16.4546 19.38C16.3247 19.429 16.2064 19.5046 16.1075 19.602C16.0085 19.6994 15.931 19.8164 15.88 19.9455C15.829 20.0747 15.8056 20.213 15.8113 20.3518ZM19.824 20.3518V19.3672H19.3956V19.6061C19.3224 19.5119 19.2278 19.4365 19.1196 19.3863C19.0113 19.3362 18.8927 19.3126 18.7735 19.3177C18.508 19.3307 18.2577 19.4454 18.0744 19.6379C17.8911 19.8304 17.7888 20.086 17.7888 20.3518C17.7888 20.6176 17.8911 20.8733 18.0744 21.0658C18.2577 21.2583 18.508 21.3729 18.7735 21.3859C18.8927 21.391 19.0113 21.3675 19.1196 21.3173C19.2278 21.2671 19.3224 21.1917 19.3956 21.0975V21.3365H19.824V20.3518ZM18.2296 20.3518C18.2363 20.2356 18.2768 20.1238 18.3462 20.0304C18.4156 19.9369 18.5108 19.8658 18.6201 19.8258C18.7294 19.7858 18.848 19.7787 18.9613 19.8053C19.0747 19.832 19.1777 19.8912 19.2578 19.9756C19.3378 20.0601 19.3914 20.1662 19.4119 20.2808C19.4324 20.3954 19.419 20.5134 19.3732 20.6204C19.3274 20.7274 19.2513 20.8187 19.1542 20.883C19.0572 20.9473 18.9434 20.9817 18.8271 20.9821C18.7455 20.9832 18.6645 20.9674 18.5894 20.9357C18.5142 20.904 18.4464 20.857 18.3903 20.7978C18.3341 20.7386 18.2909 20.6684 18.2633 20.5916C18.2356 20.5148 18.2242 20.4332 18.2296 20.3518ZM13.0592 19.3177C12.792 19.3318 12.5407 19.4488 12.3579 19.6442C12.1751 19.8396 12.075 20.0982 12.0788 20.3657C12.0825 20.6332 12.1897 20.8889 12.3779 21.0792C12.5661 21.2694 12.8206 21.3793 13.0881 21.3859C13.382 21.3962 13.6695 21.298 13.8956 21.1098L13.6854 20.7926C13.5227 20.923 13.3212 20.9955 13.1128 20.9986C12.9712 21.0105 12.8305 20.9669 12.7206 20.8769C12.6106 20.7869 12.54 20.6577 12.5236 20.5166H13.9862C13.9903 20.463 13.9944 20.4095 13.9944 20.3518C13.9903 19.7379 13.6113 19.3177 13.0592 19.3177ZM13.051 19.7009C13.1804 19.6983 13.3055 19.7472 13.399 19.8368C13.4924 19.9264 13.5465 20.0494 13.5495 20.1788H12.5278C12.5353 20.0466 12.5942 19.9225 12.692 19.8332C12.7898 19.7439 12.9186 19.6964 13.051 19.7009ZM23.7997 20.3518V18.5762H23.3712V19.6061C23.2981 19.5119 23.2035 19.4365 23.0952 19.3863C22.987 19.3362 22.8683 19.3126 22.7492 19.3177C22.4837 19.3307 22.2333 19.4454 22.05 19.6379C21.8667 19.8304 21.7645 20.086 21.7645 20.3518C21.7645 20.6176 21.8667 20.8733 22.05 21.0658C22.2333 21.2583 22.4837 21.3729 22.7492 21.3859C22.8683 21.391 22.987 21.3675 23.0952 21.3173C23.2035 21.2671 23.2981 21.1917 23.3712 21.0975V21.3365H23.7997V20.3518ZM24.514 21.0511C24.5406 21.0509 24.5669 21.0561 24.5915 21.0664C24.615 21.0763 24.6365 21.0905 24.6548 21.1084C24.6729 21.1263 24.6874 21.1474 24.6975 21.1708C24.7078 21.1948 24.7131 21.2206 24.7131 21.2467C24.7131 21.2728 24.7078 21.2986 24.6975 21.3226C24.6873 21.3459 24.6728 21.367 24.6548 21.3847C24.6365 21.4026 24.615 21.4169 24.5915 21.4269C24.567 21.4374 24.5406 21.4427 24.514 21.4426C24.4748 21.4429 24.4363 21.4318 24.4034 21.4105C24.3705 21.3891 24.3447 21.3586 24.329 21.3226C24.3188 21.2986 24.3135 21.2728 24.3135 21.2467C24.3135 21.2206 24.3188 21.1948 24.329 21.1708C24.3391 21.1475 24.3535 21.1263 24.3715 21.1084C24.3897 21.0904 24.4113 21.0761 24.4351 21.0664C24.4601 21.0561 24.4869 21.0509 24.514 21.0511ZM24.514 21.3994C24.5343 21.3995 24.5544 21.3954 24.573 21.3874C24.5909 21.3796 24.6072 21.3685 24.6209 21.3547C24.6494 21.326 24.6653 21.2872 24.6653 21.2468C24.6653 21.2064 24.6494 21.1676 24.6209 21.1388C24.6072 21.1251 24.5909 21.1141 24.573 21.1065C24.5543 21.0986 24.5342 21.0946 24.514 21.0947C24.4933 21.0946 24.4728 21.0986 24.4538 21.1065C24.4356 21.114 24.419 21.125 24.4051 21.1388C24.3766 21.1676 24.3606 21.2064 24.3606 21.2468C24.3606 21.2872 24.3766 21.326 24.4051 21.3547C24.4191 21.3687 24.4356 21.3797 24.4538 21.3874C24.4728 21.3954 24.4933 21.3995 24.514 21.3994ZM24.5255 21.1552C24.5447 21.1539 24.5638 21.1594 24.5795 21.1708C24.5857 21.1759 24.5906 21.1824 24.5939 21.1898C24.5972 21.1971 24.5987 21.2052 24.5984 21.2132C24.5986 21.2201 24.5974 21.227 24.5948 21.2334C24.5922 21.2398 24.5883 21.2456 24.5833 21.2504C24.5714 21.261 24.5563 21.2673 24.5403 21.2684L24.5998 21.337H24.5533L24.4982 21.2689H24.4804V21.337H24.4415V21.1552H24.5255ZM24.4804 21.1892V21.2377H24.525C24.5336 21.2381 24.5421 21.236 24.5495 21.2317C24.5525 21.2297 24.5549 21.2269 24.5565 21.2237C24.5581 21.2204 24.5588 21.2168 24.5586 21.2132C24.5588 21.2097 24.558 21.2062 24.5564 21.203C24.5549 21.1998 24.5525 21.1971 24.5495 21.1952C24.5421 21.1909 24.5336 21.1888 24.525 21.1892H24.4804ZM22.2053 20.3518C22.212 20.2356 22.2525 20.1239 22.3219 20.0304C22.3913 19.937 22.4865 19.8659 22.5958 19.8259C22.7051 19.7859 22.8237 19.7788 22.937 19.8054C23.0504 19.832 23.1534 19.8912 23.2334 19.9757C23.3135 20.0602 23.3671 20.1663 23.3876 20.2808C23.4081 20.3954 23.3946 20.5135 23.3488 20.6205C23.303 20.7275 23.2269 20.8187 23.1299 20.883C23.0328 20.9473 22.9191 20.9817 22.8027 20.9821C22.7211 20.9832 22.6402 20.9674 22.565 20.9357C22.4899 20.904 22.4221 20.857 22.366 20.7978C22.3098 20.7386 22.2666 20.6684 22.2389 20.5916C22.2113 20.5148 22.1999 20.4332 22.2053 20.3518ZM7.73634 20.3518V19.3672H7.30786V19.6061C7.23472 19.5119 7.14008 19.4365 7.03185 19.3863C6.92362 19.3362 6.80494 19.3126 6.68576 19.3177C6.42026 19.3307 6.16995 19.4454 5.98665 19.6379C5.80336 19.8304 5.70112 20.086 5.70112 20.3518C5.70112 20.6176 5.80336 20.8733 5.98665 21.0658C6.16995 21.2583 6.42026 21.3729 6.68576 21.3859C6.80495 21.391 6.92362 21.3675 7.03185 21.3173C7.14008 21.2671 7.23473 21.1917 7.30786 21.0975V21.3365H7.73634V20.3518ZM6.14196 20.3518C6.14862 20.2356 6.18914 20.1239 6.25852 20.0304C6.32791 19.937 6.42313 19.8659 6.53243 19.8259C6.64174 19.7859 6.76037 19.7788 6.87367 19.8054C6.98698 19.832 7.09001 19.8912 7.17007 19.9757C7.25013 20.0602 7.30372 20.1663 7.32422 20.2808C7.34472 20.3954 7.33123 20.5135 7.28544 20.6205C7.23964 20.7275 7.16353 20.8188 7.06648 20.883C6.96944 20.9473 6.85572 20.9817 6.73932 20.9821C6.65774 20.9832 6.57681 20.9674 6.50165 20.9357C6.42648 20.904 6.3587 20.857 6.30258 20.7978C6.24646 20.7386 6.20321 20.6684 6.17557 20.5916C6.14793 20.5148 6.13648 20.4332 6.14196 20.3518Z" fill="#231F20"/>
<path d="M16.2006 4.35938H9.71094V16.0215H16.2006V4.35938Z" fill="#FF5F00"/>
<path d="M10.1244 10.1907C10.1234 9.06756 10.3779 7.9589 10.8687 6.94866C11.3595 5.93841 12.0737 5.05306 12.9572 4.35964C11.8631 3.49963 10.549 2.9648 9.16532 2.81628C7.7816 2.66777 6.38402 2.91156 5.1323 3.51979C3.88059 4.12802 2.82525 5.07614 2.08691 6.2558C1.34858 7.43546 0.957031 8.79905 0.957031 10.1907C0.957031 11.5824 1.34858 12.946 2.08691 14.1256C2.82525 15.3053 3.88059 16.2534 5.1323 16.8616C6.38402 17.4699 7.7816 17.7137 9.16532 17.5651C10.549 17.4166 11.8631 16.8818 12.9572 16.0218C12.0737 15.3284 11.3595 14.443 10.8687 13.4328C10.3779 12.4225 10.1234 11.3139 10.1244 10.1907Z" fill="#EB001B"/>
<path d="M24.9568 10.1907C24.9569 11.5824 24.5654 12.9459 23.8271 14.1256C23.0888 15.3053 22.0335 16.2534 20.7818 16.8616C19.5301 17.4699 18.1325 17.7137 16.7488 17.5651C15.3651 17.4166 14.0511 16.8818 12.957 16.0218C13.8398 15.3277 14.5534 14.4422 15.0441 13.4321C15.5348 12.422 15.7898 11.3137 15.7898 10.1907C15.7898 9.06774 15.5348 7.95943 15.0441 6.94934C14.5534 5.93926 13.8398 5.05376 12.957 4.35964C14.0511 3.49962 15.3651 2.9648 16.7488 2.81628C18.1325 2.66777 19.5301 2.91156 20.7818 3.5198C22.0335 4.12803 23.0888 5.07617 23.8271 6.25582C24.5654 7.43548 24.9569 8.79906 24.9568 10.1907Z" fill="#F79E1B"/>
<path d="M24.2505 14.7864V14.5477H24.3467V14.499H24.1016V14.5477H24.1979V14.7864H24.2505ZM24.7265 14.7864V14.4985H24.6513L24.5649 14.6965L24.4784 14.4985H24.4032V14.7864H24.4563V14.5693L24.5374 14.7565H24.5924L24.6735 14.5688V14.7864H24.7265Z" fill="#F79E1B"/>
</svg>
