<svg width="89" height="83" viewBox="0 0 89 83" fill="none" xmlns="http://www.w3.org/2000/svg">
<g clip-path="url(#clip0_461_4210)">
<path d="M1.6493 82.4836C1.96385 82.5692 2.29803 82.5219 2.57941 82.3519C2.86078 82.1819 3.06667 81.9029 3.15246 81.5753C5.68228 71.715 15.9637 69.1595 22.1089 67.6303C23.6489 67.248 24.8647 66.9452 25.6556 66.5886C32.6556 63.4147 34.9374 58.3088 35.6202 54.5832C35.6608 54.3616 35.6447 54.1327 35.5735 53.9196C35.5024 53.7065 35.3787 53.5168 35.2149 53.3696C31.57 50.0828 28.4949 45.1488 26.5546 39.4733C26.4998 39.3105 26.4137 39.1612 26.3016 39.0345C23.7349 36.1198 22.2612 33.0383 22.2612 30.5828C22.2612 29.1486 22.7795 28.1864 23.9461 27.4603C24.1209 27.3511 24.2669 27.1983 24.3711 27.0156C24.4753 26.8329 24.5344 26.6259 24.543 26.4134C25.0858 13.3433 33.9967 3.05449 44.9265 2.98778L45.1893 3.00574C56.1732 3.16482 65.0275 13.6743 65.3444 26.9292C65.3488 27.1103 65.3901 27.2885 65.4655 27.4517C65.5408 27.6149 65.6486 27.7595 65.7816 27.8759C66.5503 28.5559 66.9089 29.418 66.9089 30.588C66.9089 32.6432 65.8602 35.1705 63.9591 37.7003C63.8685 37.8221 63.7987 37.9592 63.7528 38.1057C61.7879 44.6126 58.2609 50.3574 54.0805 53.8725C53.9074 54.0186 53.7753 54.211 53.6983 54.4292C53.6213 54.6473 53.6023 54.8832 53.6433 55.1118C54.3261 58.8347 56.6079 63.9381 63.6079 67.1171C64.4356 67.4917 65.7202 67.7842 67.3486 68.1511C73.4325 69.5264 83.6132 71.833 86.111 81.5753C86.153 81.7381 86.2252 81.8906 86.3235 82.0242C86.4219 82.1578 86.5445 82.2698 86.6843 82.3539C86.8241 82.438 86.9784 82.4926 87.1384 82.5144C87.2983 82.5362 87.4609 82.5249 87.6167 82.4811C87.7724 82.4373 87.9185 82.3618 88.0463 82.2591C88.1742 82.1563 88.2815 82.0283 88.362 81.8822C88.4425 81.7362 88.4947 81.575 88.5156 81.4079C88.5364 81.2408 88.5256 81.071 88.4837 80.9082C85.5977 69.6521 74.0637 67.0427 67.8693 65.6418C66.4325 65.3159 65.1921 65.0363 64.5879 64.7592C60.0195 62.686 57.2047 59.5275 56.21 55.3555C60.4518 51.5505 64.0009 45.6799 66.0296 39.0961C68.1837 36.1711 69.3675 33.1589 69.3675 30.5854C69.3675 28.8689 68.837 27.4372 67.7858 26.3185C67.2012 11.9398 57.3791 0.61699 45.1893 0.434819L44.8233 0.429688C32.8546 0.496398 22.9907 11.5216 22.1286 25.6514C20.5911 26.8317 19.81 28.4866 19.81 30.588C19.81 33.6233 21.4532 37.2539 24.3293 40.5843C26.3163 46.288 29.3963 51.299 33.0633 54.8065C32.0735 58.9938 29.2563 62.1626 24.6781 64.2383C24.0861 64.5077 22.9072 64.8028 21.5416 65.1415C15.3005 66.6912 3.6879 69.5777 0.779828 80.9134C0.695844 81.242 0.740262 81.5921 0.903313 81.8866C1.06636 82.181 1.3347 82.3958 1.6493 82.4836Z" fill="#BFC9D5"/>
</g>
<defs>
<clipPath id="clip0_461_4210">
<rect width="88.4211" height="82.1053" fill="white" transform="translate(0.421875 0.421875)"/>
</clipPath>
</defs>
</svg>
