<svg width="80" height="81" viewBox="0 0 80 81" fill="none" xmlns="http://www.w3.org/2000/svg">
<path d="M10.1096 18.0526L10.1096 18.0527C9.67892 20.5291 9.66699 24.0777 9.66699 30.5003C9.66699 31.296 9.35092 32.059 8.78831 32.6216C8.2257 33.1843 7.46264 33.5003 6.66699 33.5003C5.87134 33.5003 5.10828 33.1843 4.54567 32.6216C3.98306 32.059 3.66699 31.296 3.66699 30.5003V30.1803V30.1185C3.66699 24.1726 3.66698 20.0773 4.20107 17.0212L10.1096 18.0526ZM10.1096 18.0526C10.2983 16.9673 10.5597 16.1462 10.9566 15.4079C11.3544 14.6679 11.9017 13.986 12.6939 13.1939C13.9957 11.8921 15.806 11.0717 19.1001 10.6292L10.1096 18.0526ZM18.3035 4.68147L18.3038 4.68144C22.1369 4.16699 27.0141 4.16699 33.1105 4.16699H33.147H33.3337C34.1293 4.16699 34.8924 4.48306 35.455 5.04567C36.0176 5.60828 36.3337 6.37134 36.3337 7.16699C36.3337 7.96264 36.0176 8.7257 35.455 9.28831C34.8924 9.85092 34.1293 10.167 33.3337 10.167C26.9629 10.167 22.4892 10.1747 19.1002 10.6292L18.3035 4.68147ZM18.3035 4.68147C14.342 5.21553 11.0552 6.34487 8.44987 8.95367M18.3035 4.68147L8.44987 8.95367M8.44987 8.95367C6.10438 11.2992 4.80374 13.5603 4.2011 17.0211L8.44987 8.95367ZM69.891 18.0526L70.3837 17.967L69.8911 18.0527C70.3217 20.5291 70.3337 24.0777 70.3337 30.5003C70.3337 31.296 70.6497 32.059 71.2123 32.6216C71.7749 33.1843 72.538 33.5003 73.3337 33.5003C74.1293 33.5003 74.8924 33.1843 75.455 32.6216C76.0176 32.059 76.3337 31.296 76.3337 30.5003V30.1803V30.1187C76.3337 24.1725 76.3337 20.0771 75.7995 17.0209C75.1969 13.5602 73.8962 11.2992 71.5508 8.95367C68.9455 6.34487 65.6586 5.21553 61.6971 4.68147L61.6968 4.68144C57.8637 4.16699 52.9866 4.16699 46.8902 4.16699H46.8537H46.667C45.8713 4.16699 45.1083 4.48306 44.5457 5.04567C43.9831 5.60828 43.667 6.37134 43.667 7.16699C43.667 7.96264 43.9831 8.7257 44.5457 9.28831C45.1083 9.85092 45.8713 10.167 46.667 10.167C53.0378 10.167 57.5148 10.1747 60.9004 10.6292C64.1946 11.0717 66.005 11.8921 67.3068 13.1939C68.0989 13.986 68.6463 14.6679 69.0441 15.4079C69.441 16.1462 69.7024 16.9673 69.891 18.0526ZM18.3035 76.3192L18.3038 76.3192C22.1336 76.8337 27.014 76.8337 33.1102 76.8337H33.147H33.3337C34.1293 76.8337 34.8924 76.5176 35.455 75.955C36.0176 75.3924 36.3337 74.6293 36.3337 73.8337C36.3337 73.038 36.0176 72.2749 35.455 71.7123C34.8924 71.1497 34.1293 70.8337 33.3337 70.8337C26.9628 70.8337 22.4892 70.8259 19.1035 70.3714L19.037 70.867L19.1035 70.3714C15.806 69.9289 13.9956 69.1085 12.6939 67.8068C11.9019 67.0148 11.3554 66.333 10.9579 65.5929C10.5613 64.8545 10.2999 64.0332 10.1095 62.9474C9.67891 60.471 9.66699 56.9225 9.66699 50.5003C9.66699 49.7047 9.35092 48.9416 8.78831 48.379C8.2257 47.8164 7.46264 47.5003 6.66699 47.5003C5.87134 47.5003 5.10828 47.8164 4.54567 48.379C3.98306 48.9416 3.66699 49.7047 3.66699 50.5003V50.8203V50.8821C3.66699 56.8247 3.66698 60.9234 4.20107 63.9794C4.80373 67.4404 6.10443 69.7014 8.44985 72.0503L8.45034 72.0508C11.0554 74.6523 14.3417 75.7851 18.3035 76.3192ZM61.6968 76.3192L61.6971 76.3192C65.6586 75.7851 68.9455 74.6558 71.5508 72.047C73.8962 69.7015 75.1969 67.4404 75.7995 63.9797C76.3337 60.9236 76.3337 56.8282 76.3337 50.8819V50.8203V50.5003C76.3337 49.7047 76.0176 48.9416 75.455 48.379C74.8924 47.8164 74.1293 47.5003 73.3337 47.5003C72.538 47.5003 71.7749 47.8164 71.2123 48.379C70.6497 48.9416 70.3337 49.7047 70.3337 50.5003C70.3337 56.923 70.3217 60.4716 69.8911 62.948L70.3837 63.0337L69.891 62.948C69.7024 64.0334 69.441 64.8545 69.0441 65.5927C68.6463 66.3328 68.0989 67.0146 67.3068 67.8068C66.005 69.1086 64.1946 69.929 60.9005 70.3714C57.5148 70.8259 53.0378 70.8337 46.667 70.8337C45.8713 70.8337 45.1083 71.1497 44.5457 71.7123C43.9831 72.2749 43.667 73.038 43.667 73.8337C43.667 74.6293 43.9831 75.3924 44.5457 75.955C45.1083 76.5176 45.8713 76.8337 46.667 76.8337H46.8537H46.8902C52.9865 76.8337 57.8637 76.8337 61.6968 76.3192ZM6.66699 37.5003C5.87134 37.5003 5.10828 37.8164 4.54567 38.379C3.98306 38.9416 3.66699 39.7047 3.66699 40.5003C3.66699 41.296 3.98306 42.059 4.54567 42.6216C5.10828 43.1843 5.87134 43.5003 6.66699 43.5003H73.3337C74.1293 43.5003 74.8924 43.1843 75.455 42.6216C76.0176 42.059 76.3337 41.296 76.3337 40.5003C76.3337 39.7047 76.0176 38.9416 75.455 38.379C74.8924 37.8164 74.1293 37.5003 73.3337 37.5003H6.66699Z" fill="black" stroke="black"/>
</svg>
