<svg width="13" height="14" viewBox="0 0 13 14" fill="none" xmlns="http://www.w3.org/2000/svg">
<path d="M9.16279 8.18641C9.03035 8.31476 8.9695 8.50038 8.99967 8.68243L9.45427 11.1983C9.49262 11.4116 9.40262 11.6274 9.22416 11.7506C9.04927 11.8785 8.8166 11.8938 8.62586 11.7915L6.36103 10.6103C6.28228 10.5683 6.19484 10.5458 6.10535 10.5433H5.96677C5.9187 10.5504 5.87166 10.5658 5.8287 10.5893L3.56336 11.7762C3.45137 11.8324 3.32456 11.8524 3.20029 11.8324C2.89757 11.7752 2.69558 11.4867 2.74518 11.1825L3.20029 8.66658C3.23047 8.483 3.16961 8.29635 3.03717 8.16595L1.19064 6.37618C1.0362 6.22635 0.982511 6.00135 1.05308 5.79834C1.1216 5.59584 1.29649 5.44806 1.50768 5.41482L4.04916 5.04612C4.24245 5.02618 4.41223 4.90857 4.49916 4.7347L5.61904 2.43868C5.64564 2.38754 5.6799 2.3405 5.72132 2.30061L5.76734 2.26482C5.79137 2.23823 5.81899 2.21624 5.84967 2.19834L5.90541 2.17789L5.99234 2.14209H6.20762C6.3999 2.16203 6.56916 2.27709 6.65762 2.44891L7.79234 4.7347C7.87416 4.90192 8.03319 5.018 8.21677 5.04612L10.7582 5.41482C10.973 5.4455 11.1525 5.59379 11.2236 5.79834C11.2906 6.0034 11.2328 6.2284 11.0753 6.37618L9.16279 8.18641Z" fill="#FDA01C"/>
</svg>
