<svg width="80" height="81" viewBox="0 0 80 81" fill="none" xmlns="http://www.w3.org/2000/svg">
<path d="M10.0332 37.9004V52.8671C10.0332 67.8337 16.0332 73.8337 30.9999 73.8337H48.9665C63.9332 73.8337 69.9332 67.8337 69.9332 52.8671V37.9004" stroke="black" stroke-width="7" stroke-linecap="round" stroke-linejoin="round"/>
<path d="M40 40.5003C46.1 40.5003 50.6 35.5337 50 29.4337L47.8 7.16699H32.2333L30 29.4337C29.4 35.5337 33.9 40.5003 40 40.5003Z" stroke="black" stroke-width="7" stroke-linecap="round" stroke-linejoin="round"/>
<path d="M61.0337 40.5003C67.767 40.5003 72.7003 35.0337 72.0337 28.3337L71.1003 19.167C69.9003 10.5003 66.567 7.16699 57.8337 7.16699H47.667L50.0003 30.5337C50.567 36.0337 55.5337 40.5003 61.0337 40.5003Z" stroke="black" stroke-width="7" stroke-linecap="round" stroke-linejoin="round"/>
<path d="M18.7996 40.5003C24.2996 40.5003 29.2663 36.0337 29.7996 30.5337L30.5329 23.167L32.1329 7.16699H21.9663C13.2329 7.16699 9.89961 10.5003 8.69961 19.167L7.79961 28.3337C7.13294 35.0337 12.0663 40.5003 18.7996 40.5003Z" stroke="black" stroke-width="7" stroke-linecap="round" stroke-linejoin="round"/>
<path d="M40.0003 57.167C34.4337 57.167 31.667 59.9337 31.667 65.5003V73.8337H48.3337V65.5003C48.3337 59.9337 45.567 57.167 40.0003 57.167Z" stroke="black" stroke-width="7" stroke-linecap="round" stroke-linejoin="round"/>
</svg>
