<svg width="291" height="282" viewBox="0 0 291 282" fill="none" xmlns="http://www.w3.org/2000/svg">
<circle cx="151.729" cy="140.999" r="109.016" fill="#5E17EB"/>
<ellipse cx="31.812" cy="16.4101" rx="15.5737" ry="15.5737" fill="#5E17EB"/>
<ellipse cx="166.524" cy="7.8446" rx="3.89343" ry="3.89343" fill="#5E17EB"/>
<ellipse cx="16.238" cy="207.967" rx="7.78685" ry="7.78685" fill="#5E17EB"/>
<ellipse cx="278.655" cy="43.6637" rx="11.6803" ry="11.6803" fill="#5E17EB"/>
<ellipse cx="258.409" cy="250.794" rx="3.89343" ry="3.89343" fill="#5E17EB"/>
<ellipse cx="266.196" cy="172.926" rx="3.89343" ry="3.89343" fill="#5E17EB"/>
<ellipse cx="190.665" cy="267.147" rx="1.55737" ry="1.55737" fill="#5E17EB"/>
<circle cx="97.9996" cy="275.713" r="5.4508" fill="#5E17EB"/>
<ellipse cx="2.22143" cy="117.639" rx="1.55737" ry="1.55737" fill="#5E17EB"/>
<path d="M172.006 94.2773C187.844 94.2773 198.45 105.397 198.45 121.936V160.112C198.45 176.6 187.844 187.72 172.006 187.72H131.499C115.66 187.72 105.008 176.6 105.008 160.112V121.936C105.008 105.397 115.66 94.2773 131.499 94.2773H172.006ZM171.258 126.982C169.67 125.394 167.053 125.394 165.465 126.982L146.169 146.278L137.993 138.102C136.404 136.513 133.788 136.513 132.199 138.102C130.611 139.69 130.611 142.26 132.199 143.895L143.319 154.968C144.113 155.762 145.141 156.136 146.169 156.136C147.244 156.136 148.272 155.762 149.066 154.968L171.258 132.776C172.847 131.187 172.847 128.617 171.258 126.982Z" fill="white"/>
</svg>
