<svg width="380" height="369" viewBox="0 0 380 369" fill="none" xmlns="http://www.w3.org/2000/svg">
<circle cx="197.855" cy="184.854" r="142.855" fill="#5E17EB"/>
<circle cx="41.025" cy="21.2375" r="20.4078" fill="#5E17EB"/>
<circle cx="217.551" cy="10.0132" r="5.10195" fill="#5E17EB"/>
<circle cx="20.618" cy="272.253" r="10.2039" fill="#5E17EB"/>
<ellipse cx="364.489" cy="56.9509" rx="15.3058" ry="15.3058" fill="#5E17EB"/>
<circle cx="337.957" cy="328.375" r="5.10195" fill="#5E17EB"/>
<circle cx="348.164" cy="226.336" r="5.10195" fill="#5E17EB"/>
<circle cx="249.185" cy="349.803" r="2.04078" fill="#5E17EB"/>
<circle cx="127.752" cy="361.027" r="7.14273" fill="#5E17EB"/>
<circle cx="2.24781" cy="153.888" r="2.04078" fill="#5E17EB"/>
<path d="M251.777 184.5C251.777 213.702 228.266 237.375 199.264 237.375C170.261 237.375 146.75 213.702 146.75 184.5C146.75 155.298 170.261 131.625 199.264 131.625C218.701 131.625 235.672 142.258 244.752 158.062M237.371 190.302L250.5 177.084L263.628 190.302M218.937 198.918L199.25 192.309V164.672" stroke="white" stroke-width="10" stroke-linecap="round" stroke-linejoin="round"/>
</svg>
