<svg width="34" height="34" viewBox="0 0 34 34" fill="none" xmlns="http://www.w3.org/2000/svg">
<circle cx="17.4074" cy="17.1681" r="16.5929" fill="#1814F3"/>
<g clip-path="url(#clip0_1_2046)">
<path d="M25.5972 14.2892L24.163 15.7235C24.0167 15.8697 23.7803 15.8697 23.6341 15.7235L20.1807 12.2701C20.0344 12.1239 20.0344 11.8874 20.1807 11.7412L21.6149 10.3069C22.1967 9.72516 23.1425 9.72516 23.7274 10.3069L25.5972 12.1768C26.1821 12.7586 26.1821 13.7043 25.5972 14.2892ZM18.9486 12.9732L10.7787 21.1432L10.1191 24.9232C10.0289 25.4335 10.4738 25.8753 10.984 25.7881L14.7641 25.1255L22.934 16.9555C23.0803 16.8093 23.0803 16.5729 22.934 16.4266L19.4806 12.9732C19.3313 12.827 19.0949 12.827 18.9486 12.9732ZM13.9676 20.4431C13.7965 20.272 13.7965 19.9983 13.9676 19.8271L18.7589 15.0359C18.93 14.8648 19.2038 14.8648 19.3749 15.0359C19.546 15.207 19.546 15.4808 19.3749 15.6519L14.5837 20.4431C14.4125 20.6143 14.1388 20.6143 13.9676 20.4431ZM12.8445 23.0596H14.3379V24.189L12.3312 24.5406L11.3636 23.573L11.7152 21.5663H12.8445V23.0596Z" fill="white"/>
</g>
<defs>
<clipPath id="clip0_1_2046">
<rect width="15.9292" height="15.9292" fill="white" transform="translate(10.1064 9.86719)"/>
</clipPath>
</defs>
</svg>
