<svg width="66" height="53" viewBox="0 0 66 53" fill="none" xmlns="http://www.w3.org/2000/svg">
<g clip-path="url(#clip0_28_222)">
<path d="M51.9633 52.6121C50.9558 52.7873 49.8741 52.8892 48.7072 52.8892C48.5546 52.8892 48.4043 52.8892 48.2561 52.8094C43.3619 52.7296 39.2238 51.3662 35.9093 48.8809C33.1245 46.7149 31.695 44.3892 31.0151 43.1056C30.8625 42.8439 30.7368 42.5557 30.638 42.2587C30.0546 41.2809 29.5048 40.27 28.9707 39.2502C27.1239 35.714 25.4408 32.0759 23.5625 28.5619C23.0845 27.6662 22.5639 26.8038 21.9962 25.9835C21.4037 25.13 20.7597 24.3252 20.0483 23.5759C19.53 23.0238 18.9757 22.505 18.3832 22.0217C18.105 21.7912 17.8155 21.5717 17.5193 21.3588C17.25 21.166 16.9785 20.9952 16.7047 20.8423C15.4772 20.155 14.216 19.8579 13.0155 19.9178C12.5442 19.9399 12.0842 20.0153 11.6399 20.1461C10.7983 20.3878 10.0084 20.8134 9.31052 21.4143C8.56549 22.0528 7.92369 22.8841 7.43224 23.8995L7.43 23.9018C7.23925 24.2964 7.0687 24.722 6.92508 25.1721C6.16659 27.5443 6.23167 29.7303 7.02382 31.7544C7.29087 32.435 7.63869 33.0957 8.06731 33.7409C8.29396 34.0823 8.54081 34.4215 8.81234 34.754C8.94698 34.9159 9.06592 35.0844 9.1669 35.2507C9.59551 35.9313 9.80197 36.6474 9.78626 37.3369C9.77504 38.1949 9.42272 39.0085 8.73828 39.6492C7.7105 40.6158 6.30572 40.7976 5.16125 40.0838C4.79996 39.8598 4.4656 39.5472 4.17836 39.1393C3.9719 38.8489 3.76994 38.5584 3.56797 38.2614C3.26951 37.8268 2.97554 37.3812 2.69728 36.9289C2.30457 36.2927 1.93654 35.6431 1.61564 34.9735C1.3845 34.4924 1.17356 34.0047 0.996281 33.5059C-1.28817 27.1098 1.00975 19.5209 6.1621 15.6345C6.6558 15.262 7.1652 14.9339 7.68358 14.6479C8.20644 14.3597 8.73828 14.1181 9.2791 13.9185C9.84909 13.7079 10.4325 13.5461 11.0205 13.433C11.6241 13.3155 12.2368 13.2468 12.8539 13.2313C14.0881 13.198 15.3448 13.3621 16.5925 13.7256C17.1625 13.8897 17.7302 14.0981 18.2957 14.3464C18.9084 14.6125 19.5143 14.9295 20.1134 15.2931C20.643 15.6145 21.1704 15.9737 21.6865 16.3705C21.9154 16.5457 22.142 16.7275 22.3687 16.9182C25.8425 19.8357 28.2751 23.6224 30.3418 27.7172C31.0173 29.0541 32.3705 31.3709 33.755 33.6433C37.6934 42.017 42.3969 49.812 51.9633 52.6121Z" fill="#FFEA50" stroke="#5E17EB" stroke-miterlimit="10"/>
<path d="M59.4203 25.3473C56.3863 23.0194 52.7128 22.2767 48.0541 21.3367C44.7105 20.6627 41.6877 20.5297 40.3076 18.2972C39.5648 17.0978 39.4975 15.6279 39.4818 15.271C39.4459 14.4906 39.4885 12.5618 40.7115 10.8879C42.5315 8.40042 45.7315 8.16764 47.3562 8.05013C47.805 8.01688 50.6505 7.84617 53.57 9.3094C54.2028 9.62643 55.455 10.2538 56.6287 11.4799C56.7611 11.6173 56.8755 11.7237 57.8741 12.8677C59.5055 14.7322 59.7569 15.3175 60.6792 15.8895C61.3569 16.3085 61.8483 16.4172 62.0413 16.4526C62.0907 16.4615 63.0938 16.6389 63.9353 16.2997C65.4343 15.6944 65.9774 13.6259 65.9998 12.3002C66.029 10.5509 65.1718 9.34709 63.8882 7.54687C63.0332 6.34747 61.5768 4.3455 58.8727 2.65835C56.2292 1.01111 53.8258 0.552184 52.5063 0.314963C48.7677 -0.354576 45.8123 0.226282 45.0919 0.379257C43.6535 0.685205 36.7732 2.33023 33.25 8.64873C32.5836 9.8437 31.1092 12.5728 31.3606 16.293C31.3673 16.4016 31.3785 16.5502 31.3965 16.7342C31.3965 16.7342 31.7937 20.6472 34.5045 23.904C37.8638 27.9368 44.4434 28.848 48.9697 29.4754C51.3125 29.7991 53.0023 29.819 54.7414 31.147C56.2786 32.3198 57.7754 34.4526 57.7641 37.1352C57.7507 40.6558 55.1521 42.7442 54.692 43.1123C53.3007 44.2341 51.2811 45.0455 48.3526 44.9923C45.1166 44.9125 42.4058 44.1099 40.2986 42.5868C39.1901 41.7288 38.454 40.8354 37.9985 40.1924C37.9805 40.1769 37.9626 40.1614 37.9446 40.1437C37.4644 39.6581 35.5525 36.7073 33.7078 33.6855C37.6439 42.0614 42.3475 49.8542 51.9116 52.6543C56.0946 51.9227 58.9086 49.8653 60.549 48.1205C63.758 44.7019 64.6467 40.9795 64.9182 39.6049C65.0304 39.0374 65.192 38.1927 65.2167 37.133C65.3087 32.8785 63.0713 28.1496 59.4203 25.3473Z" fill="#5E17EB"/>
</g>
<defs>
<clipPath id="clip0_28_222">
<rect width="66" height="53" fill="white"/>
</clipPath>
</defs>
</svg>
